<?xml version="1.0" encoding="UTF-8"?>
<svg id="Siegel" xmlns="http://www.w3.org/2000/svg" version="1.1" viewBox="0 0 198.45 52.53">
  <!-- Generator: Adobe Illustrator 30.3.0, SVG Export Plug-In . SVG Version: 2.1.3 Build 182)  -->
  <defs>
    <style>
      .st0 {
        fill: #036;
      }

      .st1 {
        fill: #b2cc33;
      }

      .st2 {
        fill: #fff;
      }
    </style>
  </defs>
  <g>
    <path class="st0" d="M8.29,22.49h-3.36v3.53h2.98c.14,0,.2.07.2.2v.59c0,.15-.07.22-.2.22h-2.98v4.61c0,.14-.07.2-.2.2h-.84c-.14,0-.2-.07-.2-.2v-10.02c0-.15.07-.22.2-.22h4.69c.14,0,.2.04.2.11,0,.04,0,.07,0,.09,0,.02-.01.03-.02.05l-.22.67c-.04.12-.12.17-.24.17Z"/>
    <path class="st0" d="M10.95,24.93c.05.11.12.34.19.67l.17-.2c.36-.42.67-.71.92-.85.22-.13.48-.2.8-.2.24,0,.46.05.65.14.07.03.11.07.11.11,0,.02-.01.06-.03.11l-.38.82s-.04.06-.08.06c-.01,0-.03,0-.05-.02-.18-.06-.33-.09-.47-.09-.35,0-.85.39-1.5,1.16v5.04c0,.12-.06.17-.17.17h-.8c-.12,0-.17-.06-.17-.17v-4.57c0-.52-.01-.87-.03-1.05-.05-.34-.17-.68-.34-1-.04-.07-.06-.13-.06-.16,0-.05.03-.09.09-.13l.62-.41s.08-.03.13-.03c.11,0,.25.2.39.59Z"/>
    <path class="st0" d="M20.14,28.45h-4.36c.08,1.71.76,2.57,2.02,2.57.55,0,1.14-.18,1.75-.55.05-.03.1-.05.14-.05.05,0,.09.03.11.08l.28.59c.02.08.03.12.03.11,0,.22-.35.42-1.06.61-.59.16-1.05.23-1.36.23-.96,0-1.72-.35-2.3-1.04-.57-.69-.86-1.63-.86-2.8s.27-2.11.81-2.81c.54-.7,1.27-1.05,2.19-1.05s1.56.3,2.05.89c.49.59.73,1.42.73,2.48v.45c0,.19-.06.28-.17.28ZM17.46,25.25c-1.04,0-1.59.75-1.66,2.26h3.28c-.03-1.51-.57-2.26-1.63-2.26Z"/>
    <path class="st0" d="M22.32,25.47h-1.27c-.07,0-.11-.06-.11-.17v-.6c0-.11.04-.17.11-.17h2.3c.08,0,.13.06.13.17v6.97c0,.12-.06.17-.17.17h-.81c-.12,0-.17-.04-.17-.11v-6.27ZM22.79,20.91c.26,0,.48.09.66.27.18.18.27.4.27.65s-.09.48-.27.66c-.18.18-.4.27-.66.27s-.47-.09-.65-.27c-.18-.18-.27-.4-.27-.66s.09-.47.27-.65c.18-.18.4-.27.65-.27Z"/>
    <path class="st0" d="M31.11,28.45h-4.36c.08,1.71.76,2.57,2.02,2.57.55,0,1.13-.18,1.75-.55.05-.03.1-.05.14-.05.05,0,.09.03.11.08l.28.59c.02.08.03.12.03.11,0,.22-.35.42-1.06.61-.59.16-1.05.23-1.36.23-.96,0-1.73-.35-2.3-1.04-.57-.69-.86-1.63-.86-2.8s.27-2.11.81-2.81c.54-.7,1.27-1.05,2.19-1.05s1.56.3,2.05.89c.49.59.73,1.42.73,2.48v.45c0,.19-.06.28-.17.28ZM28.43,25.25c-1.04,0-1.59.75-1.66,2.26h3.28c-.03-1.51-.57-2.26-1.62-2.26Z"/>
    <path class="st0" d="M36.96,21.62c0-.15.07-.22.2-.22h.84c.13,0,.2.07.2.22v7.39c0,.73.14,1.25.44,1.56.29.31.78.46,1.48.46,1.38,0,2.07-.67,2.07-2.02v-7.39c0-.15.07-.22.21-.22h.78c.14,0,.21.07.21.22v7.42c0,1.05-.33,1.83-.98,2.35-.56.44-1.33.66-2.31.66-2.09,0-3.14-1-3.14-3v-7.42Z"/>
    <path class="st0" d="M45.69,24.34c.19,0,.34.34.47,1.02.84-.68,1.66-1.02,2.44-1.02.67,0,1.14.17,1.41.51.27.34.41.93.41,1.76v5.07c0,.12-.06.17-.17.17h-.8c-.11,0-.17-.06-.17-.17v-5.09c0-.85-.34-1.27-1.02-1.27-.64,0-1.3.32-1.99.96v5.41c0,.12-.06.17-.17.17h-.81c-.11,0-.17-.06-.17-.17v-5.26c0-.58-.09-1.07-.28-1.46-.01-.02-.02-.05-.03-.08,0-.04.03-.08.08-.11l.69-.39s.08-.03.12-.03Z"/>
    <path class="st0" d="M53.15,25.47h-1.27c-.07,0-.11-.06-.11-.17v-.6c0-.11.04-.17.11-.17h2.3c.08,0,.13.06.13.17v6.97c0,.12-.06.17-.17.17h-.81c-.12,0-.17-.04-.17-.11v-6.27ZM53.62,20.91c.26,0,.48.09.66.27.18.18.27.4.27.65s-.09.48-.27.66c-.18.18-.4.27-.66.27s-.47-.09-.65-.27c-.18-.18-.27-.4-.27-.66s.09-.47.27-.65c.18-.18.4-.27.65-.27Z"/>
    <path class="st0" d="M58.68,30.19c.01.05.03.15.06.28.05-.19.15-.51.3-.96l1.81-5.02c.03-.08.07-.13.11-.13.02,0,.05,0,.1.02l.8.22c.09.02.14.06.14.13-.01.05-.02.07-.02.06l-.02.03-2.8,7.06c-.02.05-.08.08-.17.08h-.64c-.05,0-.09-.05-.12-.14l-2.59-7.09s-.01-.02,0-.03c0,0-.01,0-.01-.02,0-.06.05-.1.16-.13l.86-.17s.05-.02.08-.02c.05,0,.09.04.13.13l1.64,5c.03.08.06.19.09.33.01.01.05.13.11.36Z"/>
    <path class="st0" d="M68.42,28.45h-4.36c.08,1.71.76,2.57,2.02,2.57.55,0,1.14-.18,1.75-.55.05-.03.1-.05.14-.05.05,0,.09.03.11.08l.28.59c.02.08.03.12.03.11,0,.22-.35.42-1.06.61-.59.16-1.05.23-1.36.23-.96,0-1.72-.35-2.3-1.04-.57-.69-.86-1.63-.86-2.8s.27-2.11.81-2.81c.54-.7,1.27-1.05,2.19-1.05s1.56.3,2.05.89c.49.59.74,1.42.74,2.48v.45c0,.19-.06.28-.17.28ZM65.73,25.25c-1.04,0-1.59.75-1.66,2.26h3.28c-.03-1.51-.57-2.26-1.62-2.26Z"/>
    <path class="st0" d="M71.32,24.93c.05.11.11.34.19.67l.17-.2c.37-.42.67-.71.92-.85.22-.13.48-.2.8-.2.24,0,.46.05.66.14.07.03.11.07.11.11,0,.02-.01.06-.03.11l-.37.82s-.04.06-.08.06c-.01,0-.03,0-.05-.02-.18-.06-.33-.09-.47-.09-.35,0-.85.39-1.5,1.16v5.04c0,.12-.06.17-.17.17h-.8c-.11,0-.17-.06-.17-.17v-4.57c0-.52-.01-.87-.03-1.05-.05-.34-.17-.68-.34-1-.04-.07-.06-.13-.06-.16,0-.05.03-.09.09-.13l.63-.41s.08-.03.12-.03c.11,0,.24.2.39.59Z"/>
    <path class="st0" d="M74.69,31.28s.11-.23.3-.67c.02-.05.06-.08.11-.08.02,0,.06.01.11.03.69.34,1.3.51,1.84.51.36,0,.65-.1.87-.3.22-.2.33-.47.33-.8,0-.46-.32-.84-.97-1.14-.83-.39-1.39-.7-1.68-.94-.47-.39-.7-.87-.7-1.44,0-.62.22-1.12.65-1.52.43-.4.99-.59,1.66-.59.61,0,1.21.14,1.78.43.11.06.17.12.17.19,0,.04-.01.08-.03.11l-.27.56c-.03.07-.08.11-.14.11-.03-.01-.07-.03-.11-.05-.58-.26-1.06-.39-1.42-.39-.77.01-1.16.35-1.16,1.02,0,.47.28.84.83,1.11l1.06.51c.56.27.95.55,1.18.84.22.29.34.65.34,1.1,0,.65-.22,1.17-.66,1.56-.44.39-1.03.59-1.76.59-.83,0-1.58-.19-2.23-.58-.06-.04-.09-.09-.09-.14v-.05Z"/>
    <path class="st0" d="M81.56,25.47h-1.26c-.07,0-.11-.06-.11-.17v-.6c0-.11.04-.17.11-.17h2.3c.08,0,.12.06.12.17v6.97c0,.12-.06.17-.17.17h-.81c-.12,0-.17-.04-.17-.11v-6.27ZM82.03,20.91c.26,0,.48.09.66.27.18.18.27.4.27.65s-.09.48-.27.66c-.18.18-.4.27-.66.27s-.47-.09-.65-.27c-.18-.18-.27-.4-.27-.66s.09-.47.27-.65c.18-.18.4-.27.65-.27Z"/>
    <path class="st0" d="M84.28,24.53h1.08v-2.09c0-.09.05-.16.16-.19l.84-.24s.02,0,.02-.02h.02c.07,0,.11.06.11.17v2.36h2.28c.09,0,.14.04.14.11,0,.02,0,.05-.02.09l-.17.6c-.03.09-.1.14-.2.14h-2.03v4.29c0,.49.06.82.19.99.12.17.37.26.73.26.33,0,.79-.13,1.36-.39.04-.02.08-.03.11-.03.04,0,.07.03.1.09l.2.68v.03c0,.05-.04.1-.12.16-.6.3-1.22.46-1.84.46-.68,0-1.16-.17-1.44-.51-.28-.34-.42-.91-.42-1.72v-4.31h-1.08c-.13,0-.19-.06-.19-.17v-.6c0-.11.06-.17.19-.17Z"/>
    <path class="st0" d="M90.54,29.93c0-1.74,1.34-2.63,4.02-2.67v-.5c0-.49-.11-.84-.32-1.05-.21-.21-.58-.31-1.09-.31s-1.12.15-1.8.46c-.06.02-.1.03-.11.03-.05,0-.09-.03-.11-.08l-.22-.62s-.03-.08-.03-.11c0-.11.18-.23.55-.36.62-.24,1.25-.36,1.88-.36,1.59,0,2.39.72,2.39,2.15v2.88c0,.86.13,1.53.41,2.01.02.02.03.05.03.08,0,.04-.02.07-.05.09l-.67.41c-.05.03-.09.05-.13.05-.18,0-.36-.32-.56-.96-.67.64-1.39.96-2.17.96-.61,0-1.1-.19-1.47-.56-.36-.38-.55-.88-.55-1.52ZM91.88,23.06c-.22,0-.41-.08-.57-.24-.16-.16-.24-.35-.24-.58s.08-.43.24-.59c.16-.16.36-.24.58-.24s.41.08.57.24c.16.16.24.36.24.59s-.08.41-.24.58c-.16.16-.36.24-.59.24ZM94.55,30.17v-1.96c-1.9,0-2.84.55-2.84,1.61,0,.35.1.65.3.88.2.23.47.34.79.34.52,0,1.1-.29,1.75-.88ZM94.88,23.06c-.23,0-.42-.08-.58-.24-.16-.16-.23-.35-.23-.58s.08-.43.23-.59c.16-.16.35-.24.58-.24s.42.08.58.24c.16.16.23.36.23.59s-.08.43-.23.58c-.16.16-.35.24-.58.24Z"/>
    <path class="st0" d="M97.29,24.53h1.08v-2.09c0-.09.05-.16.16-.19l.84-.24s.01,0,.01-.02h.02c.07,0,.11.06.11.17v2.36h2.28c.09,0,.14.04.14.11,0,.02,0,.05-.02.09l-.17.6c-.03.09-.1.14-.2.14h-2.03v4.29c0,.49.06.82.19.99.13.17.37.26.74.26.33,0,.79-.13,1.36-.39.04-.02.08-.03.11-.03.04,0,.07.03.09.09l.2.68v.03c0,.05-.04.1-.13.16-.6.3-1.22.46-1.84.46-.68,0-1.16-.17-1.44-.51-.28-.34-.42-.91-.42-1.72v-4.31h-1.08c-.12,0-.19-.06-.19-.17v-.6c0-.11.06-.17.19-.17Z"/>
  </g>
  <g>
    <path class="st0" d="M167.26,23.9c0,1.18-.5,2.01-1.48,2.49.47.12.83.3,1.08.53.54.5.81,1.18.81,2.05,0,.73-.19,1.35-.59,1.85-.39.51-.92.82-1.57.93-.34.06-.87.09-1.56.09h-2.22c-.14,0-.21-.07-.21-.2v-10.01c0-.15.07-.22.21-.22h2.5c1.11,0,1.89.21,2.33.63.47.45.7,1.07.7,1.86ZM164.19,22.43h-1.41v3.61h1.11c1.35,0,2.02-.66,2.02-1.98,0-.6-.13-1.02-.39-1.26-.26-.24-.7-.37-1.33-.37ZM164.2,27.04h-1.42v3.79h1.5c1.36,0,2.05-.63,2.05-1.9s-.71-1.89-2.12-1.89Z"/>
    <path class="st0" d="M174.9,28.45h-4.36c.08,1.71.75,2.57,2.02,2.57.55,0,1.13-.18,1.75-.55.05-.04.1-.05.14-.05.05,0,.09.03.11.08l.28.59c.02.08.03.12.03.11,0,.22-.36.42-1.06.61-.6.16-1.05.23-1.36.23-.96,0-1.72-.34-2.3-1.04-.57-.69-.86-1.62-.86-2.8s.27-2.11.81-2.81c.54-.7,1.27-1.04,2.19-1.04s1.56.3,2.04.89c.49.59.74,1.42.74,2.48v.45c0,.19-.06.28-.17.28ZM172.21,25.26c-1.04,0-1.6.75-1.66,2.25h3.28c-.03-1.5-.57-2.25-1.62-2.25Z"/>
    <path class="st0" d="M177.8,24.94c.05.11.12.34.19.67l.17-.2c.36-.42.67-.71.92-.85.22-.13.49-.2.8-.2.24,0,.46.05.66.14.07.03.11.07.11.11,0,.02-.01.06-.03.11l-.38.82s-.04.06-.08.06c-.01,0-.03,0-.05-.02-.18-.06-.33-.09-.47-.09-.36,0-.85.38-1.5,1.16v5.04c0,.12-.06.17-.17.17h-.8c-.12,0-.17-.06-.17-.17v-4.56c0-.52-.01-.87-.03-1.05-.05-.34-.17-.68-.34-1-.04-.07-.06-.13-.06-.16,0-.05.03-.09.09-.13l.62-.41s.08-.03.12-.03c.11,0,.24.2.39.59Z"/>
    <path class="st0" d="M181.84,29.8v-8.59c0-.09.06-.16.17-.19l.78-.19s.02,0,.03-.02h.06c.07,0,.11.06.11.17v9.09c0,.66.22.99.66.99.2,0,.42-.06.67-.19.06-.02.1-.03.11-.03.05,0,.09.03.11.09l.19.57c.02.05.03.09.03.13,0,.04-.04.08-.11.12-.4.17-.79.25-1.19.25-.61,0-1.04-.16-1.27-.47-.23-.31-.35-.89-.35-1.74Z"/>
    <path class="st0" d="M186.07,25.48h-1.27c-.07,0-.11-.06-.11-.17v-.6c0-.11.04-.17.11-.17h2.3c.08,0,.12.06.12.17v6.96c0,.12-.06.17-.17.17h-.81c-.11,0-.17-.04-.17-.11v-6.26ZM186.54,20.93c.26,0,.48.09.66.27.18.18.27.4.27.65,0,.26-.09.48-.27.66-.18.18-.4.27-.66.27s-.47-.09-.65-.27c-.18-.18-.27-.4-.27-.66s.09-.47.27-.65c.18-.18.4-.27.65-.27Z"/>
    <path class="st0" d="M190.42,24.35c.19,0,.34.34.47,1.02.84-.68,1.65-1.02,2.44-1.02.67,0,1.14.17,1.41.51.27.34.41.93.41,1.76v5.06c0,.12-.06.17-.17.17h-.8c-.12,0-.17-.06-.17-.17v-5.08c0-.85-.34-1.27-1.01-1.27-.63,0-1.3.32-1.98.95v5.4c0,.12-.06.17-.17.17h-.81c-.11,0-.17-.06-.17-.17v-5.26c0-.58-.09-1.07-.28-1.46-.01-.02-.02-.05-.03-.08,0-.04.02-.08.08-.11l.69-.39s.08-.03.12-.03Z"/>
  </g>
  <rect class="st1" y="34.98" width="198.45" height="2.92"/>
  <path class="st2" d="M157.77,26.27c0,14.51-11.76,26.27-26.26,26.27s-26.27-11.76-26.27-26.27S117,0,131.51,0s26.26,11.76,26.26,26.26Z"/>
  <path class="st0" d="M150.08,7.69c-5.13-5.13-11.32-7.69-18.57-7.69s-13.44,2.56-18.57,7.69c-5.13,5.13-7.69,11.32-7.69,18.57s2.56,13.44,7.69,18.57c4.92,4.92,10.83,7.49,17.71,7.69.13,0,.26,0,.4,0,.16,0,.31,0,.46,0,7.25,0,13.45-2.57,18.57-7.7,5.13-5.13,7.69-11.32,7.69-18.57s-2.56-13.44-7.69-18.57ZM149.74,44.49c-5.03,5.04-11.12,7.56-18.23,7.56-.15,0-.31,0-.46,0-.13,0-.26,0-.39-.01-6.76-.19-12.55-2.71-17.39-7.54-5.03-5.03-7.55-11.11-7.55-18.23s2.52-13.2,7.55-18.23c5.04-5.04,11.11-7.55,18.24-7.55s13.2,2.52,18.23,7.55c5.04,5.04,7.55,11.11,7.55,18.23s-2.52,13.19-7.55,18.23ZM149.51,8.26c-4.97-4.97-10.97-7.46-18-7.45-7.03,0-13.03,2.48-18,7.45-4.97,4.97-7.45,10.97-7.45,18.01s2.48,13.03,7.45,18c4.77,4.78,10.5,7.26,17.17,7.45.13,0,.26,0,.39,0,.15,0,.3,0,.45,0,7.03,0,13.03-2.49,18-7.46,4.97-4.97,7.46-10.97,7.46-18s-2.49-13.03-7.46-18.01ZM149.37,44.12c-4.93,4.93-10.89,7.4-17.86,7.4-.15,0-.3,0-.45,0-.13,0-.26,0-.38,0-6.62-.19-12.3-2.65-17.03-7.39-4.93-4.93-7.4-10.88-7.4-17.86,0-6.98,2.46-12.93,7.4-17.86,4.93-4.93,10.89-7.4,17.86-7.4s12.93,2.47,17.86,7.4c4.93,4.93,7.4,10.89,7.4,17.86,0,6.97-2.47,12.92-7.4,17.86ZM146.32,11.46c-4.09-4.09-9.03-6.14-14.81-6.14s-10.72,2.04-14.81,6.14c-4.09,4.09-6.13,9.03-6.13,14.81s2.04,10.72,6.13,14.81c3.93,3.93,8.63,5.97,14.12,6.13.11,0,.21,0,.32,0,.12,0,.25,0,.37,0,5.78,0,10.72-2.05,14.81-6.14,4.09-4.09,6.13-9.02,6.13-14.81s-2.04-10.72-6.13-14.81ZM146.2,40.96c-4.06,4.06-8.96,6.09-14.69,6.09-.12,0-.25,0-.37,0-.11,0-.21,0-.31,0-5.45-.16-10.12-2.18-14.01-6.08-4.06-4.06-6.09-8.95-6.09-14.69s2.03-10.64,6.09-14.69c4.06-4.06,8.96-6.09,14.7-6.09s10.64,2.03,14.69,6.09c4.06,4.06,6.09,8.96,6.08,14.69,0,5.74-2.03,10.63-6.08,14.69ZM132.24,9.5l.6-.79-.98.15-.35-.96-.38.99-.96-.16.63.81-.62.78,1-.15.34.94.37-.96.96.15-.61-.8ZM131.81,10.03l-.29.75-.26-.73-.78.12.49-.61-.49-.63.75.12.29-.77.27.75.76-.12-.47.62.47.62-.75-.12ZM116.62,32.69l.28-.96-.86.5-.67-.77v1.06s-.95.2-.95.2l.88.53-.3.96.88-.5.65.75v-1.03l.96-.2-.86-.53ZM116.4,33.33v.8l-.51-.59-.68.39.23-.75-.68-.41.74-.16v-.82s.52.6.52.6l.67-.38-.22.74.66.41-.74.16ZM148.72,32.71l-.95-.21-.02-1.03-.66.76-.86-.51.29.99-.86.49.98.24-.04,1.02.7-.76.82.53-.27-.99.86-.52ZM147.94,33.96l-.64-.41-.55.59.03-.79-.76-.19.66-.38-.25-.76.69.38.49-.59.04.8.74.16-.66.41.21.77ZM137.84,4.86c.04-.07.11-.08.17-.04M139.94,6.17c-.07-.04-.11-.06-.12-.08-.05-.05-.08-.12-.11-.21-.05-.43-.11-1.02-.18-1.79-.07-.76-.12-1.17-.16-1.21-.04-.05-.11-.08-.19-.09-.09-.01-.14,0-.15.07-.02.06-.33.45-.92,1.17-.29.36-.59.72-.88,1.07-.15.06-.29.11-.44.14-.07.06-.06.12.01.19.14.07.3.13.45.18,0,0,0,0,0,0,.03,0,.05.02.08.02.13.03.27.06.42.07.05-.02.08-.05.08-.1,0-.05-.03-.11-.12-.17,0,0,0,0,0,0-.04-.03-.08-.07-.1-.11-.02-.04-.03-.07-.03-.11,0-.01,0-.03,0-.04.02-.1.1-.22.24-.34l.17-.04c.28.06.64.18,1.06.35.05.19.06.38.02.59-.02.05-.05.08-.1.08-.1,0-.17,0-.2.01-.11.03-.12.1-.03.21.36.18.73.29,1.1.33.06,0,.11-.03.12-.08.02-.04,0-.09-.04-.15ZM138.12,4.5l.77-.93s.05-.02.07.02l.08,1.2-.91-.3ZM135.34,1.86c.06,0,.11.01.13.03.03.02.05.06.06.12.05.27.04.5-.02.7-.05.05-.11.07-.18.04-.04-.07-.08-.17-.12-.32-.03-.11-.07-.18-.12-.21-.13-.08-.28-.13-.45-.13-.08,0-.12.05-.14.16-.04.31-.09.61-.13.92-.01.11-.03.22-.04.33-.04.37-.08.73-.11,1.1l.22.16s.04.06.04.09c0,.03-.01.05-.05.06-.13.04-.3.06-.51.04-.2-.02-.39-.06-.57-.12-.08-.08-.09-.14-.02-.19l.21-.09s.06-.07.07-.13l.3-2.27c-.01-.09-.05-.14-.11-.14-.13-.04-.24-.05-.34-.04-.17.03-.3.15-.37.35-.12.14-.21.15-.29.05,0-.22.05-.46.16-.72.02-.04.05-.08.09-.09.04-.02.07-.01.1,0,.54.09.9.15,1.09.17.41.06.77.09,1.08.11M137.05,2.59c-.05.03-.08.06-.1.1-.18.64-.34,1.39-.49,2.25,0,.06,0,.08,0,.09,0,.03.02.06.06.08.12.06.17.12.15.18-.01.06-.07.1-.18.11-.31-.03-.62-.11-.94-.23-.03-.04-.05-.08-.04-.12.01-.05.04-.08.1-.09l.16-.05s.07-.06.08-.11c.22-.73.39-1.49.51-2.28,0-.04-.01-.08-.04-.12l-.15-.12c-.08-.08-.05-.15.08-.2.33.03.65.1.96.2.06.04.09.08.09.13,0,.04-.03.08-.08.1-.05.02-.11.05-.18.08M131.47,2.02s-.02-.08-.06-.11l-.17-.09c-.09-.07-.08-.14.04-.22.33-.03.65-.03.98.01.07.03.1.07.11.11,0,.04,0,.08-.06.12-.04.03-.1.07-.16.11-.05.04-.07.07-.08.11-.05.66-.07,1.43-.05,2.3,0,.06.01.09.02.09,0,.03.03.05.07.06.12.04.19.08.19.15,0,.06-.05.11-.16.14-.31.03-.64.01-.96-.05-.04-.03-.06-.07-.06-.11,0-.05.03-.08.08-.11l.15-.08s.05-.08.06-.12c.08-.76.1-1.54.06-2.33M130.23,2.03c-.14-.06-.29-.07-.46-.04-.08.01-.11.08-.11.18.04.8.1,1.59.18,2.36l.25.11s.05.05.06.08c0,.03,0,.05-.03.07-.12.07-.28.11-.5.13-.2.02-.4.02-.58,0-.1-.06-.11-.12-.06-.18l.19-.12s.05-.08.05-.14l-.14-2.29c-.04-.08-.08-.13-.14-.12-.13,0-.24,0-.34.03-.16.07-.27.21-.3.42-.09.16-.18.19-.27.1-.05-.22-.05-.46.02-.74.01-.05.04-.08.07-.11.03-.02.06-.02.1,0,.55-.01.92-.03,1.1-.04.41-.02.77-.06,1.09-.1.06-.01.11,0,.13,0,.03.01.06.05.08.1.1.25.14.49.11.69-.03.06-.09.09-.17.08-.05-.06-.11-.16-.18-.29-.05-.1-.1-.16-.16-.18M126.75,2.12c.1-.11.19-.12.29-.04.09.08.19.27.32.56,0,.11-.02.16-.08.17-.06,0-.15-.03-.27-.13-.14-.12-.27-.19-.37-.21-.42-.04-.68.07-.77.33-.1.33.11.56.63.66l.63.14c.32.06.53.23.62.52.11.31.09.57-.07.78-.09.17-.24.31-.47.41-.27.13-.62.18-1.04.17-.22-.02-.36-.07-.43-.15-.07-.08-.12-.18-.17-.29,0-.02-.01-.04-.02-.07-.03-.09-.04-.2-.05-.32.07-.11.15-.13.25-.05l.29.28c.13.13.26.2.4.22.26.05.46,0,.63-.15.17-.21.23-.38.16-.51-.05-.09-.12-.16-.21-.23-.1-.07-.2-.12-.31-.13l-.82-.2c-.21-.07-.37-.17-.47-.31-.18-.26-.21-.54-.08-.82.18-.37.49-.57.93-.61.29-.02.45-.03.49-.04M121.46,3.93c-.04-.06-.04-.11,0-.16.34-.18.65-.31.93-.39.14,0,.19.05.17.18-.13.07-.19.16-.17.28.11.41.24.79.39,1.16,0,.02.02.04.03.07.11.25.23.5.36.73.05.09.13.15.25.18.19.06.39.05.6-.03.2-.07.36-.19.48-.35.06-.18.07-.36.04-.54,0-.02,0-.03,0-.04,0,0,0-.01,0-.02-.19-.58-.41-1.16-.67-1.71-.01-.05-.05-.08-.1-.1-.06-.02-.12-.02-.21,0-.04-.02-.07-.04-.07-.04-.02-.03-.02-.07,0-.12.2-.16.46-.26.78-.31.1.01.14.05.14.11,0,.04-.02.07-.02.08,0,.01-.04.04-.11.1-.07.05-.08.13-.05.21l.63,1.62c.02.06.04.12.05.18,0,.02,0,.04.01.07.02.13.01.26-.01.38-.03.12-.05.21-.08.25-.03.06-.09.14-.19.22-.12.12-.24.2-.36.27-.13.07-.27.12-.43.15-.28.05-.52.05-.73-.02-.28-.13-.47-.31-.58-.55l-.69-1.71c-.03-.07-.07-.11-.12-.11-.1.02-.19,0-.25-.03M121.34,7.05s.01-.09,0-.13c-.29-.7-.64-1.4-1.05-2.07-.03-.04-.06-.05-.1-.06h-.19c-.11-.01-.14-.08-.06-.21.27-.19.56-.34.87-.47.07,0,.12,0,.15.05.03.03.03.07,0,.13-.02.04-.05.1-.09.17-.03.05-.03.1-.02.14.27.61.62,1.29,1.05,2.04.03.04.05.07.06.07.02.02.06.03.09.02.12-.03.21-.02.23.04.03.05,0,.12-.07.2-.26.18-.55.32-.88.43-.05,0-.08-.03-.11-.07-.02-.04-.02-.08.02-.13l.09-.14M122.31,12.77c.1-.16.15-.29.14-.39.06.13.05.37-.04.7-.02.07-.01.17.01.29.03.12.05.26.05.42,0,.16.01.38.02.65,0,.02,0,.04.02.07.03.04.05.06.06.08.04.06.03.1-.04.12-.11-.08-.18-.2-.19-.34,0-.03,0-.08,0-.17,0-.07,0-.13-.02-.17-.04-.17-.14-.29-.31-.38.01-.04.02-.12.03-.23,0-.11.02-.2.05-.27.02-.05.05-.11.1-.18.02-.04.07-.11.12-.19M121.41,13.9c.08-.13.13-.25.13-.34.02-.19,0-.37-.08-.53.24.28.32.54.25.78-.05.18-.02.31.1.4.12.09.2.16.24.23.06.08.08.17.06.27l-.03.3c-.05-.02-.09-.05-.11-.09-.02-.04-.02-.09-.01-.16,0-.07,0-.13-.05-.16-.04-.03-.08-.03-.13,0-.07.05-.11.11-.11.16,0,.05.02.11.06.19l.12.18c0,.18-.02.28-.05.3-.11-.16-.19-.32-.25-.48-.03-.08-.03-.19,0-.32.01-.06.01-.11,0-.15-.01-.04-.04-.08-.08-.13-.07-.08-.11-.16-.12-.24-.01-.08,0-.16.05-.22M123.01,13.64c-.06-.21-.07-.44-.03-.67.04-.25.12-.42.23-.51-.12.39-.08.78.13,1.16.05.08.08.17.08.25,0,.09-.02.15-.06.2-.18.19-.28.44-.29.76-.07-.08-.12-.12-.13-.15,0-.04.01-.12.06-.24l.08-.17c.02-.1.02-.19,0-.29,0-.06-.04-.17-.08-.34M123.9,13.68s-.02.1-.04.18c-.03.14-.01.24.06.32.12.15.03.4-.28.75-.04-.03-.05-.08-.03-.16.13-.1.17-.22.11-.34-.08-.17-.09-.33-.02-.5,0-.03.05-.1.11-.21.05-.09.08-.17.11-.24,0,.06,0,.13,0,.2M123.31,15.76s0,0,0,0c.06.11.07.19.02.27,0,0,0,.02,0,.03-.02.06-.02.12,0,.19.03.1.12.2.26.31-.07.05-.15.09-.24.11-.04,0-.07.01-.11.02-.07-.15-.1-.28-.1-.39,0-.08.02-.15.06-.23.05-.1.08-.16.08-.17.01-.04.02-.09,0-.13,0-.03-.02-.06-.03-.09.02.02.04.05.05.08M122.14,15.67s0,.04,0,.06c0,.03,0,.07.02.12,0,.02.02.05.05.09.02.04.04.08.06.12.05.16.06.37.03.63-.05-.01-.1-.03-.14-.05-.04-.03-.08-.05-.11-.07-.02-.05-.04-.1-.03-.15,0-.05.02-.1.05-.14.03-.04.03-.1,0-.19-.03-.09-.04-.14-.04-.15-.01-.12,0-.21.07-.28.05-.06.09-.1.1-.13-.02.05-.04.11-.05.15M122.81,15.27c-.03-.1-.06-.17-.08-.22-.07-.2-.04-.38.09-.52-.08.2-.03.42.13.68.05.07.07.15.06.23,0,.04-.02.1-.06.15-.02.03-.05.08-.08.14,0,.02-.01.05-.01.08,0,0,0,.01,0,.02,0,.04,0,.08,0,.1,0-.04-.02-.08-.04-.11-.03-.06-.04-.08-.04-.09-.02-.07-.01-.15.04-.26.02-.05.02-.11,0-.19M122.7,16.1s.03-.07.04-.1c0,.02,0,.05-.01.1,0,0,0,0,0,0,0,.05-.01.1-.01.14,0,.13.07.29.21.48-.11,0-.23,0-.34-.02-.05-.15-.05-.29,0-.42.05-.08.08-.14.11-.2h0M145.86,12.2v1.69M145.27,29.92h0M141.58,38.5,137.5,34.76v-.23M123.19,32.15c-.02-.09-.02-.16,0-.2h-1.66s.02.11,0,.21c-.02.1-.01.18.02.24h.18c0-.08.04-.14.08-.19.05-.04.09-.08.11-.1.01,0,.04,0,.1,0,.05,0,.1.02.14.03l.02,1.56c-.02.15-.11.23-.28.25v.08h.8s0-.08.02-.12c.02-.06.03-.1.03-.13-.1-.03-.17-.08-.2-.14v-1.46c.17-.03.29-.03.37,0,.08.03.13.1.13.2l.15.03c0-.06,0-.14-.03-.25ZM121.77,29.85l.53,1.69.3.07.05-.07-.15-.15.63-1.56c.09-.1.22-.17.38-.2l.02-.08h-.66s.08.11.08.11l-.48,1.18-.38-1.26h-.58v.15c.13-.02.21.03.25.13ZM133.29,40.3c-.06-.03-.16-.06-.31-.09-.17-.04-.29-.07-.37-.1-.08-.05-.13-.13-.15-.22-.01-.08,0-.16.04-.23.05-.07.11-.11.19-.12.09-.01.19.03.29.11l-.05.18h.25l.15-.5-.28.02-.04.06c-.2-.04-.38-.07-.5-.06-.13,0-.24.06-.33.17-.09.11-.13.24-.12.41.01.16.14.29.39.38.25.09.42.2.51.33.08.13.09.25.03.34-.2.11-.4.11-.6-.03l-.02-.15-.18-.13-.18.65.43.05s-.02-.06,0-.08c.59.12.93.02,1.03-.3.04-.21.04-.37,0-.49-.03-.1-.09-.17-.18-.22ZM131.99,38.65c.03.1.08.19.16.26.08.07.18.11.29.12.12.01.22,0,.3-.01.18-.04.31-.1.39-.18.03-.02.05-.05.06-.08.01-.02.02-.03.02-.03v.2s.23.03.23.03l-.03-.88-.33.05s0,.1-.03.16c-.03.09-.05.13-.05.14,0,0,.02,0,.08,0,0,0,.02.01.01.02,0,0,0,.02,0,.03-.03.11-.07.18-.14.23-.05.04-.12.04-.23.03-.09-.01-.16-.06-.23-.13-.07-.08-.12-.19-.14-.34,0-.12.06-.19.19-.21.11-.02.25,0,.44.06l-.04-.37s-.05.09-.11.13c-.13,0-.21,0-.25-.01-.16-.09-.21-.21-.15-.36.08-.23.18-.36.31-.37.07,0,.15.03.22.09.06.05.1.11.13.2l-.11.03s0,.07.03.13c.04.07.05.13.04.17l.31.08.1-.78h-.15l-.15.13c-.23-.21-.46-.28-.7-.21-.11.03-.2.08-.28.16-.08.08-.13.17-.15.28l-.02.28c0,.07.06.16.16.28-.19.23-.25.46-.18.7ZM114.97,21.31c-.33-.99-.6-1.83-.8-2.54-.25-.9-.43-1.73-.55-2.49-.55,1.01-1,1.96-1.34,2.86-.42,1.11-.72,2.21-.89,3.3-.2,1.3-.31,2.49-.33,3.58-.03,1.36.09,2.7.34,4,.11-1.59.47-3.11,1.07-4.56.59-1.42,1.42-2.81,2.5-4.16ZM113.38,17.6c.22,1.06.58,2.29,1.06,3.71-1.22,1.29-2.23,3.2-3.01,5.73-.08-3.43.58-6.58,1.96-9.45ZM124.9,33.64c-.12-.36-.21-.78-.28-1.25,0-.19.11-.29.3-.28l.1-.23-1.66.05c0,.08.02.13.06.16.03.03.08.04.15.04.05,0,.09.02.11.06.02.04.03.09.02.15l-.33,1.26c-.03.14-.1.23-.23.28l.05.1.53-.03.15-.58c.04-.27.25-.37.63-.3l.28.96.35-.05.04-.17c-.13.02-.22-.04-.27-.17ZM124.44,32.74c0,.07-.02.11-.07.13-.08.02-.16.03-.25.02-.04,0-.08-.04-.1-.1,0-.19.03-.37.11-.55.14-.07.23-.04.27.07.05.14.07.28.05.43ZM123.47,30.26c0,.07.06.16.17.28-.19.23-.25.46-.18.7.03.1.08.19.16.26.08.07.17.11.28.12.12.01.22,0,.3-.01.18-.04.31-.1.39-.18.03-.02.04-.05.06-.08,0-.02.02-.03.02-.03v.2s.23.03.23.03l-.02-.88-.33.05s0,.1-.03.16c-.03.09-.05.13-.05.14,0,0,.03,0,.07,0,.01,0,.02,0,.01.02v.03c-.03.11-.07.18-.14.23-.05.04-.12.04-.23.03-.09-.01-.16-.06-.23-.13-.07-.08-.12-.2-.15-.34,0-.12.06-.19.19-.21.11-.02.25,0,.44.06l-.04-.37s-.05.09-.11.13c-.12,0-.21,0-.25-.01-.16-.09-.21-.21-.15-.36.08-.23.18-.36.32-.36.07,0,.15.02.22.08.06.05.1.12.13.2l-.11.03s0,.07.03.13c.04.07.05.13.04.17l.31.08.1-.78h-.15l-.15.13c-.23-.21-.46-.28-.7-.21-.11.03-.2.09-.28.16-.07.08-.13.17-.15.28l-.02.28ZM134.71,40.1l-.15-.3-.15.3h-.3l.15.25-.12.25h.28l.15.28.15-.28.3.03-.15-.28.15-.25h-.3ZM129.42,39.83c0-.06,0-.14-.02-.25-.02-.09-.02-.16,0-.2h-1.66s.02.11,0,.21c-.02.1,0,.18.02.24h.18c0-.08.04-.14.09-.19.05-.05.09-.08.11-.1.01,0,.05,0,.1,0,.06,0,.1.02.14.03l.03,1.56c-.02.15-.11.23-.28.25v.08h.8s0-.08.02-.12c.02-.06.03-.1.03-.13-.1-.03-.16-.08-.2-.14v-1.46c.17-.03.29-.03.37,0,.08.03.13.1.13.2l.15.03ZM137.25,33.65c-.12-.36-.2-.78-.27-1.25,0-.19.1-.29.29-.28l.09-.23-1.52.05s0,.06,0,.1c0,.03,0,.05.03.06.03.03.07.04.12.04.05,0,.08.02.1.06.02.04.03.09.01.15l-.31,1.26s0,.04-.02.06h-.09c-.06-.03-.09-.06-.1-.11l.03-1.31c0-.11.05-.19.15-.23v-.13l-.63.03-.02.15c.08,0,.13.06.15.15v1.33c0,.15-.08.22-.21.24l.11.17.42-.06.04.08.5-.03.14-.58c.04-.27.24-.37.59-.3l.26.96.33-.05.04-.17c-.12.02-.21-.04-.25-.17ZM136.83,32.78c0,.07-.02.11-.08.13-.07.02-.16.03-.25.02-.05,0-.08-.04-.1-.1,0-.19.03-.37.11-.55.14-.06.23-.04.27.07.05.14.07.29.05.43ZM149.8,24.32c-.54-1.12-1.23-2.11-2.08-2.97.76-1.86,1.27-3.72,1.52-5.58-.66-.36-1.31-.61-1.94-.78-.63-.17-1.11-.28-1.43-.33v-.25c1.09.19,2.04.47,2.87.85-.79-1.33-1.75-2.54-2.87-3.64-.56-.55-1.16-1.08-1.81-1.57-1.99-1.53-4.24-2.7-6.75-3.5,2.22,1.21,4.06,2.9,5.54,5.07h-.56c-.05-.08-.1-.16-.15-.23-.07-.11-.14-.21-.2-.3-.08-.11-.16-.22-.24-.33-.08-.1-.17-.22-.28-.36-.1-.12-.21-.25-.33-.39-.12-.14-.25-.28-.39-.43-.19-.19-.38-.37-.57-.55-.83-.75-1.79-1.41-2.85-1.98-.91-.48-1.88-.83-2.92-1.04-.52-.11-.96-.18-1.33-.22-.45-.05-.94-.07-1.45-.07-.54,0-1.11.05-1.69.11-.6.07-1.13.16-1.59.27-.98.24-1.93.61-2.83,1.11-2.08,1.15-3.66,2.61-4.73,4.39h-.61c1.47-2.16,3.31-3.84,5.53-5.05-2.51.8-4.76,1.96-6.74,3.5-1.93,1.49-3.49,3.23-4.67,5.21.83-.38,1.8-.67,2.91-.86v.2c-.28.05-.73.16-1.36.33-.63.16-1.28.42-1.94.78.25,1.86.76,3.72,1.52,5.59-.84.86-1.54,1.85-2.08,2.97-.52,1.07-.9,2.2-1.14,3.37-.24,1.17-.3,2.37-.18,3.6.12,1.23.41,2.45.88,3.64.47,1.2,1.07,2.29,1.81,3.27.74.98,1.65,1.84,2.74,2.58,1.08.74,2.31,1.31,3.69,1.73,1.38.41,2.87.6,4.48.55.09.06.19.12.28.18h-.07c-2.67.31-5.19-.18-7.56-1.46,3.63,3.03,7.83,4.65,12.57,4.87-.77-.45-1.58-1.18-2.45-2.19.21.07.42.13.63.19,0,0,.02,0,.03,0,.58.8,1.36,1.48,2.34,2.03.05.03.1.06.15.08.05-.03.1-.05.15-.08.96-.51,1.74-1.19,2.35-2.03.22-.06.44-.13.65-.2-.9,1.08-1.72,1.82-2.45,2.21,4.73-.19,8.92-1.82,12.57-4.89-2.46,1.32-4.99,1.82-7.57,1.49.09-.06.17-.12.25-.17,1.65.04,3.17-.15,4.54-.56,1.37-.41,2.61-.99,3.69-1.73,1.08-.73,2-1.59,2.74-2.58.74-.98,1.34-2.07,1.81-3.27.47-1.2.76-2.41.88-3.64.12-1.23.06-2.43-.18-3.6-.24-1.17-.62-2.3-1.14-3.37ZM147.25,21.22l-.91.07c.58-1.46,1.06-2.95,1.43-4.47l.86-.48c-.28,1.58-.75,3.21-1.38,4.88ZM145.88,21.09v-4.65c.5.06.96.2,1.37.4-.19,1.18-.65,2.6-1.37,4.25ZM148.58,15.95l-.93.54c-.54-.23-1.13-.42-1.78-.58v-.84c1.11.28,2.01.58,2.71.88ZM147.63,14.29c-.7-.22-1.28-.35-1.76-.39v-1.69c.75.79,1.34,1.48,1.76,2.09ZM145.64,31.26s.02-.1.03-.14c.16-.89.23-1.74.22-2.54v-6.62c.88.73,1.64,1.73,2.28,3,.64,1.27,1.03,2.45,1.17,3.54.15,1.09.14,2.17-.01,3.25-.16,1.08-.44,2.1-.86,3.04-.41.94-1.01,1.87-1.8,2.79-.79.92-1.68,1.67-2.68,2.25-1,.58-1.83.96-2.48,1.15-.65.19-1.27.3-1.84.35.62-.56,1.22-1.16,1.78-1.8,1.39-1.58,2.5-3.35,3.31-5.3.25-.6.46-1.22.63-1.87.1-.36.18-.73.25-1.11ZM131.65,41.9c.1-.07.22-.11.36-.12.11-.01.26,0,.45.01.33.03.64.08.92.13.28.05.64.11,1.06.17.34.05.65.07.93.06.18,0,.3-.05.36-.13.04-.06.06-.15.05-.26.03-.97.03-1.86.01-2.65-.01-.5-.02-1.03-.01-1.58,0-.62,0-1,0-1.13.14.06.27.16.37.27.08.08.15.19.2.31,0,.75,0,1.53-.02,2.35-.02,1.01-.04,1.98-.07,2.91,0,.26-.16.37-.44.36-.29-.02-.63-.06-1.03-.13-.4-.07-.76-.13-1.08-.18-.26-.04-.45-.08-.55-.1-.58-.12-.9-.18-.96-.18-.24-.03-.43.01-.55.11v-.23ZM131.65,36.58s.07-.02.2-.08c.15-.05.26-.08.32-.09.16-.03.3-.04.42-.04.04,0,.12,0,.25,0,.12,0,.25.01.37.03.48.08.86.12,1.14.12.19,0,.62-.04,1.28-.13,0,.77,0,1.88-.02,3.33-.02,1.34-.03,2.01-.04,2.03,0,.02-.02.06-.03.12-.02.04-.06.07-.12.1-.05.02-.14.03-.28.01-.7-.02-1.38-.1-2.04-.22-.52-.08-.83-.11-.95-.11-.18,0-.35.04-.49.11v-5.18ZM136.34,36.52c-.1-.12-.2-.21-.31-.26-.04-.02-.09-.04-.13-.05-.01,0-.09,0-.23,0l-.41.05c-.42.06-.65.09-.7.09-.06,0-.2,0-.45-.01-.26,0-.45-.02-.59-.04-.16-.03-.26-.04-.31-.04-.06,0-.18-.02-.35-.02-.18,0-.34,0-.49.03-.15.03-.27.05-.35.07-.08.02-.16.04-.24.05-.08.02-.16.03-.23.04-.11.01-.16.01-.17,0-.05-.03-.23-.08-.55-.13-.32-.06-.52-.09-.62-.08-.39.01-.58.02-.59.02-.24.03-.46.06-.65.08-.37.04-.63.04-.81,0-.14-.02-.27-.05-.41-.08-.14-.03-.29-.04-.45-.05-.16,0-.29.04-.39.12-.1.09-.2.21-.32.36-.1.13-.17.26-.19.36h-6.11s-.71-1.21-.71-1.21h23.76c-.22.41-.46.81-.72,1.2h-6.03c-.06-.17-.15-.34-.28-.5ZM126.69,42.11c0-.13,0-.27-.01-.41-.03-1.36-.03-2.93,0-4.71.1-.29.3-.48.6-.58-.02.6-.04,1.51-.08,2.71-.03,1.05-.03,1.95,0,2.7,0,.11,0,.19.07.26.05.07.2.1.43.1s.57-.03,1.02-.09c.19-.03.54-.08,1.05-.17.38-.07.68-.11.87-.12.29-.02.55.02.76.11v.23c-.14-.12-.3-.16-.51-.13-.2.03-.55.1-1.05.22-.49.11-.97.21-1.44.3-.46.09-.87.12-1.22.1-.12-.01-.22-.02-.29-.01-.07,0-.13-.02-.17-.08-.04-.06-.06-.15-.04-.29,0-.05,0-.09,0-.14ZM127.33,41.78s0-.08,0-.15l.03-5.2c.55.09.98.12,1.31.09.07,0,.23-.04.45-.1.23-.06.44-.1.63-.12.22-.03.45-.02.7.02.08.01.24.05.48.1.22.05.37.11.45.17v5.16c-.12-.06-.29-.09-.51-.09-.17,0-.48.02-.94.08-.45.05-.86.11-1.21.15-.35.05-.65.08-.91.08-.25,0-.4-.02-.43-.07-.04-.05-.05-.09-.05-.12ZM126.06,41.13c.06.06.13.09.22.09.05,0,.09,0,.14-.03.02,0,.04,0,.04.02v.26h-2.09l-1.37-1.22h3.46v.38s0,.03-.03.03c-.04-.02-.09-.03-.14-.03-.08,0-.16.03-.22.09-.06.06-.09.13-.09.21s.03.15.09.21ZM126.06,37.9c.06.06.13.09.22.09.05,0,.09,0,.14-.03.02,0,.02,0,.02.02v.54s-5.04,0-5.04,0l-.92-1.23h5.96v.11s0,.02,0,.03c0,0,0,0-.02,0-.04-.02-.09-.03-.14-.03-.08,0-.16.03-.22.09-.06.06-.09.13-.09.21s.03.15.09.21ZM126.43,38.76v1.23h-3.72c-.06-.06-.12-.11-.18-.17l-.58-.62-.02-.02c-.12-.14-.23-.28-.33-.41h4.81ZM145.37,28.51l-.05,1.13h-2.59c-.06-.17-.15-.34-.28-.5-.14-.17-.29-.27-.44-.31,0,0-.09,0-.23,0-.68.09-1.06.15-1.16.17-.1.02-.26.02-.48,0-.22-.02-.47-.06-.73-.12-.29-.06-.46-.1-.49-.1-.27-.02-.52.02-.74.11-.11.05-.19.09-.24.11-.09.04-.18.06-.26.07-.07,0-.13,0-.19-.03-.08-.05-.15-.09-.23-.13-.22-.11-.59-.12-1.12-.02-.52.1-.9.14-1.13.13-.23,0-.48-.04-.73-.08-.62-.12-.97-.14-1.05-.08-.43.33-.66.59-.7.78h-2.06c-.04-.12-.08-.23-.15-.33-.04-.05-.08-.11-.12-.16-.14-.17-.29-.27-.44-.31,0,0-.09,0-.23,0-.67.08-1.04.12-1.12.13-.08,0-.22,0-.43,0-.29,0-.56-.03-.82-.08-.29-.06-.46-.1-.49-.1-.27-.02-.52.02-.74.11-.11.05-.19.09-.24.11-.09.04-.18.06-.26.07-.07,0-.13,0-.19-.03-.08-.05-.15-.09-.23-.13-.22-.11-.58-.13-1.08-.06-.5.07-.91.12-1.24.12-.17,0-.4,0-.66-.04-.64-.12-1-.15-1.07-.09-.42.32-.63.6-.63.82l-2.64-.03c-.03-.27-.04-.47-.05-.6-.01-.22-.02-.39,0-.53h27.72ZM135.09,18.28c0-.05.03-.09.07-.1,0,.04.03.08.1.12l-.16-.02ZM135.45,17.63c-1.04,0-1.94-.08-2.7-.25-.43-.1-.82-.28-1.16-.53-.3-.22-.47-.41-.53-.59-.06-.18-.06-.29,0-.33.06-.04.15.01.28.15.43.47,1.04.74,1.81.83,1.07.12,1.83.3,2.29.54.08.04.12.08.12.12,0,.04-.03.06-.1.06ZM136.94,14.49s-.09-.07-.13-.07c-.02,0-.03,0-.04,0,0,0-.02,0-.03-.02,0-.02.01-.04.05-.05.15-.04.28-.03.37.03.07.04.16.14.28.29-.09.08-.2.13-.33.15-.06,0-.09-.02-.09-.07,0-.11-.03-.19-.09-.26ZM142.96,33.33c-.06-.06-.13-.09-.22-.09-.05,0-.1.02-.15.04v-.43h2.08c-.12.43-.26.83-.43,1.23h-1.66v-.27s.1.03.16.03c.08,0,.16-.03.22-.09.06-.06.09-.13.09-.21s-.03-.15-.09-.21ZM144.75,32.61h-2.14l.04-1.22h2.4M142.65,31.13l.03-.52c.05.02.1.02.15.02.08,0,.16-.03.22-.09.06-.06.09-.13.09-.21s-.03-.15-.09-.21c-.06-.06-.13-.09-.22-.09-.04,0-.08,0-.12.03v-.14s2.56,0,2.56,0l-.19,1.22h-2.43ZM137.75,34.53c.21-.14.49-.2.82-.17.33.03.64.08.92.13.29.05.64.11,1.06.17.42.06.73.09.93.08.2,0,.32-.04.36-.09.05-.06.06-.15.05-.26.03-.99.03-1.87.02-2.65-.02-.48-.02-1-.01-1.58,0-.62,0-1,0-1.13.14.06.27.16.37.27.08.09.15.19.2.31,0,.83-.01,1.61-.02,2.35-.02,1.04-.04,2.01-.07,2.91,0,.2-.13.3-.37.3-.34.01-.82-.02-1.45-.09-.21-.03-.45-.07-.72-.13-.27-.07-.46-.11-.57-.13-.59-.12-.91-.18-.96-.18-.24-.03-.43.01-.55.11v-.23ZM137.75,34.38l.03-5.17s.04-.02.12-.06c.09-.05.19-.1.29-.13.21-.07.37-.11.49-.11s.31.03.57.1c.32.08.71.13,1.19.13.32,0,.75-.03,1.29-.1.05,1.74.05,3.08,0,4-.01.28-.03.61-.04.98,0,.21-.01.32-.03.34-.04.07-.1.12-.18.16-.08.03-.16.04-.24.04l-2.03-.22c-.47-.05-.79-.07-.96-.07-.18,0-.34.04-.49.11ZM132.78,34.34c-.03-1.36-.03-2.93,0-4.71.12-.26.33-.45.6-.58-.01.6-.04,1.51-.08,2.71-.03,1.05-.03,1.95,0,2.7,0,.11,0,.19.05.26.05.06.12.1.21.1.4,0,.81-.03,1.25-.09.19-.03.54-.08,1.05-.17.38-.07.68-.11.87-.12.29-.01.55.02.76.11v.23c-.09-.07-.27-.1-.55-.07-.15.02-.47.07-.97.17-.52.1-1.01.2-1.48.29-.46.09-.87.12-1.22.1-.35-.03-.52-.15-.5-.37,0-.18-.01-.36-.01-.55ZM137.03,34.28c-.17,0-.49.02-.94.08-.46.05-.86.11-1.21.15-.35.05-.66.08-.91.08-.25,0-.4-.02-.43-.07-.04-.05-.05-.09-.05-.12,0-.03,0-.08,0-.15l.03-5.2c.61.1,1.04.14,1.31.11.28-.03.67-.08,1.19-.16.51-.08.87-.08,1.07,0,.21.08.35.15.42.2v5.18c-.14-.07-.3-.11-.48-.11ZM132.16,33.76c.06.06.13.09.22.09.05,0,.09,0,.14-.03.01,0,.02,0,.02.02v.25h-2.17v-.25s0-.02.03-.02c.04.02.09.03.13.03.09,0,.16-.03.22-.09.06-.06.09-.13.09-.21s-.03-.15-.09-.21c-.06-.06-.13-.09-.22-.09-.05,0-.09.01-.14.03-.02,0-.03,0-.02-.03v-.39h2.16v.39s0,.03-.01.02c-.04-.02-.08-.03-.14-.03-.09,0-.16.03-.22.09-.06.06-.09.13-.09.21s.03.15.09.21ZM130.39,32.6l.03-1.23h2.11v1.23h-2.14ZM130.43,31.13l.03-.52s0-.02.02-.02c.04.02.09.03.13.03.09,0,.16-.03.22-.09.06-.06.09-.13.09-.21s-.03-.15-.09-.21c-.06-.06-.13-.09-.22-.09-.05,0-.1.01-.13.03,0,0-.02,0-.02,0,0,0,0-.01,0-.02v-.11h2.07v.11s0,.02,0,.03c0,0-.01,0-.02,0-.04-.02-.08-.03-.14-.03-.09,0-.16.03-.22.09-.06.06-.09.13-.09.21s.03.15.09.21c.06.06.13.09.22.09.05,0,.09,0,.14-.03.01,0,.02,0,.02.02v.52s-2.1,0-2.1,0ZM125.54,34.53c.21-.09.46-.12.75-.11.37.02.66.05.87.09.34.06.69.1,1.05.12.49.07.89.1,1.2.1.1,0,.17-.03.21-.08.04-.06.06-.15.05-.25.03-1,.03-1.89.01-2.65-.01-.46-.02-.98-.01-1.57,0-.62,0-1,0-1.13.14.07.27.16.37.27.08.09.15.19.2.31,0,.79-.01,1.57-.03,2.35-.02.98-.04,1.95-.07,2.91,0,.19-.13.28-.37.29-.39.01-.88-.02-1.45-.09-.54-.07-.97-.13-1.29-.2-.49-.09-.81-.15-.96-.17-.3-.03-.48-.02-.55.04v-.23ZM125.53,34.38l.03-5.17s.04-.02.12-.07c.09-.05.19-.1.29-.13.2-.07.37-.1.49-.11.12,0,.31.04.57.1.32.08.71.12,1.19.13.32,0,.75-.03,1.3-.1.05,1.74.02,3.5-.08,5.29,0,.07-.03.12-.08.14-.05.03-.18.03-.38.02-.33-.02-.58-.03-.75-.04-.52-.03-.93-.07-1.24-.1-.47-.05-.79-.08-.96-.07-.18,0-.34.04-.49.11ZM121.08,34.45c-.01.11,0,.19.05.25.04.07.12.1.21.1.39,0,.81-.03,1.25-.09.19-.03.54-.08,1.05-.17.38-.06.67-.11.87-.12.29-.02.55.02.76.11v.23c-.09-.08-.27-.1-.55-.07-.15.01-.47.07-.97.17-.52.1-.95.17-1.3.22-.54.07-1.05.09-1.53.08-.24,0-.36-.1-.37-.27,0-.18-.01-.36-.01-.55-.03-1.36-.03-2.93,0-4.71.12-.26.32-.45.61-.58-.02.6-.04,1.5-.08,2.7-.03,1.05-.03,1.95,0,2.7ZM124.81,34.28c-.17,0-.49.04-.94.11-.46.07-.86.13-1.21.16-.35.03-.73.05-1.12.05-.1,0-.17-.03-.21-.1-.03-.04-.05-.08-.05-.13,0-.01,0-.02,0-.03v-.09l.03-5.2c.61.1,1.04.14,1.31.11.28-.03.67-.08,1.19-.16.51-.08.87-.07,1.07,0,.21.08.34.15.42.2v5.18c-.14-.07-.3-.11-.47-.11ZM120.34,29.92v.11s0,.02-.02.02c-.04-.02-.09-.03-.13-.03-.09,0-.16.03-.22.09-.06.06-.09.13-.09.21s.03.15.09.21c.06.06.13.09.22.09.05,0,.1,0,.14-.03.02,0,.03,0,.02.03v.51h-2.44c-.09-.41-.15-.82-.18-1.21h2.61ZM120.33,31.4v1.21h-2.09c-.13-.39-.22-.79-.28-1.21h2.37ZM120.32,32.86v.39s0,.03-.01.03c-.04-.02-.09-.03-.14-.03-.09,0-.16.03-.22.09-.06.06-.09.13-.09.21s.03.15.09.21c.06.06.13.09.22.09.05,0,.09-.01.14-.03.01,0,.02,0,.02.02v.24s-1.58,0-1.58,0c-.18-.41-.32-.81-.42-1.22h1.99ZM120.35,34.33c0,.24,0,.4,0,.48,0,.14.03.25.06.32.04.08.11.14.2.18.09.04.22.05.4.05.55,0,1.05-.03,1.49-.09.35-.04.78-.12,1.3-.22.17-.03.36-.07.59-.12.16-.03.27-.05.33-.05.04,0,.07,0,.09.03,0,.01.02.04.04.07.06.07.24.1.53.11h.02c.29,0,.47-.04.53-.11.02-.03.04-.06.05-.07.02-.01.05-.02.1-.02.05,0,.17.02.36.06.19.04.46.08.83.14.37.06.75.11,1.14.16.39.04.75.08,1.09.09.32.01.52,0,.61-.04.07-.03.13-.09.17-.18.04-.07.06-.18.06-.32,0-.07,0-.23,0-.48h2.21c0,.25,0,.41,0,.48,0,.14.03.25.07.32.04.08.09.15.15.2.06.05.27.07.63.07.36,0,.75-.03,1.18-.1.43-.06.9-.15,1.41-.25.16-.03.36-.07.59-.12.16-.03.27-.05.33-.05.04,0,.07,0,.09.03,0,0,.02.04.04.07.06.07.24.11.53.11h.02c.29,0,.47-.04.53-.11.02-.04.04-.06.06-.07.02,0,.05-.02.1-.02.05,0,.17.02.36.06.19.04.47.08.83.14.37.06.75.11,1.14.16.5.06.86.09,1.09.1.32.01.53,0,.61-.04.07-.03.12-.09.17-.19.04-.07.06-.18.06-.32,0-.08,0-.23,0-.48h1.59l-.61,1.21h-24.05c-.33-.53-.53-.93-.62-1.22h1.47ZM136.55,38.5l.03-.52c.06,0,.11.01.16.01.09,0,.16-.03.22-.09.06-.06.09-.13.09-.21s-.03-.15-.09-.21c-.06-.06-.13-.09-.22-.09-.05,0-.09.01-.13.03v-.14s5.87,0,5.87,0c-.28.41-.58.82-.9,1.22h-5.02ZM141.37,38.75c-.1.12-.21.24-.31.37-.26.29-.53.58-.8.86h-3.75l.04-1.23h4.83ZM136.49,41.19s.1.03.16.03c.09,0,.16-.03.22-.09.06-.06.09-.13.09-.21s-.03-.15-.09-.21c-.06-.06-.13-.09-.22-.09-.05,0-.1.02-.15.04v-.43h3.51c-.45.43-.91.84-1.39,1.23h-2.13v-.27ZM140.46,8.28c1.95.97,3.55,2.08,4.8,3.34h-1.8c-.97-1.36-1.97-2.48-3.01-3.34ZM123.21,9.38c.69-.66,1.46-1.22,2.28-1.67.87-.48,1.75-.83,2.65-1.07.99-.27,2.02-.42,3.07-.46.87-.03,1.81.06,2.82.26,1.01.2,1.96.52,2.87.96.96.46,1.87,1.07,2.72,1.83.82.72,1.53,1.52,2.11,2.39h-.83c-1.21-1.52-2.65-2.69-4.32-3.5-1.65-.81-3.4-1.2-5.22-1.18-1.81.02-3.52.44-5.14,1.27-1.6.82-2.97,1.95-4.09,3.41h-.79c.38-.66.99-1.41,1.86-2.23ZM140.34,11.61h-17.64c1.03-1.25,2.24-2.25,3.65-2.98,1.58-.82,3.25-1.25,5.02-1.26,1.79-.02,3.49.37,5.1,1.18,1.47.74,2.76,1.76,3.87,3.07ZM122.52,8.3c-1.04.86-2.04,1.96-3,3.32h-1.71c1.19-1.25,2.76-2.35,4.71-3.32ZM117.71,12.25h27.59l.07,15.87h-5.38s-.08-.11-.11-.21c-.01-.07-.02-.18-.03-.34,0-.18-.02-.31-.02-.38-.02-.14-.05-.25-.09-.34.01-.05.03-.08.04-.07.02,0,.05.04.1.12,0-.13-.03-.29-.07-.49-.04-.17-.06-.3-.04-.39.07-.03.11.02.14.15.21-.89.31-1.79.31-2.71.04.03.09.15.14.36.09-.37.09-.79,0-1.25-.03-.17,0-.4.08-.68.08-.47.06-.94-.08-1.42.1.16.22.25.36.28-.22-.42-.4-.91-.55-1.45-.02-.13-.02-.25.02-.35.03-.06.07-.18.12-.36.04-.17.08-.27.11-.3l.04.2s.06-.04.08-.12c.01-.05.03-.14.05-.26.04-.28.09-.45.14-.51.05.09.07.19.08.3.11-.5.09-1.05-.08-1.66l-.12-1.06c.15-.1.22-.23.24-.39v-.35c.05.02.11.08.16.18-.04-.1-.06-.24-.08-.42,0-.14-.04-.23-.09-.29-.32-.37-.73-.5-1.23-.4,0-.22-.06-.39-.18-.52,0-.04.02-.06.1-.05-.12-.16-.26-.24-.42-.23-.04,0-.11-.02-.17-.04-.08-.03-.14-.05-.18-.06-.15-.05-.28-.06-.37-.02-.32.06-.54.25-.65.55-.75-.16-1.25-.18-1.52-.07,0-.05.04-.08.1-.11-.26.03-.46.12-.59.28-.71.1-1.41.23-2.12.38-.46.04-.85.04-1.17,0-.06.09-.1.16-.12.22-.04.09-.03.18.02.26.17.29.2.56.1.82l-.15.36c-.04.09-.06.16-.07.21,0,.05,0,.1.02.14.01.04.05.09.12.16.11,0,.18.05.23.15l.27.23c.09-.21.22-.38.39-.48.05-.03.1-.02.12.03.09.14.24.3.47.48.07-.16.15-.27.26-.35.02-.01.04-.02.06-.01.03,0,.05.02.06.04.03.04.09.1.18.17.1.07.15.1.17.09.06-.04.12-.07.18-.09.07-.02.11-.02.13-.01.02,0,.02.04.02.1.02.16.07.28.15.37.15-.1.28-.12.37-.04.34.27.43.43.26.48-.95-.04-1.5-.07-1.66-.09-.52-.06-.98-.13-1.38-.22-.38-.12-.68-.27-.9-.46-.15-.12-.3-.3-.45-.54-.08-.1-.16-.16-.26-.18-.09-.02-.17,0-.24.05-.08.06-.12.15-.14.26-.02.13,0,.27.04.45.45.95,1.45,1.48,2.99,1.57,1.36.09,1.98.25,1.86.49-.02.05-.07.07-.13.05-.08-.05-.14-.1-.19-.15-.03-.03-.05-.06-.06-.09-.2.09-.36.21-.48.37-.17-.1-.28-.2-.33-.3-.17.05-.31.17-.42.34-.14-.2-.23-.38-.26-.57-.25.04-.43.2-.55.47-.07,0-.11.04-.12.1-.01.06,0,.12.05.18v.17s-.03.03-.03.03c-.02.03-.03.06-.04.09-.03.1,0,.22.06.34.05-.09.13-.15.23-.17,0,.17.07.31.24.42.03-.08.08-.15.15-.2.02.06.04.1.07.12.01.01.05.03.1.05-.01-.06,0-.12.01-.15.13.08.28.12.43.12-.07.07-.1.16-.08.25-.23.11-.43.25-.61.45-.24-.03-.45.03-.62.19.08,0,.13,0,.17.04-.28.12-.61.36-.99.73-.12.12-.24.24-.35.37l-.14.16c.06,0,.11,0,.14-.01.05-.02.08-.02.08,0l-.99,1.16c-.32-.01-.58.02-.78.12-.15-.06-.31-.11-.49-.15-.2-.04-.33-.05-.39-.04-.08.01-.13.01-.17,0-.03-.01-.06-.02-.1-.02l.1-.07s.04-.04.04-.07c-.15.03-.35.04-.59.03-.26-.02-.46-.02-.6-.01.02-.05.06-.09.11-.11-.03,0-.12,0-.28.01-.15.01-.27.01-.36,0,.07-.04.12-.09.13-.14-.15.04-.37.04-.65,0-.28-.05-.45-.07-.48-.06-.04-.04-.04-.08-.02-.1.02-.03.06-.05.11-.08l-.72-.05c.09-.05.14-.12.14-.21-.2.09-.38.1-.55.03-.16-.06-.25-.17-.28-.32-.05.02-.07.08-.07.17-.07-.13-.16-.24-.28-.34-.12-.1-.21-.18-.27-.23-.08-.08-.14-.27-.18-.57-.02-.16-.04-.29-.04-.42,0-.12-.03-.22-.07-.29-.04-.08-.06-.16-.07-.22.07.05.13.06.18.05-.21-.27-.33-.57-.35-.9,0-.03.02-.03.04-.01.03.02.07.04.11.05.04,0,.07.01.07,0-.16-.16-.24-.33-.23-.51,0-.05,0-.12-.03-.23-.02-.12-.03-.2-.02-.24,0-.04.05-.11.12-.19.07-.08.09-.14.08-.18.02-.05.06-.11.13-.16l.18-.14c.06-.08.09-.15.1-.2,0-.06-.03-.12-.11-.2-.09-.08-.14-.15-.16-.21-.02-.06.02-.14.11-.24.09-.1.14-.2.17-.3.03-.1.04-.21.05-.34,0-.1,0-.23-.04-.42-.04-.19-.05-.3-.06-.32-.01-.29.1-.58.34-.89-.35.04-.58.23-.72.58-.14.36-.31.66-.52.9l.03.08s.04.05.08.04c.03,0,.06-.04.08-.08.02-.05.04-.08.05-.1.27-.03.36.07.27.3-.04.08-.09.18-.17.28.11.12.14.28.09.47-.06,0-.11.02-.16.06-.09.06-.2.12-.33.18-.03,0-.06.02-.09.03-.13.04-.3.06-.51.05-.26,0-.47-.03-.64-.09l-.16-.09c-.05-.03-.11-.04-.16-.05,0-.07,0-.11-.04-.13-.04-.02-.1-.03-.19-.03l-.19-.53c-.03-.12-.02-.19.02-.22.02,0,.03-.01.05,0,.02,0,.04.02.04.03.07.1.1.2.1.32.1-.06.11-.13.03-.23-.04-.05-.06-.17-.06-.37,0-.06-.04-.13-.1-.2-.1-.1-.17-.19-.21-.24-.09-.12-.14-.28-.14-.48-.1.32-.1.65,0,1,.07.14.08.29.03.45-.02.15,0,.28.08.38.13.2.13.36,0,.48-.08.11-.07.23.02.35l.3.23c-.04.13,0,.23.15.3.17.21.24.4.2.58-.11-.05-.23-.06-.35,0,.23.14.38.35.46.61-.28-.19-.57-.27-.89-.23.21.15.35.36.4.63-.11.21-.07.45.12.7-.11.08-.14.31-.09.67l.11-.2c0,.19.06.37.21.57.02-.18.05-.25.09-.21l.16.31.06.8-.2.08c.1.1.17.24.22.42l-.07.07s-.03-.01-.05-.02h-.01c-.19-.1-.4-.1-.64,0,.16.08.3.21.41.39l-.06.04c-.19-.06-.42-.04-.7.07.22.16.41.35.55.57l-.06.21c-.04.11,0,.21.13.31-.12.09-.15.32-.1.68.04-.16.09-.25.16-.27,0,.29.07.53.21.74,0-.14.03-.25.08-.33l.2.38.03,1.47c0,.06,0,.11-.01.13-.02.05-.07.09-.14.12-.04.01-.06.02-.07.03,0,0-.01.04,0,.07l.02.14s.08,0,.1.01c.01,0,.02.04.03.09.02.08.07.15.16.22.09.06.19.1.3.12.12.02.24,0,.33-.05.12-.06.2-.16.26-.3.02-.04.02-.06.03-.06.02-.02.04-.03.07-.01.05-.06.06-.13.02-.23l-.14-.08s-.02-.05-.01-.1v-.62s.02,0,.04,0c0,.01.01.04.04.09.04.11.09.18.14.2,0-.1.02-.16.09-.18.11.47.32.91.62,1.31-.03-.06-.04-.15-.04-.26.11.15.27.24.47.27-.1-.08-.13-.12-.08-.15.54.09,1.03.11,1.47.07,0,.04-.04.07-.13.11l.74-.03c-.06-.03-.07-.05-.03-.06.01,0,.04,0,.06.01l.12.05c.17.06.38.11.64.14-.07-.04-.09-.07-.07-.1s.13-.01.33.03c.24.05.44.07.61.07-.06-.03-.1-.05-.11-.08.02-.01.06-.01.15.01l.37.1c.41.08.74.11,1,.07.04,0,.09.03.16.09l-.06-.15c.38-.02.67.05.84.22h-13.05l.1-15.85ZM134.69,15.95l-.16.1-.07-.17.23.07ZM133.95,15.77l-.16.19-.14-.25.29.05ZM133.02,15.73l-.2.27-.08-.07.03-.23h.18l.07.03ZM134.43,18.37c-.1,0-.17-.02-.23-.05,0-.06.04-.1.13-.12,0,.07.04.12.1.17ZM133.71,18.25c-.09,0-.17-.02-.25-.05.02-.07.07-.12.15-.16,0,.07.04.14.1.21ZM124.42,24.4c-.05-.09-.08-.15-.11-.19-.04-.07-.08-.13-.13-.17.09.04.15.04.2,0-.09-.06-.13-.12-.12-.18.02.01.07.05.16.1.08.04.17.12.26.23.02-.05,0-.12-.03-.2.11.08.22.14.31.19.06.03.13.06.23.11.19.09.45.26.75.5.12.1.35.14.67.12-.03.1-.08.17-.16.21-.06.03-.16.04-.29.03-.08,0-.16,0-.24.02-.09.03-.15.05-.2.06-.17.05-.34.06-.52.01-.11-.02-.21-.08-.32-.17-.02-.01-.11-.09-.26-.24.08,0,.14-.01.18-.05-.17-.1-.3-.23-.4-.39ZM122.96,17.66s.07.04.15.04c.11-.02.2-.03.27-.02.12.02.15.08.09.19-.06.18-.08.36-.05.55l-.3.26s.01.07.08.13c.08.07.12.13.12.17,0,.03-.02.05-.07.09-.05.04-.08.07-.08.12,0,.04,0,.09.04.16.04.07.05.13.06.16v.96s-.04.07-.06.19c-.01.13-.01.28,0,.46,0,.11,0,.25-.03.41-.02.13-.03.23-.01.3-.18-.11-.36-.14-.56-.08.08.1.14.21.16.34-.08-.09-.16-.13-.23-.1l-.13-2.83.12-.52c-.07-.05-.1-.1-.11-.16,0-.05.02-.1.05-.16.06-.1.08-.15.08-.15.02-.05.02-.1,0-.13l-.28-.05c-.02-.08-.01-.14.03-.18.03-.03.08-.04.15-.06.08-.01.13-.02.15-.03.04-.02.04-.06.02-.11l-.53-.13c-.06-.05-.09-.1-.09-.14,0-.03,0-.06.03-.1.03-.06.05-.09.05-.12.01-.05,0-.11,0-.17,0-.02.04-.03.07-.02.02,0,.07.02.13.05.15.06.25.08.33.05.02.14.05.21.08.22.03,0,.1-.05.2-.18.1-.07.23-.09.41-.07.03,0,.05,0,.08.01.05,0,.08,0,.1,0,.06,0,.11-.01.14-.04.08-.07.14-.1.18-.11.03,0,.06-.02.08-.05,0,.03,0,.06,0,.1,0,.02.02.05.04.08.02.07,0,.12-.06.17-.14.11-.3.2-.47.27-.13.05-.27.09-.41.12-.01.05,0,.09,0,.11ZM123.51,22l-.2-.2.16.04.05.17ZM122.84,27.17s-.05-.05-.1-.08c-.12-.07-.18-.15-.18-.24-.02-.41-.02-.72-.01-.93.04-.13.09-.18.15-.17.06.02.16.11.29.27.11.13.14.43.08.9-.12.13-.14.23-.06.28.09.08.13.17.11.24-.02.06-.06.11-.15.13-.08.02-.15.02-.23-.02-.08-.04-.13-.11-.15-.2-.02-.06.06-.09.24-.08.03-.04.03-.07,0-.1ZM122.25,22.08l-.08-.05.2-.03.21.09-.33-.02ZM122.73,21.77h.13l.15.15c-.1-.03-.19-.08-.28-.15ZM121.76,18.85h-.23l-.13-.1c.2,0,.32.04.36.1ZM122.2,22.62h-.33l-.15-.1.2-.03.28.13ZM121.94,23.13c-.27,0-.46-.02-.59-.08.09-.03.2-.05.32-.06,0,0,.03.01.09.05.08.04.14.07.18.1ZM115.35,14.31c.43-.62,1.03-1.34,1.81-2.14v1.74c-.5.04-1.1.17-1.81.4ZM117.34,31.25c.2,1.06.49,2.05.88,2.98.82,1.94,1.92,3.71,3.31,5.29.57.65,1.18,1.26,1.83,1.83-.53-.08-1.13-.22-1.78-.41-.66-.19-1.48-.57-2.48-1.15-1-.58-1.89-1.33-2.68-2.25-.79-.92-1.39-1.85-1.8-2.79-.41-.94-.7-1.95-.86-3.04-.16-1.08-.16-2.17-.01-3.25.15-1.09.54-2.27,1.17-3.54.64-1.28,1.37-2.26,2.2-2.96l-.03,6.6c0,.85.07,1.75.25,2.69ZM115.84,16.81c.41-.21.84-.34,1.31-.4l-.02,4.55c-.67-1.58-1.1-2.97-1.29-4.15ZM117.15,15.05v.88c-.6.12-1.17.29-1.71.52l-.93-.54c.7-.3,1.58-.59,2.64-.86ZM114.4,16.31l.85.48c.37,1.52.85,3.01,1.43,4.47l-.91-.07c-.64-1.67-1.1-3.3-1.38-4.88ZM121.09,41.98c-1.3-.42-2.51-1.02-3.63-1.8-1.12-.78-1.94-1.54-2.46-2.29-.52-.74-1.02-1.64-1.49-2.69-.48-1.05-.8-2.15-.98-3.29-.18-1.17-.17-2.4.01-3.69.19-1.3.54-2.5,1.06-3.62.52-1.12,1.21-2.11,2.07-2.97l1.02.03c-.93,1.07-1.65,2.08-2.15,3.01-.53,1-.91,2.04-1.12,3.15-.21,1.1-.27,2.22-.18,3.37.1,1.14.37,2.27.83,3.38.46,1.11,1.07,2.13,1.83,3.06.76.93,1.66,1.72,2.69,2.37,1.03.65,1.99,1.1,2.86,1.34.87.24,1.68.39,2.43.46.07.06.15.12.22.18.28.22.57.44.87.65-1.29-.02-2.59-.24-3.89-.65ZM129.18,46.08c-2.8-.36-5.38-1.23-7.72-2.62,1.73.32,3.43.38,5.1.18.32.18.65.34.99.49l1.62,1.95ZM129.5,44.76c.16.04.33.07.5.11,0,0,0,0,0,0,.34.49.78.85,1.32,1.08v.4c-.65-.37-1.27-.89-1.83-1.58ZM130.29,44.92c.33.06.68.1,1.03.13v.71c-.52-.29-.87-.57-1.03-.85ZM131.66,46.34v-.37c.54-.25.98-.62,1.31-1.1.19-.04.38-.08.57-.12-.57.7-1.19,1.23-1.87,1.59ZM131.67,45.75l.02-.7c.36-.03.71-.08,1.06-.14-.34.38-.7.67-1.07.84ZM131.49,44.45c-1.67-.13-3.17-.54-4.52-1.24h9.02c-1.35.7-2.85,1.12-4.5,1.24ZM141.73,43.46c-2.49,1.43-5.14,2.31-7.95,2.64.63-.61,1.18-1.27,1.67-1.98.36-.15.71-.33,1.05-.52,1.62.26,3.36.21,5.22-.14ZM136.92,42.67c-.1.06-.19.12-.29.18-.06.04-.11.07-.16.1h-9.93c-.46-.28-.91-.57-1.34-.87-.17-.12-.34-.24-.51-.36h1.1s.66,0,.66,0c0,.17,0,.3,0,.39v.07c0,.14.02.25.03.34,0,.09.05.16.12.21.07.05.29.07.67.06.38-.02.78-.05,1.21-.12.43-.07.9-.15,1.41-.25.16-.03.36-.07.59-.12.16-.03.27-.05.33-.05.04,0,.07,0,.08.03,0,.01.02.04.04.07.06.07.24.11.53.11h.02c.29,0,.47-.04.53-.11.02-.04.04-.06.06-.07.01,0,.04-.02.08-.03.04-.01.15,0,.33.02.18.02.47.07.86.14.4.06.82.13,1.25.2.43.07.77.11,1,.12.32.01.52.02.6.02.08,0,.14-.06.18-.17.04-.11.06-.22.07-.33,0-.11,0-.29,0-.53h1.83c-.44.34-.9.66-1.37.96ZM150.56,31.95c-.17,1.15-.5,2.24-.97,3.29-.48,1.05-.98,1.94-1.49,2.69-.52.74-1.34,1.5-2.46,2.28-1.12.78-2.33,1.38-3.63,1.8-1.3.42-2.61.62-3.93.62.36-.26.71-.54,1.04-.83.8-.05,1.64-.2,2.51-.43.87-.24,1.83-.68,2.86-1.34,1.03-.65,1.93-1.45,2.69-2.37.76-.93,1.37-1.95,1.83-3.06.46-1.11.74-2.24.83-3.38.1-1.14.04-2.26-.18-3.37-.21-1.1-.58-2.15-1.12-3.15-.5-.94-1.22-1.94-2.15-3.01l1.02-.03c.86.86,1.55,1.85,2.07,2.97.52,1.12.87,2.32,1.06,3.62.19,1.29.19,2.52.01,3.69ZM152.82,19.37l.13.12c-.03-.07-.07-.11-.13-.12ZM151.7,22.48c-.17-1.09-.47-2.19-.89-3.3-.34-.9-.79-1.85-1.34-2.86-.11.76-.3,1.59-.55,2.49-.2.71-.46,1.55-.8,2.54,1.08,1.35,1.91,2.73,2.5,4.16.6,1.45.93,2.98.97,4.58.32-1.32.46-2.66.44-4.02-.02-1.09-.13-2.28-.33-3.58ZM151.66,27.08c-.79-2.54-1.79-4.45-3.01-5.73.48-1.42.83-2.66,1.06-3.71,1.38,2.87,2.03,6.01,1.96,9.45ZM133.72,38.85l.03.1.58-.08.03-.78s.07-.04.12-.02c.04.01.08.04.11.07.02.02.07.14.16.35.04.05.07.12.12.19.03.05.06.09.09.11.07.05.11.08.12.08.16.03.32.03.49.02-.15-.09-.27-.24-.35-.43-.04-.12-.08-.2-.1-.26-.04-.11-.09-.19-.13-.26.16-.17.24-.33.27-.48.03-.14-.01-.26-.12-.35-.23-.2-.7-.24-1.41-.12v.14c.15.01.23.09.23.25l-.03,1.18c0,.13-.07.22-.2.28ZM134.35,37.3c.34-.02.52.05.54.2.01.1,0,.17-.06.21-.04.04-.13.08-.26.12-.11.04-.19.02-.23-.06v-.47ZM139.77,31.45l.12.18.6-.08s0-.07.02-.12c.03-.05.04-.08.04-.1h-.1c-.06-.03-.09-.06-.1-.11l.03-1.31c0-.1.05-.18.18-.23v-.12l-.7.02v.15c.08,0,.13.05.15.15v1.33c-.01.14-.09.21-.23.23ZM133.57,31.49l.12.18.6-.08s0-.08.01-.12c.03-.05.04-.08.04-.1h-.1c-.06-.03-.09-.06-.1-.11l.03-1.31c0-.11.05-.18.18-.23v-.13l-.7.02v.15c.08,0,.13.05.15.15v1.33c0,.14-.09.21-.23.23ZM139.42,32.75h-.3l.15.25-.13.25h.28l.15.28.15-.28.3.02-.15-.28.15-.25h-.3l-.15-.3-.15.3ZM136.25,29.77c-.08.11-.11.24-.1.41.01.16.12.29.34.38.21.09.36.2.43.33.07.13.08.24.02.34-.17.11-.34.1-.52-.03l-.02-.15-.15-.13-.15.65.37.05s-.02-.06,0-.08c.5.12.79.02.88-.29.04-.21.04-.37,0-.49-.02-.1-.08-.17-.16-.22-.05-.03-.14-.06-.26-.09-.14-.04-.24-.07-.31-.1-.07-.05-.12-.13-.13-.22-.01-.09,0-.16.04-.23.04-.07.1-.11.17-.12.08,0,.16.03.25.12l-.04.18h.22l.13-.5-.24.03-.04.06c-.18-.05-.32-.07-.43-.06-.11,0-.21.06-.29.17ZM135.1,32.1c-.02-.09-.02-.16,0-.2h-1.56s.02.11,0,.21c-.02.1,0,.18.02.24h.18c0-.08.04-.14.09-.19.02-.02.04-.04.05-.06l.02-.04s.05,0,.1,0c.06,0,.1.02.14.03l.03,1.56c-.02.14-.11.23-.28.25v.08h.8s0-.08.02-.13c.02-.06.03-.1.03-.13-.09-.03-.16-.08-.2-.14v-1.47c.14-.03.24-.03.31,0,.08.03.13.1.13.2l.15.02c0-.06,0-.15-.02-.25ZM134.63,29.86l.53,1.69.3.08.05-.08-.15-.15.63-1.56c.06-.06.1-.1.13-.13.05-.04.11-.06.18-.08l.02-.08h-.59s.08.11.08.11l-.48,1.18-.38-1.26h-.58v.15c.13-.01.21.03.25.13ZM138.38,29.76s.04,0,.1,0c.06,0,.1.02.14.03l.03,1.56c-.02.14-.11.23-.28.25v.08h.8s0-.08.02-.13c.02-.06.03-.1.03-.13-.1-.03-.16-.08-.2-.14v-1.47c.17-.03.29-.03.37,0,.08.03.13.1.13.2l.15.03c0-.06,0-.14-.02-.25-.02-.09-.02-.16,0-.2h-1.66s.02.11,0,.21c-.02.1,0,.18.02.24h.18c0-.08.04-.14.09-.19.05-.05.09-.08.11-.1ZM128.06,31.51l.13.18.6-.08s0-.07.01-.12c.03-.05.04-.08.04-.1h-.1c-.06-.03-.09-.06-.1-.11l.03-1.31c0-.11.06-.18.18-.23v-.12l-.7.02v.15c.07,0,.12.05.15.15v1.33c0,.14-.09.21-.23.23ZM127.54,38.98l.08.1,1.18-.05.23-.68c-.19.29-.35.47-.5.55-.08.03-.15.03-.23,0l-.18-.15.03-1.43c0-.11.04-.18.15-.2l.05-.15-.76.1.05.18c.05-.02.08,0,.1.05l-.02,1.38c0,.15-.06.25-.18.3ZM129.12,37.34v1.33c0,.14-.08.21-.23.23l.13.18.6-.08s0-.08.02-.12c.02-.05.04-.08.03-.1h-.1c-.06-.03-.09-.06-.1-.11l.02-1.31c0-.11.06-.18.18-.23v-.13l-.7.03v.15c.08,0,.13.05.15.15ZM130.91,39c.11-.03.2-.1.26-.2.06-.09.09-.2.09-.32s-.03-.23-.08-.33c-.06-.11-.15-.19-.26-.23.38-.36.35-.66-.08-.9l-1.03.06s.04.1.02.16h.05c.08,0,.11.03.1.1l-.05,1.31c-.01.12-.07.21-.18.28l.05.08h1.11ZM130.96,38.35c.04.18-.02.3-.18.35-.21.13-.38.11-.5-.05l-.03-.53c.26-.04.5.04.7.23ZM130.23,37.37l.38-.03c.1.05.16.11.19.17.03.06.03.11,0,.16-.07.11-.23.17-.48.18-.06-.02-.08-.18-.07-.48ZM126.2,33.57l-.03-.15-.18-.13-.18.65.43.05s-.02-.06,0-.08c.59.12.93.02,1.03-.29.04-.21.04-.37,0-.49-.03-.1-.09-.17-.18-.22-.06-.03-.16-.06-.31-.09-.16-.04-.29-.07-.37-.1-.09-.05-.14-.13-.15-.22-.01-.09,0-.16.05-.23.04-.07.11-.11.19-.12.09,0,.19.03.29.12l-.05.18h.26l.15-.5-.28.03-.04.06c-.21-.05-.38-.07-.51-.06-.13,0-.24.06-.33.17-.09.11-.13.24-.12.41.02.16.15.29.39.38.25.09.42.2.5.33.08.13.1.24.03.34-.2.11-.4.1-.6-.03ZM127.91,33.09l-.13.25h.28l.15.28.15-.28.3.03-.15-.28.15-.25h-.3l-.15-.3-.15.3h-.3l.15.25ZM126,31.4l.03.1.58-.08.03-.78s.07-.04.12-.02c.04.01.08.04.11.07.02.03.07.14.16.35.04.05.08.12.12.19.03.05.06.09.09.11.07.05.11.08.12.08.16.03.32.04.49.02-.15-.09-.27-.24-.35-.44-.04-.12-.08-.2-.1-.26-.04-.1-.08-.19-.13-.26.16-.18.24-.33.27-.48.02-.14-.01-.26-.12-.35-.23-.2-.7-.24-1.41-.12v.14c.15,0,.23.09.23.25l-.03,1.18c0,.13-.07.22-.2.28ZM126.63,29.85c.34-.02.52.04.54.2.01.1,0,.17-.06.22-.04.04-.13.08-.26.12-.11.04-.19.02-.23-.06v-.46ZM131.01,41.01c-.12-.36-.21-.77-.28-1.25,0-.19.11-.28.3-.28l.1-.23-1.66.05c0,.08.02.13.06.16.03.03.08.04.15.04.05,0,.09.02.11.06.02.04.03.09.02.15l-.33,1.26c-.02.14-.1.23-.23.28l.05.1.53-.03.15-.58c.04-.27.25-.37.63-.3l.28.96.35-.05.04-.17c-.13.02-.22-.04-.27-.17ZM130.56,40.08c0,.07-.02.11-.08.12-.08.02-.16.03-.25.02-.04,0-.08-.04-.1-.1-.01-.19.03-.37.11-.55.14-.07.23-.04.27.07.05.14.06.29.05.43ZM135.8,33.68h-.02M135.79,33.67c-.03.11-.1.18-.2.21v.02M131.4,42.13v-.23M131.67,45.75l.02-.7M131.34,46.34v-.4M131.66,46.34v-.37M131.33,45.76v-.71M124.36,41.46l-1.37-1.22M131.65,36.58v5.18M121.4,38.51l-.92-1.23M155.27,19.29c-.04-.08-.09-.11-.14-.08-.06.01-.56-.01-1.49-.08-.47-.03-.93-.06-1.38-.1-.14-.09-.26-.18-.36-.28-.09-.02-.14.02-.15.12.02.16.06.32.11.47,0,0,0,0,0,0,0,.03.02.05.03.08.05.13.11.26.18.39.04.03.09.03.12,0,.04-.02.07-.09.07-.19t0,0c0-.05,0-.1.03-.14.02-.04.04-.06.07-.08,0,0,.02-.01.03-.02.09-.05.23-.05.42,0l.13.12c.11.27.22.62.33,1.07-.12.15-.28.26-.47.35-.05.01-.09,0-.12-.03-.05-.08-.09-.14-.12-.16-.09-.07-.15-.04-.19.1.06.39.18.76.36,1.09.04.05.09.07.13.06.05-.01.08-.05.1-.12,0-.08-.01-.13,0-.15.01-.07.05-.14.11-.22.32-.28.77-.67,1.36-1.17.59-.5.89-.77.9-.82.01-.06,0-.13-.04-.2ZM154.5,19.57l-.94.75-.28-.92,1.2.1s.04.04.02.07ZM146.1,6.73s-.02-.04-.02-.05l-.08-.17c-.04-.1.03-.15.18-.13.14.08.27.16.38.25.14.1.27.21.4.33.03.06.04.11.02.15-.02.03-.05.05-.11.05-.05,0-.12,0-.19,0-.06,0-.1.02-.13.04-.43.51-.89,1.12-1.39,1.83-.03.05-.04.08-.04.09,0,.03,0,.06.02.09.08.1.1.18.06.23-.04.05-.11.06-.21.03-.27-.16-.52-.36-.75-.61-.01-.05,0-.09.02-.12.03-.04.07-.05.13-.04l.17.02s.09-.03.12-.06c.51-.57.99-1.19,1.42-1.85.02-.02.02-.05.01-.07M144.51,5.35h0s-.02.07-.05.08c-.03,0-.08,0-.16,0-.06-.01-.1,0-.12.02-.39.51-.79,1.16-1.21,1.94-.04.06-.04.13,0,.23.02.06.21.19.58.4.11.01.21.01.3,0l.4-.2c.12-.03.17.02.15.15-.15.27-.34.48-.58.63-.06.02-.11,0-.15-.08-.05-.07-.11-.12-.18-.15l-1.48-.91c-.07-.04-.09-.09-.06-.15.03-.06.11-.09.22-.08.06,0,.1,0,.12,0,.04,0,.07-.03.08-.07.39-.57.76-1.17,1.09-1.81.03-.06.06-.12.1-.18.05-.05.02-.15-.11-.29,0-.03,0-.06.02-.09.02-.03.05-.05.09-.05.37.15.66.32.88.53.03.02.04.05.04.09M152.96,14.01s0-.01-.01-.02c-.26-.49-.56-.97-.91-1.46-.15-.09-.22-.05-.21.14l.02.11c0,.05-.02.1-.08.12-.43.33-.87.62-1.34.87-.2.11-.41.21-.62.31-.05.03-.11.04-.16.01l-.17-.11s-.07,0-.1.04c-.03.03-.04.06-.03.09.03.16.1.32.21.49.1.16.23.31.38.44.08,0,.13-.04.15-.1l-.02-.2c0-.05,0-.1.06-.13.1-.07.21-.14.31-.21.15-.1.31-.2.46-.29.06-.05.12-.04.17.02.18.25.25.47.23.66-.02.13-.12.29-.3.51-.13.15-.21.24-.22.26-.08.1-.15.2-.19.28-.06.16-.06.31,0,.45.06.14.17.24.33.33.08.01.14,0,.18-.05.04-.04.04-.08,0-.13-.08-.08-.1-.17-.05-.27.04-.11.16-.24.34-.41.09-.1.15-.17.19-.22.06-.08.1-.16.12-.25.02-.08.03-.14.02-.2,0-.05-.03-.11-.07-.17-.02-.04,0-.06.05-.04.18.15.37.23.58.24.18,0,.35-.04.49-.15.09-.07.16-.15.21-.24.03-.06.05-.11.07-.18.05-.19.03-.37-.06-.57ZM152.56,14.21c-.04.13-.1.24-.2.33-.09.08-.22.12-.36.11-.15-.01-.29-.08-.43-.22-.12-.14-.22-.31-.3-.51l.86-.49c.14-.1.29.03.43.38.05.13.05.27.02.41ZM149.84,10.09c0-.19.08-.22.27-.09l1.22,1.48c.15.08.2.16.18.22-.09.18-.21.34-.38.47-.09.03-.15,0-.17-.06-.02-.06,0-.14.04-.24.04-.09.04-.21,0-.34l-.5-.61s-.05-.04-.08-.06c-.08-.04-.16-.04-.24.03-.19.11-.38.25-.59.42-.07.05-.07.11-.02.17l.31.39c.05.08.12.12.2.11.04,0,.12-.04.22-.09.04-.03.08-.04.11-.06.03,0,.05,0,.07,0,.04.02.06.04.08.06.01.03,0,.06-.02.09-.04.06-.08.11-.13.16-.23.25-.51.45-.85.61-.02,0-.04,0-.06-.04-.02-.03-.02-.07,0-.1l.18-.27c.06-.07.06-.15.01-.24l-.4-.45s-.09-.02-.18.03l-.63.58c-.05.07-.06.13-.04.19.18.26.37.5.57.72.08.09.2.12.35.09l.29-.05h.12c.1.01.08.09-.06.24-.21.18-.43.28-.65.31-.08.02-.12,0-.14-.06,0-.05-.03-.11-.07-.17-.46-.53-.81-.95-1.04-1.25-.14-.19-.22-.3-.25-.36-.04-.09,0-.14.11-.15.06,0,.12,0,.17.05.04.03.08.02.13,0,.33-.19.94-.68,1.83-1.46.04-.05.05-.09.03-.13l-.03-.14M149,8.98c-.02-.09-.04-.15-.07-.2-.04-.07-.09-.13-.17-.19l-1.27-1.15c-.19-.01-.24.07-.15.25.03.07.03.14,0,.21-.57.67-1.08,1.24-1.53,1.69-.07.07-.15.08-.26.04-.11-.04-.18-.03-.21.02,0,.15.09.29.29.4l.9.86c.15.17.33.28.54.32.2.04.39.01.57-.07.18-.08.31-.21.4-.37.09-.18.09-.37.02-.58-.03-.11-.09-.22-.17-.34l-.11-.14.23.08c.17.05.3.06.39.05.15-.02.27-.07.37-.16.1-.08.16-.19.2-.31.04-.13.04-.26,0-.4ZM147.28,10.65c-.13.11-.35.09-.63-.05l-.35-.33c-.11-.09-.11-.2,0-.33l.63-.68c.29.18.49.39.6.63.17.28.08.54-.25.75ZM148.19,9.42c-.14.08-.28.1-.43.05-.22-.08-.42-.24-.6-.48.2-.24.42-.47.65-.68.05-.07.13-.08.23-.03.25.21.39.4.43.58.06.19-.04.38-.28.55ZM153.18,22.01s.04-.01.07-.02c.1-.02.21-.03.32-.03.11.08.12.16.04.25l-.29.27c-.13.12-.21.25-.24.39-.06.25-.02.47.11.63.2.18.37.25.5.19.08-.04.17-.11.24-.2.07-.1.12-.2.15-.3l.24-.81c.08-.21.19-.36.33-.45.27-.17.55-.18.82-.04.36.2.55.52.56.96,0,.28,0,.45.02.5.1.1.11.2.02.29-.08.08-.28.18-.57.29-.11,0-.16-.03-.17-.09,0-.06.04-.15.14-.26.13-.14.2-.26.22-.37.06-.42-.03-.68-.29-.79-.33-.11-.56.09-.69.59l-.17.62c-.08.32-.26.51-.55.59-.31.1-.57.06-.77-.11-.17-.1-.3-.26-.39-.49-.11-.28-.15-.63-.12-1.05.03-.22.09-.36.17-.42.09-.07.18-.12.29-.15M153.82,15.43s.04.05.04.09c.19.52.32.86.4,1.03.15.38.3.71.45.99.03.06.04.1.04.13,0,.04-.03.07-.07.11-.21.18-.41.29-.62.33-.07-.01-.11-.06-.12-.13.04-.07.11-.16.21-.26.08-.08.12-.15.12-.21.01-.15-.03-.3-.11-.45-.04-.07-.11-.08-.21-.04-.29.11-.58.23-.86.35-.1.04-.21.09-.31.13-.34.14-.68.3-1.01.46l-.02.27s-.03.07-.06.08c-.02.01-.05.01-.07,0-.1-.09-.2-.23-.29-.43-.09-.18-.15-.37-.18-.55.03-.11.08-.15.16-.11l.18.13s.09.02.15,0l2.12-.87c.07-.06.09-.12.07-.17-.03-.13-.08-.23-.14-.31-.12-.13-.28-.18-.5-.15-.18-.03-.24-.11-.19-.23.19-.12.42-.19.71-.22.05,0,.09,0,.12.03M112.34,10.64c.03-.05.06-.08.09-.1.03-.02.08-.02.13,0,.26.09.46.21.6.37M112.34,10.64c-.17.27-.38.57-.63.9-.11.15-.34.44-.69.87-.03.02-.05.05-.06.08,0,.04,0,.08.04.12.17.23.35.4.55.5.13-.01.16-.11.1-.28-.14-.17-.18-.34-.13-.5.04-.09.1-.18.19-.28.04-.05.1-.06.18-.03l1.84,1.38s.07.08.08.13l-.03.23c0,.08.07.11.18.08.27-.24.48-.54.6-.91,0-.06-.05-.09-.12-.08l-.25.12c-.65-.44-1.29-.91-1.92-1.4-.09-.07-.11-.13-.08-.2.08-.15.2-.26.33-.32.05-.03.13-.03.24,0,.15.04.26.05.34.05.06-.05.08-.11.05-.18M116.35,6.72c-.38.23-.58.55-.58.96,0,.31.15.55.43.7.15.09.33.11.55.08l.83-.18c.11-.03.22-.03.34-.01.12.02.21.06.29.11.12.09.14.26.08.53-.08.2-.25.33-.5.4-.13.04-.29.04-.45-.03l-.38-.13c-.12-.03-.19.02-.2.15.13.25.29.41.5.5.09.04.24.03.45-.05.38-.17.67-.37.86-.61.16-.19.24-.38.25-.58.05-.26-.04-.5-.28-.73-.2-.21-.46-.28-.78-.2l-.63.15c-.51.13-.8.02-.86-.33-.03-.27.16-.48.55-.63.1-.03.24-.02.43.03.15.04.24.04.3,0,.05-.03.05-.1,0-.19-.24-.21-.42-.33-.53-.37-.12-.04-.2.01-.24.16-.04.03-.18.11-.43.25M110.6,13.16l-.49.86c0,.14.07.2.18.16l.15-.12s.08-.02.12,0c.71.35,1.38.75,2,1.19.04.02.07.06.08.11v.17c0,.06.02.1.06.12.04.02.08.02.12,0,.22-.26.39-.54.51-.83.02-.11,0-.18-.05-.21-.06-.04-.13,0-.22.09-.03.02-.06.04-.09.03,0,0-.04,0-.09-.03-.77-.41-1.43-.79-1.99-1.16-.08-.06-.1-.17-.08-.32-.04-.13-.11-.15-.22-.06M108.82,18.25c-.2-.06-.4-.08-.6-.05-.07.01-.1.1-.09.27l-.54,1.84c0,.23.07.29.23.18l.1-.1s.07-.05.13-.05c1.15.3,1.9.53,2.24.7.05.02.07.05.08.1,0,.07,0,.13.05.18.07.09.13.09.19,0,.04-.05.09-.18.16-.41.12-.36.27-.88.46-1.56.03-.07.06-.12.1-.15.04-.05.04-.1-.03-.15-.15-.17-.35-.29-.62-.36-.19-.03-.27,0-.23.09l.08.1.21.21c.11.11.15.22.12.34-.07.29-.16.59-.28.88-.03.05-.09.08-.18.08l-.83-.2c-.09-.04-.13-.08-.13-.12l.15-.58c.04-.09.11-.14.2-.13h.33s.06-.02.08-.05c.01-.04.01-.06,0-.07-.4-.23-.79-.36-1.19-.39-.04,0-.07.01-.08.04-.02.03-.02.06,0,.1,0,.04.06.08.15.12.1.05.17.09.2.13.05.06.06.13.03.23l-.15.48c-.02.08-.07.1-.15.08-.26-.08-.49-.16-.68-.25-.13-.04-.18-.13-.15-.28l.23-.75c.08-.12.18-.19.28-.2.11-.02.19-.05.23-.1.04-.06.02-.11-.05-.18M112.63,15.94c-.03-.07-.08-.12-.13-.12-.06-.01-.09.01-.1.07-.02.11-.08.17-.2.19-.12.02-.29,0-.53-.07-.13-.02-.22-.04-.28-.04-.1,0-.19,0-.28.04-.08.03-.14.06-.18.09-.04.04-.08.09-.11.15-.03.04-.05.03-.05-.02.02-.23-.01-.44-.12-.61-.09-.16-.22-.27-.39-.33-.17-.06-.33-.06-.5,0-.18.06-.33.18-.45.36-.27.49-.52,1.02-.74,1.59,0,.18.09.21.24.1l.08-.07s.09-.04.15,0c.73.26,1.42.59,2.06,1.01.06.03.09.07.1.12v.2s.04.06.09.06c.04,0,.07,0,.09-.02.12-.11.21-.25.3-.44.08-.18.13-.36.16-.56-.05-.06-.1-.09-.16-.07l-.15.13s-.09.04-.14.02c-.29-.12-.57-.24-.84-.37-.07-.03-.1-.08-.08-.15.12-.29.26-.47.43-.55.12-.06.31-.07.59-.03.2.03.32.04.34.04.13.02.25.02.34,0,.17-.04.29-.12.38-.25.08-.13.12-.28.1-.46ZM110.41,16.59c-.06.18-.14.36-.26.53l-.88-.46c-.16-.07-.13-.26.09-.57.08-.11.19-.19.33-.23.13-.04.26-.05.38-.01.12.03.22.12.29.25.07.13.09.29.06.48ZM117.17,10.02s-.08-.05-.15-.03c-.06.04-.11.07-.13.08-.06.02-.14.02-.24,0-.4-.15-.96-.36-1.67-.65-.71-.29-1.1-.42-1.15-.41-.06.02-.12.06-.16.13-.05.08-.05.13,0,.17.04.05.25.5.63,1.35.19.43.37.85.56,1.27-.01.16-.04.31-.08.45.02.09.08.11.18.08.13-.1.25-.21.37-.33,0,0,0,0,0,0,.02-.02.04-.04.06-.06.09-.1.18-.22.25-.34,0-.05-.01-.09-.05-.12-.04-.03-.11-.02-.2.03,0,0,0,0,0,0-.05.02-.1.04-.14.04-.04,0-.08,0-.11-.02-.01,0-.02-.01-.03-.02-.08-.06-.15-.19-.19-.37-.03-.06-.01-.12.04-.17.23-.26.5-.52.79-.79.19.04.36.12.53.25.04.04.04.08.03.13-.05.08-.08.14-.09.18-.02.11.04.15.18.12.32-.24.59-.52.8-.83.02-.06.02-.11,0-.15ZM114.71,10.85l-.48-1.11s.01-.05.05-.05l1.11.48-.68.68ZM110.3,23.2c.08-.04.08-.1,0-.15-1.13-.7-1.98-1.22-2.54-1.58-.08-.05-.13-.14-.15-.26-.08-.19-.16-.2-.25-.05-.08.27-.12.54-.13.83,0,.09.03.14.09.15.05,0,.11-.03.16-.1.06-.08.1-.13.13-.14.06-.03.12-.03.19,0h.03c.53.28,1.01.57,1.46.89.04.03.07.05.07.08,0,.03-.01.04-.05.06-.69.23-1.32.37-1.88.42-.05-.01-.08-.04-.1-.08,0,0,0-.04-.02-.12-.02-.09-.06-.14-.12-.14-.06,0-.11.04-.15.14-.05.12-.08.28-.1.48-.01.09-.02.26-.04.5.02.09.05.13.11.13.06,0,.1-.04.14-.13.06-.11.15-.17.28-.2,1.03-.21,1.99-.46,2.87-.73M107.03,28.81c.02.06.08.11.18.14,1.24-.08,2.06-.19,2.44-.34.02-.02.04-.04.05-.06.02-.03.03-.08.02-.12.05-.13.13-.15.25-.05.08.22.17.89.28,2.01.07.17.1.28.09.31-.16.16-.37.24-.64.23h0c-.12-.05-.15-.11-.1-.19.04-.02.07-.04.1-.07.12-.1.19-.22.22-.37,0-.28-.04-.55-.09-.81-.01-.08-.05-.14-.12-.19,0,0-.02-.01-.03-.02l-.94.09.09.7c.04.09.1.13.17.12.18,0,.3.02.35.06.04.07.02.12-.05.18-.1.06-.27.11-.52.14-.26.04-.49.04-.69,0-.1-.01-.12-.07-.08-.18l.3-.15c.11-.05.16-.11.15-.17l-.05-.58c-.03-.07-.07-.1-.13-.07l-1.01.15c-.07.02-.1.07-.1.13-.04.2-.13.26-.28.18-.07-.15-.12-.5-.15-1.03.06-.18.15-.19.28-.03M110.89,33.38c-.09.16-.22.27-.39.33-.17.07-.35.07-.53.01-.1-.03-.19-.08-.28-.15-.08-.06-.16-.14-.23-.24-.04-.04-.06-.03-.06.02.02.07.03.14.02.19,0,.05-.03.12-.08.19-.05.08-.11.15-.19.21-.05.04-.13.1-.24.17-.22.11-.37.21-.45.31-.07.09-.08.19-.02.28.03.05.02.09-.03.12-.05.04-.11.03-.18,0-.13-.12-.21-.26-.23-.41-.02-.16.02-.3.12-.45.07-.07.15-.15.26-.23.02-.02.12-.08.29-.19.23-.16.38-.3.43-.42.08-.18.06-.41-.05-.71-.03-.07-.09-.09-.16-.06-.29.08-.59.18-.89.28-.06.02-.09.06-.09.11l-.03.2c-.03.05-.09.07-.17.06-.11-.17-.2-.34-.25-.53-.06-.19-.09-.37-.07-.53,0-.03.02-.05.06-.08.04-.03.08-.03.11-.01l.14.15s.1.04.16.03c.63-.1,1.24-.26,1.84-.47.14-.05.27-.1.41-.16.07-.01.11-.04.11-.1v-.11c.05-.19.13-.22.26-.08.22.58.38,1.15.51,1.71.03.22,0,.41-.1.58ZM110.64,32.48c-.04-.38-.15-.54-.32-.49l-.98.25c.03.21.08.41.16.58.06.1.12.17.2.23.05.04.11.08.17.1.14.05.27.05.39,0,.12-.06.21-.15.28-.27.08-.12.11-.26.1-.4ZM111,34.16s-.01.09-.06.12c-.48.25-.9.45-1.24.61-.43.2-.75.33-.96.38-.05.02-.1,0-.13-.03-.04-.06-.1-.09-.16-.1-.11-.02-.16.02-.15.12.01.06.06.2.15.42.15.36.39.86.72,1.51.02.07.03.13.03.19,0,.07.04.1.12.1.12.01.24,0,.37-.02.12-.03.23-.07.35-.13.17-.11.21-.18.12-.23l-.13-.03-.3-.02s-.03,0-.04,0c-.14-.02-.23-.08-.28-.18-.15-.27-.28-.56-.39-.87,0-.06.01-.12.08-.18l.77-.42c.1-.03.16-.03.18,0l.28.55c.03.1,0,.17-.07.23l-.25.22s-.04.06-.02.09c.01.04.03.06.05.05.38-.08.72-.21,1.01-.39.06-.04.12-.08.17-.12.03-.03.04-.05.04-.08,0-.03-.03-.06-.06-.08-.02-.01-.04-.02-.07-.02-.03,0-.08,0-.13.03-.11.03-.19.04-.24.04-.08-.01-.14-.07-.17-.16l-.21-.47c-.04-.07-.01-.13.06-.16.25-.12.48-.21.69-.27.09-.04.17-.03.24.03.02.02.04.04.06.08l.34.74c.02.15,0,.26-.08.34-.07.09-.11.17-.1.23,0,.07.06.1.16.1.2-.09.37-.21.5-.37.04-.06,0-.15-.12-.27l-.84-1.78c-.15-.18-.25-.17-.29.02v.15M112.37,36.85s0,.07-.01.1c0,0-.03.03-.07.07-.74.51-1.41.92-2.01,1.25-.09.04-.2.01-.33-.08-.13-.03-.19.03-.17.17l.55.85c.14.06.21.04.23-.08l-.04-.19s.03-.08.06-.11c.66-.48,1.35-.89,2.05-1.25.04-.02.09-.03.14-.01l.16.08c.05.03.1.03.14,0,.03-.02.05-.06.06-.11-.13-.32-.3-.61-.51-.86-.09-.07-.16-.08-.21-.05-.05.04-.07.12-.02.24M113.56,38.18c-.19-.14-.28-.11-.28.08l.02.15s0,.09-.03.13c-.94.78-1.59,1.26-1.93,1.44-.05.03-.09.03-.13,0-.05-.05-.11-.07-.18-.06-.12,0-.16.06-.12.15.02.06.1.18.24.38.23.31.57.75,1.03,1.32.04.06.06.12.07.18.02.07.06.09.14.07.23-.02.46-.12.68-.3.14-.14.17-.22.07-.25h-.13s-.3.05-.3.05c-.16.03-.28,0-.36-.11-.21-.23-.4-.48-.57-.76-.02-.06,0-.12.04-.19l.67-.57c.09-.05.15-.06.18-.03l.39.48c.05.09.05.17-.01.24l-.2.27s-.02.06,0,.1c.02.04.04.05.06.04.36-.16.65-.36.9-.61.05-.05.1-.1.14-.16.03-.03.03-.06.02-.09-.01-.03-.04-.05-.08-.07-.02,0-.04,0-.07,0-.04.01-.08.03-.12.05-.11.06-.18.09-.23.09-.08,0-.15-.03-.2-.12l-.31-.41c-.05-.06-.04-.12.03-.17.22-.17.42-.31.62-.42.08-.06.16-.07.24-.02.03.02.05.04.08.06l.49.64c.05.14.05.26,0,.35-.05.1-.07.19-.05.25.02.07.08.09.18.07.17-.13.31-.29.4-.48.03-.06-.03-.14-.18-.23l-1.21-1.56M153.04,28.11c.12-.1.21-.08.25.04-.02.1.01.17.1.23.91.19,1.84.34,2.79.45.03,0,.05.02.06.05,0,.01,0,.04,0,.1-.02.09-.34.34-.98.74-.4.25-1.04.63-1.92,1.14l2.01.28c.18-.03.26-.08.26-.17.12-.14.21-.11.28.1.01.21-.01.42-.07.63-.04.11-.1.16-.17.15-.06,0-.11-.05-.14-.13-.02-.07-.04-.11-.05-.14-.02-.04-.04-.06-.08-.06-.8-.17-1.6-.29-2.4-.35-.06-.01-.1.02-.12.1-.13.19-.23.19-.3,0-.01-.23,0-.45.08-.68.96-.52,1.84-1.04,2.62-1.56-.62-.14-1.24-.22-1.86-.25-.06-.02-.12,0-.18.05l-.11.18c-.14.02-.21-.02-.19-.11-.02-.28.02-.54.13-.8M152.43,31.6c-.14.32-.23.64-.28.97,0,.11.05.17.11.19.07.02.13-.03.2-.15.01-.03.04-.05.08-.06,0,0,.04,0,.1,0,.89.19,1.66.39,2.32.6.04.02.07.05.1.11.03.08.05.14.07.19.02.06.05.09.09.09.04,0,.09-.03.14-.09.06-.17.12-.35.16-.52.04-.15.06-.3.08-.47-.05-.15-.12-.19-.2-.12l-.13.15s-.02.02-.04.04c-.01.02-.04.02-.07.01-.81-.15-1.59-.36-2.34-.62-.04-.01-.08-.04-.11-.09l-.05-.17c-.01-.06-.04-.09-.09-.1-.04-.01-.08,0-.12.03M151.66,33.86c-.18.27-.3.6-.39,1.01.01.04.04.06.07.08.03.01.07.02.1,0,.13-.15.22-.21.28-.16.07.02.14.04.21.07.71.23,1.4.5,2.06.81.04,0,.07.04.08.07,0,.02.02.06.02.12,0,.12.05.19.12.22.07.02.12,0,.15-.09l.67-1.7c.02-.08.06-.15.13-.21.06-.06.08-.12.05-.17-.19-.21-.45-.38-.75-.49-.14,0-.18.06-.13.18l.28.38c.03.09.05.19.05.31-.15.41-.26.64-.31.67-.09.06-.17.07-.23.04-.87-.29-1.62-.59-2.22-.91-.03-.01-.04-.05-.04-.12,0-.09,0-.14-.02-.16M148.87,39.49l.5-.65c.13-.08.24-.12.35-.09.12.02.2.02.26-.02.06-.04.07-.1.02-.19-.17-.14-.36-.23-.57-.28-.07-.01-.13.06-.18.23l-1.22,1.6c-.09.22-.04.31.16.26l.13-.06s.09-.03.14,0c1.01.72,1.66,1.24,1.93,1.53.04.04.05.08.04.13-.03.07-.04.13-.02.19.04.11.1.14.18.08.05-.04.16-.15.31-.33.25-.31.59-.76,1.03-1.36.05-.05.11-.09.16-.11.06-.03.07-.09.03-.16-.08-.22-.24-.41-.47-.59-.18-.11-.26-.11-.26,0l.04.13.12.28c.07.15.06.28-.01.38-.17.26-.37.51-.6.76-.05.04-.12.04-.2,0l-.74-.51c-.07-.08-.1-.13-.08-.17l.36-.51c.07-.08.15-.09.24-.05l.32.12s.07,0,.1-.02c.03-.03.04-.05.02-.07-.25-.31-.53-.55-.83-.73-.06-.04-.13-.07-.19-.1-.04-.02-.07-.02-.09,0-.03.02-.04.05-.04.1,0,.02,0,.04.02.07.02.03.04.07.08.11.08.09.13.15.15.2.03.08,0,.16-.06.23l-.33.41c-.05.07-.11.07-.18.02-.22-.17-.42-.34-.57-.5-.08-.07-.11-.14-.09-.24,0-.03.02-.06.04-.09M153.95,36.68c0,.18-.04.33-.13.46-.09.13-.22.21-.4.24-.1,0-.21,0-.34-.03-.03,0-.14-.03-.34-.07-.28-.05-.48-.05-.6,0-.18.07-.33.25-.47.54-.03.08,0,.13.07.16.16.09.32.17.49.26.11.06.23.11.34.17.05.03.1.02.15-.01l.16-.12c.06-.01.12.01.16.08-.04.2-.1.38-.19.56-.09.18-.2.33-.32.43-.02.02-.06.03-.1.02-.04,0-.08-.03-.08-.07v-.21c0-.06-.03-.1-.09-.13-.19-.14-.39-.27-.59-.39-.46-.28-.95-.53-1.45-.74-.06-.04-.11-.04-.15,0l-.08.08c-.16.1-.24.06-.23-.12.25-.56.52-1.07.82-1.55,0,0,.01-.02.01-.02.13-.18.29-.29.48-.34.06-.02.12-.03.19-.03.11,0,.22.02.32.06.17.08.29.19.38.36.09.18.12.39.08.63,0,.05.02.06.06.02.04-.07.07-.12.12-.15.04-.03.11-.06.19-.08.09-.03.18-.03.28-.02.06,0,.16.02.29.05.24.08.41.11.54.1.12-.01.19-.08.21-.19.01-.06.05-.08.11-.07.06.01.1.06.13.13ZM151.63,36.73c-.06-.14-.16-.23-.28-.27-.12-.04-.25-.04-.39-.01-.14.04-.26.11-.35.22-.23.3-.27.49-.12.57l.87.51c.13-.17.23-.35.29-.53.04-.19.04-.35-.03-.49ZM149.71,42.82c0,.06-.01.12-.03.18-.05.22-.18.4-.36.55l-.96.9c-.14.2-.28.29-.44.28-.05-.03-.06-.1,0-.22.05-.11.04-.2-.03-.28-.45-.5-1-1.07-1.67-1.71-.07-.04-.15-.05-.22-.01-.06.03-.12.04-.16.04-.07,0-.11-.06-.1-.17,0-.01,0-.03,0-.04l1.29-1.26c.06-.08.13-.13.21-.16.05-.03.12-.04.22-.06.07,0,.13-.01.2,0,.08,0,.15.02.22.04.13.05.23.12.31.23.09.11.13.24.14.4,0,.1-.02.23-.08.41l-.09.24.15-.11c.13-.08.25-.13.36-.15.22-.07.42-.05.61.06.16.1.28.24.36.44.05.14.08.28.07.42ZM147.89,42.18c.06-.15.05-.3-.03-.45-.17-.26-.36-.37-.56-.32-.19.02-.4.16-.63.41-.06.09-.06.18.01.24.21.26.43.5.67.73.27-.18.45-.38.54-.6ZM149.1,42.76c-.21-.37-.46-.47-.77-.31-.25.1-.49.3-.7.59l.67.7c.12.12.24.12.34.02l.36-.35c.17-.29.2-.51.09-.65ZM132.18,50.81c-.01-.06-.05-.08-.11-.07-.11.03-.2,0-.27-.11-.07-.1-.12-.28-.16-.53-.03-.13-.06-.23-.08-.29-.04-.1-.09-.18-.15-.25-.05-.07-.11-.11-.16-.13-.05-.03-.11-.04-.19-.04-.05,0-.05-.03,0-.06.11-.04.22-.09.3-.15.09-.06.17-.14.23-.22.11-.16.16-.33.15-.51,0-.18-.08-.34-.2-.48-.13-.15-.31-.24-.53-.27-.58-.05-1.18-.07-1.82-.04-.17.08-.16.17,0,.27l.1.04c.05.03.07.07.06.14,0,.15.02.3.02.45.02.65-.02,1.29-.11,1.93,0,.07-.03.11-.08.15l-.19.08s-.03.06-.02.11c.01.04.03.07.06.08.15.06.33.1.54.1.2,0,.4-.03.6-.08.04-.07.04-.13,0-.18l-.18-.09c-.05-.02-.08-.06-.08-.13,0-.32,0-.64,0-.95,0-.08.03-.13.11-.14.32-.01.56.05.71.17.1.09.19.27.27.55.05.2.09.32.1.34.04.13.09.24.14.33.11.14.24.23.4.25.15.03.31,0,.47-.09.06-.06.08-.12.06-.18ZM131.01,48.89c-.04.05-.09.1-.15.14-.08.05-.17.09-.28.12-.19.02-.4.02-.62-.02l.06-1.03c0-.18.19-.23.57-.16.14.03.26.11.36.22.09.11.15.23.17.36.02.13-.02.26-.11.38ZM132.87,49.28c-.21-.09-.36-.21-.44-.37-.16-.29-.15-.58.01-.85.22-.36.57-.53,1.03-.52.29.02.46.02.51.01.11-.1.21-.1.3,0,.08.09.16.29.26.61,0,.11-.04.17-.1.17-.07,0-.15-.05-.26-.16-.13-.14-.25-.23-.36-.26-.43-.09-.71,0-.83.25-.14.33.05.58.57.75l.63.21c.32.1.51.3.57.6.08.33.03.59-.16.79-.11.17-.29.29-.53.37-.29.1-.66.12-1.08.06-.22-.05-.36-.12-.42-.2-.13-.19-.19-.43-.16-.71.08-.11.17-.11.26-.02l.26.32c.12.14.24.23.38.27.26.08.48.05.66-.08.2-.19.28-.36.22-.5-.04-.09-.1-.18-.19-.26-.09-.08-.19-.14-.3-.17l-.82-.3M134.83,47.58c-.01-.06.03-.12.12-.18.31-.1.64-.16.98-.17.05.02.08.05.08.1.01.05,0,.09-.05.13l-.13.12s-.04.09-.04.13c.09.78.24,1.56.45,2.35.02.04.04.07.08.09l.2.03c.1.06.1.14,0,.25l-.99.21c-.14-.03-.18-.1-.1-.21.13-.09.2-.18.19-.28-.09-.68-.25-1.45-.46-2.32-.02-.05-.03-.08-.04-.09-.02-.03-.05-.04-.08-.05-.14,0-.21-.04-.22-.11M137.36,47.23c-.13.01-.24.05-.33.1-.15.1-.22.26-.21.49-.06.18-.14.23-.26.16-.1-.21-.14-.46-.13-.75,0-.05.02-.09.04-.12.03-.03.06-.04.1-.03.55-.13.92-.22,1.1-.27.41-.11.77-.22,1.07-.33.06-.02.11-.03.14-.02.04,0,.07.04.11.09.16.23.24.46.26.67-.02.07-.07.11-.15.11-.06-.05-.15-.13-.24-.25-.07-.09-.14-.14-.19-.15-.15-.03-.31,0-.47.06-.07.03-.1.1-.07.21.08.31.16.62.25.92.03.11.06.22.1.33.11.37.22.73.34,1.09l.27.06s.06.04.07.07c.01.03,0,.05-.01.07-.11.09-.26.18-.47.24-.2.07-.4.1-.59.11-.11-.04-.14-.1-.1-.17l.16-.17s.03-.09.01-.15l-.63-2.27c-.05-.08-.11-.11-.16-.09M123.39,46.13c.25.06.42.11.5.13.2.06.35.13.46.19.09.06.12.12.11.18-.01.06-.07.09-.17.09-.08,0-.12,0-.12,0-.04,0-.08.04-.1.08-.06.58-.04,1.25.05,1.99,0,.04.02.06.05.06.03,0,.06-.02.09-.06.41-.39.8-.82,1.18-1.3l.02-.03c.04-.07.05-.13.04-.2,0-.03-.05-.09-.11-.16-.06-.07-.09-.13-.07-.18.02-.05.08-.07.17-.06.29.07.56.16.82.29.13.12.1.2-.1.24-.12,0-.22.03-.29.1-.47.5-1.17,1.25-2.1,2.26-.07.07-.12.06-.15-.03-.1-.94-.16-1.96-.17-3.04,0-.13-.06-.24-.15-.32-.08-.05-.12-.11-.11-.17.01-.06.06-.09.15-.08M123.14,46.11s.03.09.01.13c-.02.04-.06.07-.12.07l-.18.02c-.05.01-.09.04-.11.09-.39.69-.74,1.42-1.03,2.19,0,.03,0,.05,0,.07.02.02.03.04.04.05l.12.16c.06.1,0,.15-.15.18-.16-.05-.31-.11-.45-.17-.17-.07-.33-.16-.49-.25-.05-.06-.07-.11-.06-.15,0-.04.04-.06.1-.07.05,0,.12-.02.2-.04.06-.01.1-.04.12-.08.33-.61.66-1.33,1.01-2.17.02-.05.03-.09.03-.09,0-.04-.01-.07-.04-.09-.11-.08-.14-.16-.12-.22.03-.06.1-.08.21-.07.31.1.61.25.9.45M121.18,45.67s.05-.11.02-.18l-.13-.17c.04-.13.09-.18.17-.14.26.09.49.23.69.42.04.15,0,.22-.13.22-.08-.05-.17-.05-.25,0-.52.78-1,1.58-1.46,2.42-.02.03-.04.04-.07.04-.01,0-.04-.02-.09-.05-.08-.05-.19-.44-.32-1.18-.08-.47-.19-1.2-.33-2.2l-1.02,1.76c-.04.17-.02.27.07.3.09.17.02.24-.2.22-.2-.07-.38-.17-.56-.3-.08-.08-.11-.15-.08-.21.03-.06.08-.08.17-.08.07,0,.12,0,.14,0,.04,0,.07-.02.09-.05.45-.68.86-1.37,1.22-2.09.03-.05.02-.1-.05-.15-.13-.19-.09-.29.11-.28.21.07.42.18.6.32.12,1.09.27,2.09.47,3.01.36-.52.67-1.07.93-1.63M126.52,47.47c-.13-.15-.08-.23.15-.25l1.94.35c.17-.03.26-.01.28.06.05.2.06.41.02.62-.06.08-.12.11-.17.07-.06-.03-.1-.11-.13-.22-.03-.1-.11-.19-.23-.26l-.79-.15s-.07,0-.1,0c-.09.02-.15.08-.17.18-.07.21-.13.45-.18.72-.02.08.02.13.09.14l.51.1c.09.03.17.01.23-.05.04-.04.07-.11.11-.22.02-.05.04-.09.05-.12.02-.02.04-.04.06-.05.04-.02.07-.02.1,0,.03.01.04.04.05.08,0,.07,0,.14,0,.21-.02.34-.11.69-.26,1.05-.01.02-.04.03-.07.01-.04-.01-.06-.04-.06-.08l-.04-.33c0-.09-.05-.16-.15-.19l-.61-.09s-.08.04-.11.14l-.11.87c0,.08.04.14.1.17.31.09.62.15.93.19.11.02.21-.03.3-.12,0-.01.02-.02.03-.04l.19-.23.09-.09c.09-.05.13.03.12.23-.02.13-.06.25-.1.36-.05.12-.12.22-.2.31-.04.07-.1.08-.15.04-.04-.04-.1-.06-.17-.09-.72-.11-1.27-.21-1.65-.29-.23-.05-.37-.09-.43-.12-.09-.05-.1-.11-.02-.19.04-.05.1-.07.18-.07.05,0,.08-.04.09-.09.08-.21.16-.54.25-1,.07-.37.15-.83.23-1.36,0-.06-.02-.1-.06-.13l-.11-.09M117.39,42.44c.07.12.04.2-.08.23-.13-.09-.24-.1-.33-.02-.32.29-.61.59-.87.9-.02.02-.03.04-.05.05-.18.22-.34.44-.49.67-.05.08-.07.19-.05.31.04.2.14.38.31.53.16.15.34.24.55.27.19-.03.36-.1.5-.22.01,0,.02-.02.04-.03,0,0,0-.01.02-.02.44-.44.85-.91,1.23-1.4.03-.04.05-.08.04-.14,0-.06-.04-.12-.09-.19,0-.05,0-.08,0-.09.01-.03.05-.05.11-.06.24.1.45.29.65.56.04.09.03.15-.03.17-.05.01-.07.02-.08.02-.01,0-.06-.02-.14-.06-.08-.04-.16-.02-.22.06l-1.17,1.32s-.09.09-.14.13c-.02.01-.04.03-.05.04-.11.08-.23.14-.36.17-.12.03-.21.05-.27.05-.07,0-.17-.02-.29-.07-.16-.06-.3-.12-.41-.2-.12-.08-.24-.19-.34-.32-.18-.23-.29-.45-.33-.67-.01-.31.06-.57.23-.78l1.22-1.42c.05-.06.07-.11.04-.15-.06-.09-.09-.16-.1-.24.03-.07.08-.09.15-.08.33.22.59.44.79.66M143.98,44.48c-.09-.07-.17-.1-.23-.1-.16.01-.3.07-.44.18-.06.04-.06.12,0,.22.16.28.32.55.48.82.06.1.12.2.18.3.2.33.4.65.61.96h.28s.07.01.09.03c.02.02.02.05,0,.07-.08.12-.21.24-.39.36-.18.11-.36.2-.54.26-.12-.01-.16-.06-.14-.14l.12-.2s0-.1-.02-.15l-1.2-2.04c-.07-.06-.13-.08-.18-.05-.12.05-.22.11-.29.18-.12.14-.15.31-.08.53,0,.19-.08.26-.21.22-.15-.17-.26-.4-.32-.69-.01-.05,0-.09.01-.13.02-.03.05-.05.09-.06.5-.27.83-.46.99-.55.37-.21.68-.41.95-.6.05-.04.09-.05.12-.05.04,0,.08.01.13.05.21.18.35.38.42.58,0,.07-.04.12-.12.15-.08-.03-.18-.09-.3-.18M140.75,45.62s.01-.02.02-.02l.37-.16s.02,0,.04,0c.01,0,.02.01.03.02l.2.36s0,.02,0,.04c0,0-.01.02-.02.02l-.37.16s-.02,0-.04,0c-.01,0-.02-.01-.03-.02l-.2-.36s0-.02,0-.04M139.82,46.1l.17.36s0,.02,0,.03c0,.01-.01.02-.03.02l-.38.15s-.03,0-.04,0c-.01,0-.02-.01-.03-.02l-.17-.36s0-.02,0-.03c0,0,.02-.02.03-.03l.38-.15s.02,0,.04,0c.01,0,.02.01.03.02M143.16,47.86s-.06-.08-.14-.08c-.07.02-.12.03-.15.03-.06,0-.14-.03-.23-.08-.34-.28-.79-.69-1.38-1.21-.58-.52-.9-.79-.96-.79-.06,0-.13.02-.2.07-.08.05-.1.11-.07.16.02.06.07.56.13,1.51.03.47.06.94.09,1.41-.07.15-.14.28-.23.41,0,.09.04.14.14.13.16-.05.31-.11.46-.18,0,0,0,0,0,0,.02-.01.05-.02.08-.04.13-.07.24-.15.36-.24.02-.05.02-.09,0-.13-.03-.04-.1-.06-.21-.04h0c-.06,0-.11,0-.15,0-.04-.01-.07-.03-.09-.06-.01,0-.02-.02-.03-.03-.06-.09-.08-.23-.06-.42,0-.07.03-.12.1-.15.31-.17.66-.33,1.04-.48.17.1.31.25.42.43.02.05.02.09-.01.13-.08.07-.12.12-.14.15-.06.1-.02.16.12.18.39-.12.75-.29,1.05-.51.04-.05.06-.1.04-.14ZM140.5,47.8l-.07-1.23s.03-.05.07-.03l.89.84-.89.42ZM107.51,26.32l.54-.2-.06-.58.45.35.48-.38-.1.6.55.2-.54.23.08.6-.47-.38-.48.35.1-.58-.55-.23M154.75,25.89l-.45-.35.06.58-.54.2.55.23-.1.58.48-.35.47.38-.07-.6.54-.23-.55-.2.1-.6-.48.38"/>
</svg>