<?xml version="1.0" encoding="UTF-8"?>
<svg id="Layer_1" xmlns="http://www.w3.org/2000/svg" version="1.1" viewBox="0 0 416.99 141.73">
  <!-- Generator: Adobe Illustrator 30.3.0, SVG Export Plug-In . SVG Version: 2.1.3 Build 182)  -->
  <defs>
    <style>
      .st0 {
        fill: #850c1b;
      }

      .st1 {
        fill: #319ab9;
      }

      .st2 {
        fill: #00a193;
      }

      .st3 {
        fill: #157986;
      }

      .st4 {
        fill: #fff;
      }

      .st5 {
        fill: #5cb595;
      }

      .st6 {
        fill: #7f8267;
      }

      .st7 {
        fill: #291017;
      }

      .st8 {
        fill: #00544c;
      }
    </style>
  </defs>
  <g>
    <path class="st4" d="M407.13,75.48v8.39h-2.17v-7.55l2.17-.83ZM405.05,72.79h8.86v11.08h2.16v-11.05l.67-.28.25-2.33h-10.47l-.78-1.06-1.66,2.25.97,1.39ZM399.86,78.37l1.39-8.16h-2.3l-1.08,5.8-5.44-6.52-1.53.86-2.03,13.52h2.19l1.55-10.36,9.11,10.61,1.03-2.28-2.88-3.47ZM382.95,69.15l3.22,1.58v13.13h-2.17v-11.44l-2.47-1.36,1.42-1.92ZM379.26,70.73v12.41l-6.41,1.31v-2.47l4.25-.94v-8.61l-2.47-1.36,1.42-1.92,3.22,1.58ZM368.02,69.15l3.22,1.58v6.97h-2.16v-5.36l-2.47-1.28,1.42-1.92ZM356.58,69.15l.78,1.06h6.89v10.91l1.86-.08v2.47l-11.91.5v-2.47l7.88-.33v-8.41h-6.19l-.97-1.39,1.67-2.25ZM342.39,72.79l-.97-1.39,1.67-2.25.78,1.06h7.72v13.66h-2.17v-11.08h-7.03ZM335.39,80.64l1.25-7.86h-7.66l.92,8.47,5.5-.61ZM327.73,70.21h11.58l-2.08,12.66-9.13,1.25-1.36-11.33h-.58l-.78-1.39,1.67-2.25.7,1.06ZM319.7,69.15l3.22,1.58v6.97h-2.16v-5.36l-2.47-1.28,1.41-1.92ZM303.66,70.68l1.11,13.44,10.08-1.47,1.55-12.44h-6.19l-1.22,2.58h4.86l-.97,7.66-6.08.81-.97-12.19-2.16,1.61ZM291.13,75.48v8.39h-2.17v-7.55l2.17-.83ZM289.05,72.79h8.86v11.08h2.16v-11.05l.67-.28.25-2.33h-10.47l-.78-1.06-1.66,2.25.97,1.39ZM268.31,75.48v8.39h-2.17v-7.55l2.17-.83ZM266.23,72.79h8.86v11.08h2.16v-11.05l.67-.28.25-2.33h-10.47l-.78-1.06-1.67,2.25.97,1.39ZM263.06,69.54l-2.39.75-1.64,10.3-2.94.42-1.97-11.63-2.14,1.25,1.92,10.72-4,.56v2.47l10.97-1.56,2.19-13.27ZM238.85,69.15l.78,1.06h6.89v10.91l1.86-.08v2.47l-11.91.5v-2.47l7.88-.33v-8.41h-6.19l-.97-1.39,1.67-2.25ZM224.67,72.79l-.97-1.39,1.67-2.25.78,1.06h7.72v13.66h-2.17v-11.08h-7.03ZM218.03,69.15l3.22,1.58v6.97h-2.17v-5.36l-2.47-1.28,1.41-1.92ZM201.54,72.79h1.2l.3,8.44-3.14.42v2.47l5.44-.61-.44-10.72h6.5v11.08h2.17v-11.05l.67-.28.25-2.33h-11.47l-.78-1.06-1.67,2.25.97,1.39ZM181.41,69.15l.78,1.06h6.89v10.91l1.86-.08v2.47l-11.91.5v-2.47l7.88-.33v-8.41h-6.19l-.97-1.39,1.67-2.25ZM173.75,69.15l3.22,1.58v6.97h-2.17v-5.36l-2.47-1.28,1.42-1.92ZM160.37,72.79l-.97-1.39,1.67-2.25.78,1.06h7.72v13.66h-2.17v-11.08h-7.02ZM153.53,69.15l3.22,1.58v13.13h-2.16v-11.44l-2.47-1.36,1.42-1.92ZM148.65,69.15l-3.69,9.72-5.58,2.11-.36-1.28,5.69-8.91-1.44-1.64-4.97,7.86-2.17-7.86-1.91,1.53,3.69,13.44,8.69-3.19,3.7-10.13-1.64-1.64ZM120.99,61.65l2.17-.92v9.41l8.11.06.64,1.69-5.39,12.22-1.94-.92,4.69-10.44h-8.27v-11.11ZM114.61,69.15l3.22,1.58v6.97h-2.17v-5.36l-2.47-1.28,1.42-1.92ZM108.03,81.48h-6.91v-8.69h6.91v8.69ZM111.11,70.21h-11.88l-.78-1.06-1.67,2.25.97,1.39h1.19v11.08h11.25v-11.05l.66-.28.25-2.33Z"/>
    <path class="st4" d="M416.17,108.12l-1.87-12.21h-2.37l-2.41,7.12c-.29.9-.49,1.52-.67,2.42h-.04c-.14-.79-.38-1.61-.67-2.49l-2.35-7.05h-2.35l-1.83,12.21h2.01l.78-6.31c.13-1.16.25-2.11.33-3.16h.04c.14.89.45,1.94.78,2.89l2.19,6.58h2.04l2.29-7.09c.31-.9.49-1.7.63-2.39h.04c.09.8.18,1.68.38,2.98l.96,6.49h2.08ZM399.73,108.12v-1.68h-4.46v-3.8h4.25v-1.61h-4.25v-3.47h4.46v-1.65h-6.44v12.21h6.44ZM391.74,108.12v-1.72h-4.2v-10.49h-1.97v12.21h6.17ZM380.4,103.86h-3.91l1.38-3.78c.24-.65.44-1.32.56-1.94h.03c.15.67.31,1.25.54,1.88l1.39,3.84ZM384.06,108.12l-4.43-12.21h-2.19l-4.38,12.21h1.99l.94-2.69h4.94l.94,2.69h2.19ZM372.29,104.44c0-3.82-5.33-2.91-5.33-5.35,0-1.01.78-1.72,2.29-1.72.72,0,1.5.13,2.21.34l.11-1.75c-.74-.13-1.48-.22-2.21-.22-2.84,0-4.48,1.46-4.48,3.56,0,3.94,5.33,2.86,5.33,5.42,0,1.32-1.09,1.88-2.42,1.88-.89,0-1.84-.2-2.53-.45l-.11,1.86c.7.18,1.57.29,2.46.29,2.91,0,4.69-1.63,4.69-3.87M362.63,103.42v-7.5h-1.93v7.65c0,2.28-.9,3.11-2.89,3.11-2.26,0-2.8-1.23-2.8-2.86v-7.9h-1.97v8.05c0,2.24.81,4.34,4.64,4.34,3.2,0,4.96-1.63,4.96-4.88M348.4,99.37c0,1.21-.96,2.03-2.55,2.03-.44,0-.78-.02-.96-.04v-3.87c.29-.02.65-.03,1.03-.03,1.65,0,2.48.58,2.48,1.92M351.26,108.12l-3.22-4.25c-.31-.4-.69-.87-1.03-1.3,1.99-.22,3.45-1.46,3.45-3.42,0-2.42-1.74-3.31-4.27-3.31-1.37,0-2.39.02-3.28.07v12.21h1.97v-5.28h.09l3.8,5.28h2.48ZM340.35,108.12v-1.68h-4.47v-3.8h4.25v-1.61h-4.25v-3.47h4.47v-1.65h-6.44v12.21h6.44ZM330.83,104.83v-8.91h-1.97v8.82c0,1.48-.5,1.86-1.43,1.86-.43,0-.87-.09-1.18-.2v1.72c.38.07.83.14,1.41.14,2.35,0,3.16-1.41,3.16-3.44M321.62,97.58v-1.66h-6.37v12.21h1.97v-5.35h4.16v-1.61h-4.16v-3.58h4.39ZM311.06,102.07c0,3.04-1.81,4.48-3.62,4.48-2.41,0-3.54-1.86-3.54-4.63,0-2.93,1.7-4.45,3.58-4.45,2.28,0,3.58,1.64,3.58,4.59M313.16,101.87c0-4.09-2.2-6.13-5.5-6.13s-5.86,2.37-5.86,6.42c0,3.74,1.79,6.15,5.5,6.15,3.24,0,5.86-2.39,5.86-6.44M297.05,95.92h-2.08l-1.72,3.63c-.38.78-.74,1.56-1.01,2.28h-.04c-.25-.65-.54-1.34-.87-2.06l-1.81-3.85h-2.15l3.82,7.85v4.36h1.97v-4.36l3.89-7.85ZM286.96,97.58v-1.66h-8.68v1.66h3.34v10.54h1.97v-10.54h3.36ZM276.72,95.92h-1.97v12.21h1.97v-12.21ZM272.49,104.44c0-3.82-5.33-2.91-5.33-5.35,0-1.01.78-1.72,2.29-1.72.72,0,1.5.13,2.21.34l.11-1.75c-.74-.13-1.48-.22-2.2-.22-2.84,0-4.49,1.46-4.49,3.56,0,3.94,5.34,2.86,5.34,5.42,0,1.32-1.09,1.88-2.42,1.88-.88,0-1.85-.2-2.53-.45l-.11,1.86c.7.18,1.57.29,2.46.29,2.91,0,4.68-1.63,4.68-3.87M261.09,99.37c0,1.21-.96,2.03-2.55,2.03-.43,0-.78-.02-.96-.04v-3.87c.29-.02.65-.03,1.03-.03,1.65,0,2.48.58,2.48,1.92M263.94,108.12l-3.22-4.25c-.31-.4-.69-.87-1.03-1.3,1.99-.22,3.45-1.46,3.45-3.42,0-2.42-1.73-3.31-4.27-3.31-1.37,0-2.39.02-3.28.07v12.21h1.97v-5.28h.09l3.79,5.28h2.48ZM253.04,108.12v-1.68h-4.47v-3.8h4.25v-1.61h-4.25v-3.47h4.47v-1.65h-6.44v12.21h6.44ZM245.16,95.92h-2.03l-2.62,7.4c-.36.99-.58,1.75-.79,2.6h-.02c-.23-.9-.52-1.77-.78-2.48l-2.57-7.52h-2.17l4.34,12.21h2.24l4.39-12.21ZM232.74,95.92h-1.97v12.21h1.97v-12.21ZM227.59,108.12v-12.21h-1.92v3.62c0,1.79.05,4.41.13,5.8-.45-.89-.94-1.86-1.48-2.77l-4.03-6.65h-2.59v12.21h1.92v-4.11c0-1.74-.04-4.21-.11-5.41.38.81.81,1.68,1.36,2.57l4.18,6.94h2.55ZM214.61,103.42v-7.5h-1.94v7.65c0,2.28-.9,3.11-2.89,3.11-2.26,0-2.8-1.23-2.8-2.86v-7.9h-1.97v8.05c0,2.24.81,4.34,4.65,4.34,3.2,0,4.95-1.63,4.95-4.88M199.11,95.92h-1.97l-1.9,7.63c-.18.67-.31,1.37-.43,2.14h-.02c-.13-.78-.31-1.59-.49-2.24l-2.13-7.52h-2.15l-2.08,7.5c-.22.74-.36,1.52-.49,2.31h-.02c-.11-.81-.25-1.59-.47-2.4l-1.88-7.41h-2.1l3.17,12.21h2.31l2.06-7.58c.2-.76.34-1.5.43-2.26h.02c.13.78.25,1.55.47,2.29l2.08,7.54h2.42l3.16-12.21ZM181.43,108.12v-1.68h-4.46v-3.8h4.25v-1.61h-4.25v-3.47h4.46v-1.65h-6.44v12.21h6.44ZM170.2,99.37c0,1.21-.96,2.03-2.55,2.03-.44,0-.78-.02-.96-.04v-3.87c.29-.02.65-.03,1.03-.03,1.64,0,2.48.58,2.48,1.92M173.06,108.12l-3.22-4.25c-.31-.4-.69-.87-1.03-1.3,1.99-.22,3.45-1.46,3.45-3.42,0-2.42-1.73-3.31-4.27-3.31-1.38,0-2.39.02-3.27.07v12.21h1.97v-5.28h.09l3.8,5.28h2.48ZM160.24,104.47c0,1.23-.85,2.1-2.64,2.1-.63,0-1.12-.04-1.43-.09v-3.89c.27-.02.9-.02,1.1-.02,1.72,0,2.97.51,2.97,1.9M160.01,99.14c0,1.23-.96,1.97-2.79,1.97-.41,0-.72,0-1.05-.02v-3.62c.47-.02.99-.04,1.54-.04,1.73,0,2.29.7,2.29,1.7M162.32,104.44c0-1.27-.74-2.48-2.33-2.79v-.04c1.25-.43,2.08-1.54,2.08-2.79,0-1.88-1.37-2.97-4.03-2.97-1.48,0-2.87.04-3.83.06v12.21c1.36.02,2.59.05,3.33.05,3.75,0,4.79-2.15,4.79-3.74M151.63,108.12v-1.68h-4.46v-3.8h4.25v-1.61h-4.25v-3.47h4.46v-1.65h-6.44v12.21h6.44ZM142.02,108.12v-12.21h-1.95v5.05h-5.77v-5.05h-1.97v12.21h1.97v-5.48h5.77v5.48h1.95ZM125.82,108.12v-1.68h-4.47v-3.8h4.25v-1.61h-4.25v-3.47h4.47v-1.65h-6.44v12.21h6.44ZM116.2,108.12v-12.21h-1.96v5.05h-5.77v-5.05h-1.97v12.21h1.97v-5.48h5.77v5.48h1.96ZM104.97,97.58v-1.66h-8.68v1.66h3.34v10.54h1.97v-10.54h3.37Z"/>
  </g>
  <g>
    <polygon class="st3" points="59.03 102.51 67.85 115.74 73.75 108.15 66.34 93.1 59.03 102.51"/>
    <polygon class="st6" points="17.09 105.27 0 126.29 0 141.73 15.78 126.21 17.09 105.27"/>
    <polygon class="st2" points="31.94 86.85 32.88 109.54 51.59 91.32 41.06 75.52 31.94 86.85"/>
    <polygon class="st0" points="51.37 62.74 41.06 75.52 51.59 91.32 60.97 82.18 51.37 62.74"/>
    <polygon class="st1" points="77.18 79.17 72.92 70.53 60.97 82.18 66.34 93.1 77.18 79.17"/>
    <polygon class="st7" points="59.03 102.51 66.34 93.1 60.97 82.18 51.59 91.32 59.03 102.51"/>
    <polygon class="st5" points="29.19 30.16 21.69 30.16 17.09 105.27 31.94 86.85 29.19 30.16"/>
    <polygon class="st8" points="17.09 105.27 15.78 126.21 32.88 109.54 31.94 86.85 17.09 105.27"/>
    <path class="st0" d="M27.76,6.42l-3.12-6.42s-6.66,10.18-6.66,14.14c0,6.28,2.95,10.42,2.95,10.42h9.14l1.62-9.85h-5.87l1.93-8.28Z"/>
  </g>
</svg>