<?xml version="1.0" encoding="UTF-8"?>
<svg id="Layer_1" xmlns="http://www.w3.org/2000/svg" version="1.1" viewBox="0 0 1024 1024">
  <!-- Generator: Adobe Illustrator 30.3.0, SVG Export Plug-In . SVG Version: 2.1.3 Build 182)  -->
  <defs>
    <style>
      .st0 {
        isolation: isolate;
        opacity: .8;
      }

      .st1 {
        fill: #fff;
      }

      .st2 {
        display: none;
      }
    </style>
  </defs>
  <g id="In_3_Parts" class="st2">
    <g id="Crossbag">
      <path class="st0" d="M642.66,360.54l-22.81-3.11-29.54-3.8c-4.67-.6-9.61-.17-14.42-.4l-25.94-1.24c-7.92-.38-16.57-2.66-24.18-1.98-7.62.68-13.82.77-21.37.32-26.51-1.6-52.5.77-79.21,2.84l-40.07,3.11c-15.01,1.16-29.07,2.78-43.83,4.64,0,0-12.08,1.29-24.29,3.07-17.69,2.57-72.93,12.8-93.8,18.03-6.48,1.78-38.25,11.55-38.25,11.55l-32.5,11.63c-25.57,9.15-33.67,17.72-52.18,40.46-5.79,7.11-.21,20.93,4.24,25.36-.73,4.07-2.03,11.45.09,13.75l6.75,7.31-6.58,3.41c3.33,3.65,6.22,6.74,8.91,10.59,1.75,2.5,6.25,4.93,9.31,7.45,8.93,7.33,16.95,14.79,27.61,18.63,5.61,2.02,12.01,5.76,17.49,7.32l53.67,15.2c5.06,1.43,10.42,1.75,15.6,3.57,3.46,1.22,7.39.19,11.39.64l25.71,2.88,13.55.08c2.27.01,4.54-.86,6.37-3.65-16.36-13.37-37.32-17.73-54.62-29.97,13.2,3.03,20.78,7.68,33.08,13.29-7.89-7.36-36.35-28.04-36.35-28.04l-12.03-7.17-17.05-11.51c-4.79-3.23-9.81-6.59-13.92-10.38l2.77-6.16c23.05-9.46,44.54-14.82,68.43-21.34,29.02-8.75,58.33-16.56,88.04-22.85,9.01-2.67,17.07-2.64,26.06-4.11l24.39-4.02,64.98-5.55c11.23-.96,21.91-3.05,33.19-3.16l21.7-.21c7.38-.07,14-.53,21.06-2.71,5.56.4,12.56,2.47,17.83,2.19,17.9-.97,35-.13,53.07,1.81l44.05,4.75c11.58,1.25,22.18,2.83,34.47,4.79,30.04,4.52,81.07,13.99,86.21,14.83s20.74,1.95,38.02,5.3l-33.33-12.09c4.94-.42,9.29.98,14.31,1.98l13.26,2.65,45.35,13.93,30.54,11.66c-6.32-6.32-20.92-11.41-28.61-14.03l-60.29-18.87c9.44.44,22.73,4.86,25.31,5.31l55.58,18.35c11.91,3.97,22.66,9.19,35.14,11.72l-28.93-13.36c29.1,6.6,54.02,18.27,81.23,28.02-4.94-9.91-9.28-3.49-17.08-16.66l-2.05,1.16c-.43.25-1.68-3.61-2.36-3.91l-86.47-39.01c-9.32-4.2-15.85-6.92-23.97-11.7,26.7,7.95,51.02,15.6,75.92,25.85l15.6,6.42c6.81,2.8,11.48,4.88,23.56,8.85-16.58-9.72-34.61-16.37-44.65-20.71-10.03-4.33-40.97-15.35-40.97-15.35-10.96-3.7-21.51-6.82-32.3-12.72l37.5,11.6,29.95,10.13c17.49,5.92,18.83,6.1,36.98,12.72-13.27-7.69-20.59-10.65-29.66-14.77l-42.3-16.58-24.75-8.3-29.15-8.88c-26.57-5.83-54.05-11.35-82.05-16.7l-86.45-14.16h.04Z"/>
    </g>
    <g id="V_Right">
      <path class="st0" d="M511.08,759.31l18.36-48.28,8.09-19.01,13.61-31.99,5.86-13.13,10.12-20.99,28.65-55.51,9.44-17.29,38.25-65.38,5.81-9.06,14.12-22.88,19.96-30.9,29.38-37.48,16.76-20.26,7.93-10.09c3.91-4.98,7.79-9.72,11.45-14.9,4.33-6.13,9.45-11.39,14.11-17.18l22.48-27.98,10.99-12.5,17.9-22.14,39.93-45.83,36.92-38.69,19.58-23.16c12.39-14.66,25-28.02,36.77-43.32l28.93-37.61c-.94,7.67-5.35,13.39-7.74,19.95-6.39,17.55-10.31,22.97-13.99,33.22l-6.16,17.19c-1.26,3.52-3.57,7.99-5.27,11.78-4.32,9.65-7.43,19.12-11.23,29.17l-8.06,21.3c-1.65,4.37-4.2,9.2-6.3,13.4l-8.71,17.46-10.86,23.53c-8.51,16.33-11.7,21.75-23.44,35.37l-10.28,11.92-14.08,19.85c-12.15,17.13-16.88,19.73-31.63,42.06-3.08,4.67-7.98,8.24-11.6,12.38-4.21,4.82-7.99,11.09-11.73,16.22l-25.29,35.78c-2.99,4.12-10.14,13.55-12.79,17.97l-22.63,37.77-16.73,28.94-7.36,12.11c-8.45,13.91-17.58,27.06-24.49,41.91l-20.27,43.57c-5.66,12.17-12.12,22.59-17.12,34.85l-8.1,19.89-25.06,60.29c-4.62,11.12-7.82,22.17-10.79,34-3.65,14.55-7.63,14.45-14.35,37.01l-4.38,14.69-4.21,13.48-4.98,15.89-8.48,31.12-9.5,39.79-2.59,9.85c-1.82,6.92-3.72,12.63-7.55,18.33l-2.85,4.24c-.61.91-3.64-1.8-4.71-2.32-1.34-.66-5.03.79-5.86-.41l-3.97-5.78-2.05,1.45c-2.16,1.53-7.33-8.93-19.83-2.54-17.16-8.18-21.04-.78-34.69-23.39-2.46-4.08-4.58-7.78-5.96-12.2-4.93-15.83,32.73-119.66,42.27-145.55v.02Z"/>
    </g>
    <g id="V_Left">
      <path class="st0" d="M556.26,927.49c-1.82,6.92-3.72,12.63-7.55,18.33l-2.85,4.24c-.61.91-3.64-1.8-4.71-2.32-1.34-.66-5.03.79-5.86-.41l-3.97-5.78-2.05,1.45c-2.16,1.53-7.33-8.93-19.83-2.54-17.16-8.18-21.04-.78-34.69-23.39-2.46-4.08-4.58-7.78-5.96-12.2l-9.16-29.4-41.81-117.57c-4.58-12.89-22.05-56.06-27.66-66.97-12.32-23.94-10.84-27.79-23.21-49.58-4.62-8.13-8.56-15.9-12.69-24.19l-7.9-15.86c-1.49-3-3.19-6.91-4.74-9.62l-14.1-24.62c-3.62-6.32-8.27-12.36-12.21-18.59l-18.9-29.9c-1.66-2.63-3.55-5.37-5.61-8.26l-10.93-15.3c-7.83-10.96-14.9-20.3-23.88-31.47-13.04-17.04-28.35-38.25-44.5-61.02l-9.55-12.53-8.08-11.45-21.9-28.66-18-23.17c-4.05-5.21-8.67-10.61-12.25-16.32l-20.83-33.18-7.97-12.99c-2.14-3.49-4.69-6.98-7.06-9.88-.23-1.58-.79-6.19-2.25-7.51-3.03-2.75-2.93-9.81-4.64-13.21-10.97-21.78-22.96-42.18-30.56-65.21-1.6-4.84-4.63-10.53-5.61-15.41-1.24-6.16-3.25-10.49-3.87-17.95,2.93,6.17,5.39,11.86,9.88,17.57-2.12-8.32-6.43-14.67-10.15-22.28-4.44-9.1-7.08-18.85-10.27-28.6,1.89,2.7,3.53,4.6,4.81,5.32l-5.65-21.62c3.16,6.17,5.77,11.49,7.7,16.72l8.8,23.84-1.6-17.46c-.68-7.46-4.39-14.06-6.5-22.4,5.23,6.72,8.16,12.97,12.94,20.97l-3.91-15.29,8.19,12.69c1.08,1.67,4.63,3.32,6.08,4.57,7.32,6.34,12.1,16,19.17,22.89,4.78,4.65,12.47,19.91,18.06,28.36,10.72,16.2,24.9,28.94,37.14,43.78l22.18,26.9,12.89,13.76,23.15,27.26,28.38,33.64,22.88,27.15,13.65,16.05c4.33,5.1,8.6,10,12.64,15.37l15.1,20.11c12.98,18.59,25.87,37.52,38.56,57.2l16.01,24.88,10.03,16.52,34.81,55.19,7.7,13.22,28.4,50.78,8.29,15.57,7.47,15.39c2.34,4.83,5.93,10.52,7.68,15.21,3.75,10.08,7.26,19.34,11.44,28.82l12.65,28.67,6.21,12.46c6.65,13.34,10.12,28.78,17.35,41.1,16.97,41.53,51.89,140.93,45.18,168.18v-.05Z"/>
    </g>
  </g>
  <g id="In_2_Parts" class="st2">
    <g id="Crossbag1">
      <path d="M642.66,360.54l-22.81-3.11-29.54-3.8c-4.67-.6-9.61-.17-14.42-.4l-25.94-1.24c-7.92-.38-16.57-2.66-24.18-1.98-7.62.68-13.82.77-21.37.32-26.51-1.6-52.5.77-79.21,2.84l-40.07,3.11c-15.01,1.16-29.07,2.78-43.83,4.64,0,0-12.08,1.29-24.29,3.07-17.69,2.57-72.93,12.8-93.8,18.03-6.48,1.78-38.25,11.55-38.25,11.55l-32.5,11.63c-25.57,9.15-33.67,17.72-52.18,40.46-5.79,7.11-.21,20.93,4.24,25.36-.73,4.07-2.03,11.45.09,13.75l6.75,7.31-6.58,3.41c3.33,3.65,6.22,6.74,8.91,10.59,1.75,2.5,6.25,4.93,9.31,7.45,8.93,7.33,16.95,14.79,27.61,18.63,5.61,2.02,12.01,5.76,17.49,7.32l53.67,15.2c5.06,1.43,10.42,1.75,15.6,3.57,3.46,1.22,7.39.19,11.39.64l25.71,2.88,13.55.08c2.27.01,4.54-.86,6.37-3.65-16.36-13.37-37.32-17.73-54.62-29.97,13.2,3.03,20.78,7.68,33.08,13.29-7.89-7.36-36.35-28.04-36.35-28.04l-12.03-7.17-17.05-11.51c-4.79-3.23-9.81-6.59-13.92-10.38l2.77-6.16c23.05-9.46,44.54-14.82,68.43-21.34,29.02-8.75,58.33-16.56,88.04-22.85,9.01-2.67,17.07-2.64,26.06-4.11l24.39-4.02,64.98-5.55c11.23-.96,21.91-3.05,33.19-3.16l21.7-.21c7.38-.07,14-.53,21.06-2.71,5.56.4,12.56,2.47,17.83,2.19,17.9-.97,35-.13,53.07,1.81l44.05,4.75c11.58,1.25,22.18,2.83,34.47,4.79,30.04,4.52,81.07,13.99,86.21,14.83s20.74,1.95,38.02,5.3l-33.33-12.09c4.94-.42,9.29.98,14.31,1.98l13.26,2.65,45.35,13.93,30.54,11.66c-6.32-6.32-20.92-11.41-28.61-14.03l-60.29-18.87c9.44.44,22.73,4.86,25.31,5.31l55.58,18.35c11.91,3.97,22.66,9.19,35.14,11.72l-28.93-13.36c29.1,6.6,54.02,18.27,81.23,28.02-4.94-9.91-9.28-3.49-17.08-16.66l-2.05,1.16c-.43.25-1.68-3.61-2.36-3.91l-86.47-39.01c-9.32-4.2-15.85-6.92-23.97-11.7,26.7,7.95,51.02,15.6,75.92,25.85l15.6,6.42c6.81,2.8,11.48,4.88,23.56,8.85-16.58-9.72-34.61-16.37-44.65-20.71-10.03-4.33-40.97-15.35-40.97-15.35-10.96-3.7-21.51-6.82-32.3-12.72l37.5,11.6,29.95,10.13c17.49,5.92,18.83,6.1,36.98,12.72-13.27-7.69-20.59-10.65-29.66-14.77l-42.3-16.58-24.75-8.3-29.15-8.88c-26.57-5.83-54.05-11.35-82.05-16.7l-86.45-14.16h.04Z"/>
    </g>
    <g id="V">
      <path d="M683.34,424.89l-19.96,30.9-14.12,22.88-5.81,9.06-38.25,65.38-9.44,17.29-28.65,55.51-10.12,20.99-5.86,13.13-13.61,31.99-8.09,19.01-18.36,48.28c-7.23-12.31-10.69-27.75-17.35-41.1l-6.21-12.46-12.65-28.67c-4.18-9.48-7.69-18.74-11.44-28.82-1.74-4.68-5.33-10.37-7.68-15.21l-7.47-15.39-8.29-15.57-28.4-50.78-7.7-13.22-34.81-55.19-10.03-16.52-16.01-24.88c-12.68-19.68-25.58-38.6-38.56-57.2l-15.1-20.11c-4.04-5.38-8.31-10.28-12.64-15.37l-13.65-16.05-22.88-27.15-28.38-33.64-23.15-27.26-12.89-13.76-22.18-26.9c-12.24-14.84-26.42-27.58-37.14-43.78-5.59-8.45-13.28-23.71-18.06-28.36-7.08-6.89-11.85-16.55-19.17-22.89-1.45-1.26-5-2.91-6.08-4.57l-8.19-12.69,3.91,15.29c-4.79-8-7.71-14.25-12.94-20.97,2.12,8.34,5.82,14.94,6.5,22.4l1.6,17.46-8.8-23.84c-1.93-5.23-4.54-10.55-7.7-16.72l5.65,21.62c-1.28-.72-2.92-2.62-4.81-5.32,3.19,9.76,5.83,19.51,10.27,28.6,3.72,7.61,8.02,13.95,10.15,22.28-4.48-5.71-6.95-11.39-9.88-17.57.62,7.46,2.63,11.8,3.87,17.95.98,4.88,4.01,10.57,5.61,15.41,7.6,23.02,19.59,43.42,30.56,65.21,1.71,3.4,1.61,10.46,4.64,13.21,1.46,1.33,2.02,5.94,2.25,7.51,2.37,2.89,4.92,6.39,7.06,9.88l7.97,12.99,20.83,33.18c3.59,5.71,8.21,11.11,12.25,16.32l18,23.17,21.9,28.66,8.08,11.45,9.55,12.53c16.15,22.76,31.46,43.98,44.5,61.02,8.98,11.17,16.05,20.51,23.88,31.47l10.93,15.3c2.07,2.89,3.95,5.64,5.61,8.26l18.9,29.9c3.94,6.24,8.59,12.28,12.21,18.59l14.1,24.62c1.55,2.71,3.25,6.62,4.74,9.62l7.9,15.86c4.13,8.29,8.07,16.06,12.69,24.19,12.38,21.79,10.9,25.64,23.21,49.58,5.61,10.91,23.07,54.08,27.66,66.97l41.81,117.57,9.16,29.4c1.38,4.42,3.49,8.12,5.96,12.2,13.65,22.61,17.52,15.21,34.69,23.39,12.5-6.4,17.67,4.07,19.83,2.54l2.05-1.45,3.97,5.78c.83,1.21,4.52-.25,5.86.41,1.07.53,4.09,3.24,4.71,2.32l2.85-4.24c3.83-5.7,5.73-11.41,7.55-18.33l2.59-9.85,9.5-39.79,8.48-31.12,4.98-15.89,4.21-13.48,4.38-14.69c6.73-22.56,10.7-22.46,14.35-37.01,2.97-11.83,6.17-22.88,10.79-34l25.06-60.29,8.1-19.89c4.99-12.26,11.46-22.68,17.12-34.85l20.27-43.57c6.91-14.85,16.03-27.99,24.49-41.91l7.36-12.11,16.73-28.94,22.63-37.77c2.65-4.42,9.8-13.85,12.79-17.97l25.29-35.78c3.74-5.13,7.52-11.39,11.73-16.22,3.62-4.15,8.51-7.72,11.6-12.38,14.75-22.33,19.48-24.93,31.63-42.06l14.08-19.85,10.28-11.92c11.75-13.63,14.94-19.04,23.44-35.37l10.86-23.53,8.71-17.46c2.1-4.21,4.65-9.04,6.3-13.4l8.06-21.3c3.8-10.05,6.91-19.52,11.23-29.17,1.69-3.78,4.01-8.25,5.27-11.78l6.16-17.19c3.67-10.26,7.6-15.68,13.99-33.22,2.39-6.56,6.8-12.29,7.74-19.95l-28.93,37.61c-11.77,15.3-24.38,28.66-36.77,43.32l-19.58,23.16-36.92,38.69-39.93,45.83-17.9,22.14-10.99,12.5-22.48,27.98c-4.66,5.8-9.78,11.05-14.11,17.18-3.66,5.18-7.54,9.93-11.45,14.9l-7.93,10.09-16.76,20.26-29.38,37.48.02.02Z"/>
    </g>
  </g>
  <g id="Logo">
    <path class="st1" d="M818.7,369.97c14.75-22.33,19.48-24.93,31.63-42.06l14.08-19.85,10.28-11.92c11.75-13.63,14.94-19.04,23.44-35.37l10.86-23.53,8.71-17.46c2.1-4.21,4.65-9.04,6.3-13.4l8.06-21.3c3.8-10.05,6.91-19.52,11.23-29.17,1.69-3.78,4.01-8.25,5.27-11.78l6.16-17.19c3.67-10.26,7.6-15.68,13.99-33.22,2.39-6.56,6.8-12.29,7.74-19.95l-28.93,37.61c-11.77,15.3-24.38,28.66-36.77,43.32l-19.58,23.16-36.92,38.69-39.93,45.83-17.9,22.14-10.99,12.5-22.48,27.98c-4.66,5.8-9.78,11.05-14.11,17.18-3.66,5.18-7.54,9.93-11.45,14.9l-7.93,10.09-5.54,6.69-81.28-13.31-22.81-3.11-29.54-3.8c-4.67-.6-9.61-.17-14.42-.4l-25.94-1.24c-7.92-.38-16.57-2.66-24.18-1.98-7.62.68-13.82.77-21.37.32-26.51-1.6-52.5.77-79.21,2.84l-40.07,3.11c-15.01,1.16-29.07,2.78-43.83,4.64,0,0-12.08,1.29-24.29,3.07-5.4.78-14.3,2.28-24.65,4.14l-2.94-3.91c-4.04-5.38-8.31-10.28-12.64-15.37l-13.65-16.05-22.88-27.15-28.38-33.64-23.15-27.26-12.89-13.76-22.18-26.9c-12.24-14.84-26.42-27.58-37.14-43.78-5.59-8.45-13.28-23.71-18.06-28.36-7.08-6.89-11.85-16.55-19.17-22.89-1.45-1.26-5-2.91-6.08-4.57l-8.19-12.69,3.91,15.29c-4.79-8-7.71-14.25-12.94-20.97,2.12,8.34,5.82,14.94,6.5,22.4l1.6,17.46-8.8-23.84c-1.93-5.23-4.54-10.55-7.7-16.72l5.65,21.62c-1.28-.72-2.92-2.62-4.81-5.32,3.19,9.76,5.83,19.51,10.27,28.6,3.72,7.61,8.02,13.95,10.15,22.28-4.48-5.71-6.95-11.39-9.88-17.57.62,7.46,2.63,11.8,3.87,17.95.98,4.88,4.01,10.57,5.61,15.41,7.6,23.02,19.59,43.42,30.56,65.21,1.71,3.4,1.61,10.46,4.64,13.21,1.46,1.33,2.02,5.94,2.25,7.51,2.37,2.89,4.92,6.39,7.06,9.88l7.97,12.99,20.83,33.18c3.59,5.71,8.21,11.11,12.25,16.32l18,23.17,21.9,28.66,7.15,10.13c-8.5,2.59-16.08,4.92-16.08,4.92l-32.5,11.63c-25.57,9.15-33.67,17.72-52.18,40.46-5.79,7.11-.21,20.93,4.24,25.36-.73,4.07-2.03,11.45.09,13.75l6.75,7.31-6.58,3.41c3.33,3.65,6.22,6.74,8.91,10.59,1.75,2.5,6.25,4.93,9.31,7.45,8.93,7.33,16.95,14.79,27.61,18.63,5.61,2.02,12.01,5.76,17.49,7.32l53.67,15.2c5.06,1.43,10.42,1.75,15.6,3.57,3.46,1.22,7.39.19,11.39.64l25.71,2.88,13.55.08c2.27.01,4.54-.86,6.37-3.65-16.36-13.37-37.32-17.73-54.62-29.97,13.2,3.03,20.78,7.68,33.08,13.29-7.89-7.36-36.35-28.04-36.35-28.04l-12.03-7.17-17.05-11.51c-4.79-3.23-9.81-6.59-13.92-10.38l2.77-6.16c19.33-7.94,37.57-12.99,57.05-18.26.9,1.19,1.79,2.36,2.67,3.51,8.98,11.17,16.05,20.51,23.88,31.47l10.93,15.3c2.07,2.89,3.95,5.64,5.61,8.26l18.9,29.9c3.94,6.24,8.59,12.28,12.21,18.59l14.1,24.62c1.55,2.71,3.25,6.62,4.74,9.62l7.9,15.86c4.13,8.29,8.07,16.06,12.69,24.19,12.38,21.79,10.9,25.64,23.21,49.58,5.61,10.91,23.07,54.08,27.66,66.97l41.81,117.57,9.16,29.4c1.38,4.42,3.49,8.12,5.96,12.2,13.65,22.61,17.52,15.21,34.69,23.39,12.5-6.4,17.67,4.07,19.83,2.54l2.05-1.45,3.97,5.78c.83,1.21,4.52-.25,5.86.41,1.07.53,4.09,3.24,4.71,2.32l2.85-4.24c3.83-5.7,5.73-11.41,7.55-18.33l2.59-9.85,9.5-39.79,8.48-31.12,4.98-15.89,4.21-13.48,4.38-14.69c6.73-22.56,10.7-22.46,14.35-37.01,2.97-11.83,6.17-22.88,10.79-34l25.06-60.29,8.1-19.89c4.99-12.26,11.46-22.68,17.12-34.85l20.27-43.57c6.91-14.85,16.03-27.99,24.49-41.91l7.36-12.11,16.73-28.94,22.63-37.77c1.73-2.88,5.35-7.88,8.51-12.15,7.35,1.32,12.52,2.26,13.98,2.5,5.14.84,20.74,1.95,38.02,5.3l-33.33-12.09c4.94-.42,9.29.98,14.31,1.98l13.26,2.65,45.35,13.93,30.54,11.66c-6.32-6.32-20.92-11.41-28.61-14.03l-60.29-18.87c9.44.44,22.73,4.86,25.31,5.31l55.58,18.35c11.91,3.97,22.66,9.19,35.14,11.72l-28.93-13.36c29.1,6.6,54.02,18.27,81.23,28.02-4.94-9.91-9.28-3.49-17.08-16.66l-2.05,1.16c-.43.25-1.68-3.61-2.36-3.91l-86.47-39.01c-9.32-4.2-15.85-6.92-23.97-11.7,26.7,7.95,51.02,15.6,75.92,25.85l15.6,6.42c6.81,2.8,11.48,4.88,23.56,8.85-16.58-9.72-34.61-16.37-44.65-20.71-10.03-4.33-40.97-15.35-40.97-15.35-10.96-3.7-21.51-6.82-32.3-12.72l37.5,11.6,29.95,10.13c17.49,5.92,18.83,6.1,36.98,12.72-13.27-7.69-20.59-10.65-29.66-14.77l-42.3-16.58-24.75-8.3-29.15-8.88c-3.12-.68-6.25-1.36-9.4-2.04,1.72-2.46,3.49-4.87,5.34-7,3.62-4.15,8.51-7.72,11.6-12.38v.02ZM663.38,455.79l-14.12,22.88-5.81,9.06-38.25,65.38-9.44,17.29-28.65,55.51-10.12,20.99-5.86,13.13-13.61,31.99-8.09,19.01-18.36,48.28c-7.23-12.31-10.69-27.75-17.35-41.1l-6.21-12.46-12.65-28.67c-4.18-9.48-7.69-18.74-11.44-28.82-1.74-4.68-5.33-10.37-7.68-15.21l-7.47-15.39-8.29-15.57-28.4-50.78-7.7-13.22-34.81-55.19-10.03-16.52-16.01-24.88c-1-1.56-2.01-3.1-3.02-4.65,4.23-.96,8.47-1.9,12.72-2.8,9.01-2.67,17.07-2.64,26.06-4.11l24.39-4.02,64.98-5.55c11.23-.96,21.91-3.05,33.19-3.16l21.7-.21c7.38-.07,14-.53,21.06-2.71,5.56.4,12.56,2.47,17.83,2.19,17.9-.97,35-.13,53.07,1.81l44.05,4.75c7.99.86,15.52,1.88,23.45,3.08l-19.16,29.67h.03Z"/>
  </g>
</svg>