<?xml version="1.0" encoding="UTF-8"?>
<svg id="Layer_1" xmlns="http://www.w3.org/2000/svg" version="1.1" viewBox="0 0 303.08 55.77">
  <!-- Generator: Adobe Illustrator 30.3.0, SVG Export Plug-In . SVG Version: 2.1.3 Build 182)  -->
  <defs>
    <style>
      .st0 {
        fill: #fff;
      }
    </style>
  </defs>
  <g>
    <path class="st0" d="M25.82,17.02c-.87,1.02-1.54,1.18-3.49,2.29,0,0-3.44,1.96-6.97,5.5-.17.18-.64.65-.98,1.41-.22.5-.85,1.89-.12,3.06.04.07.61.95,1.65,1.1.34.05,1.16.08,2.69-1.22.94-.8,1.33-1.4,2.69-3.3,1.9-2.65,2.44-3.29,3.06-3.91.83-.83,1.58-1.42,2.08-1.77-.06-.01-.64-.17-.86-.73-.01-.04-.21-.57.06-.98.26-.39.79-.45,1.1-.49.7-.09,1.68-.29,3-.73.52-.45,1.29-1.18,2.08-2.2.69-.88,1.98-2.55,1.53-3.18-.25-.34-.95-.3-1.35-.18-.45.13-.57.36-1.1.73-.72.51-.98.41-1.65.79-.34.2-.68.45-1.65,1.59-1.05,1.23-1.33,1.71-1.77,2.23h0Z"/>
    <path class="st0" d="M12.06,28.11c-.28.23-.99.86-1.96,2.08-.88,1.12-1.25,1.82-2.51,4.04-1.7,2.98-2.03,3.46-2.87,5.14-.91,1.81-1.17,2.54-1.35,3.36-.07.32-.34,1.67-.12,3.42.17,1.34.26,2.08.86,2.51,1.04.74,2.74-.14,3.06-.31,1.09-.56,1.71-1.4,2.38-2.45,1-1.55,1.86-3.17,3.18-6.11.44-.98,1.22-2.74,2.26-4.59.58-1.02.91-1.48,1.28-1.9,1.06-1.19,1.59-1.65,1.59-1.65.21-.18.5-.43.73-.86.21-.39.27-.75.31-.98.26-1.85.39-2.78-.12-3.36-.81-.92-2.64-.45-3.42-.24-1.51.39-2.51,1.23-3.3,1.9h0Z"/>
    <path class="st0" d="M37.98,12.77c.04.62.48.81.86,1.47.22.39.5,1.08.18,3.3-.24,1.67-.48,3.38-1.53,5.44-1.08,2.12-2.5,3.59-3.12,4.22-.42.42-1.27,1.26-2.38,2.51,0,0-.36.41-1.53,2.26-.28.45-.42.69-.37.98.12.69,1.21,1.13,2.08,1.16.73.02,1.28-.24,1.53-.37,2.34-1.17,3.79-2.63,3.79-2.63,2.55-2.57,3.83-3.85,5.26-5.99,1.11-1.67,1.99-2.97,2.63-5.01.42-1.33.53-2.44.73-4.65.19-1.97.1-2.74-.37-3.42-.45-.66-1.09-.97-1.59-1.22-1.27-.63-2.44-.58-2.93-.55-.7.04-1.31.08-1.96.49-.57.37-1.35,1.15-1.28,2.02Z"/>
    <path class="st0" d="M29.85,32.33c-2.52.65-3.85,1.34-3.85,1.35-1.46.77-1.79,1.12-4.28,2.81-2.18,1.48-3.3,2.23-4.89,3.06-1.4.73-2.15,1.11-3.3,1.53-1.33.48-2.04.57-3.18,1.22-.21.12-2.22,1.27-2.02,1.9.22.69,2.8-.02,3.48,1.16.38.65-.11,1.39.24,1.65.52.38,2.02-.86,2.37-1.15,3.02-2.43,4.28-1.36,8.94-3.99,1.93-1.09,4.74-2.98,6.91-6.11.33-.48,2-2.89,1.41-3.55-.17-.18-.5-.22-1.83.12Z"/>
    <path class="st0" d="M38.47,41.87c-.26-.26-.52-.52-.92-.79-.59-.4-1.21-.66-3-1.04-2-.42-2.32-.33-3.48-.73-.82-.29-1.23-.43-1.65-.73-1.5-1.09-1.3-2.56-2.45-3.06-.53-.23-1.03-.09-2.02.18,0,0-3.51.97-5.44,4.34-.22.38-.47.9-.31,1.41.16.51.65.76,1.04.98,1.62.91,1.07,1.03,2.81,2.02.99.56,2.03,1.15,3.48,1.47,1.69.36,1.95-.07,3.12.43,1.4.6,2.18,1.71,2.38,2.02.59.9.84,1.89.98,2.45.21.85.15,1.09.43,1.71.38.84,1.09,1.72,1.47,1.59.22-.07.18-.42.37-.92.33-.85,1.03-1.32,1.53-1.65,1.64-1.09,3.59-.68,3.91-.61.03-.43.05-1.04.06-1.77.02-2.24.03-3.35-.37-4.4-.55-1.46-1.54-2.46-1.96-2.87Z"/>
    <path class="st0" d="M1.97,46.45c-.14.08-.71.42-1.16,1.1-.33.49-.44.94-.55,1.41-.07.29-.12.59-.18,2.14-.03.68.22,2.61.34,2.72.38.34,1.04.31,1.46.05.28-.17.33-.38.59-.75.39-.59.81-.93,1.28-1.28.9-.67,1.25-.52,1.96-1.16.22-.2.66-.61.92-1.28.03-.07.65-1.74-.24-2.69-.44-.46-1.01-.52-1.9-.61-.66-.07-1.58-.16-2.51.37h0Z"/>
    <path class="st0" d="M31.69,5.31c-.23-.36-.56-.64-1.65-1.16-1.53-.74-2.52-1.21-4.04-1.41-.34-.05-2.09-.26-4.22.31-1.14.3-2.05.55-2.75,1.41-.6.73-.74,1.51-.79,1.83-.04.23-.3,1.84.49,2.38.28.19.38.03.67.24.62.44.75,1.52.79,1.9.04.36.03.56.18.67.24.17.62-.06.98-.18.77-.26,1.32.06,2.51.37.63.16,1.56.35,2.75.43.14-.3.36-.71.67-1.16.36-.52.93-1.33,1.96-1.96,1.02-.62,2.02-.76,2.63-.79.15-.47.51-1.81-.18-2.87Z"/>
    <path class="st0" d="M37.19,2.68c-.45.62.33-.49-1.22,1.59-.66.89-1.58,2.13-2.69,3.67.07.25.16.63.24,1.1.14.8.14,1.15.24,1.9.17,1.23.26,1.85.55,1.96.4.15,1-.56,1.9-1.65,3.55-4.32,2.43-3.23,4.46-5.87.26-.34.88-1.13,1.22-2.32.19-.66.4-1.41,0-2.08-.4-.68-1.15-.84-1.22-.86-.69-.14-1.25.17-1.59.37-.72.42-.95.9-1.9,2.2h0Z"/>
  </g>
  <g>
    <path class="st0" d="M88.37,13.94c-.6.22-.74.29-.78.43-.1.13-.23.22-.38.28-.3.12-.9.68-.9.83-.1.17-.21.32-.35.46-.18.21-.34.44-.47.69-.14.27-.31.52-.5.75-.34.32-.55.75-.6,1.21-.03.22-.12.43-.26.6-.11.14-.19.29-.26.44-.19.35-.45.65-.77.88-.44,0-.67-.99-.51-2.21.03-.21,0-.43-.07-.63-.06-.16-.1-.3-.06-.33.07-.23.12-.46.15-.7.1-.57.09-.65-.06-.84-.09-.1-.13-.23-.1-.27,0-.16-.03-.32-.1-.46-.07-.27-.28-.48-.56-.56-.44-.25-.97-.31-1.45-.16-.24.07-.7.22-1.05.31-.66.2-1.24.64-1.24.95-.04.17-.12.33-.23.47-.14.17-.37.5-.54.71-.09.15-.21.28-.35.39-.04.52,0,1.05.11,1.56.1.34.09.7-.03,1.03-.1.17-.1.23.03.5.09.17.13.36.1.4-.04.12-.07.24-.08.37-.02.16-.05.53-.08.84-.03.23-.05.46-.05.7,0,.07.03.27.03.44,0,.34.1.67.28.96.08.11.15.22.19.35.26.35.71.52,1.14.44.1-.05.18-.07.18-.04s.09,0,.2-.08c.2-.09.42-.15.64-.17.39-.05.48-.03.64.12.17.17.17.19.04.5-.12.24-.28.46-.48.64-.14.12-.26.26-.35.42-.15.26-.32.51-.52.73-.26.36-.59.66-.97.88-.59.3-.7.39-.83.67-.16.23-.4.41-.67.5-.27.11-.52.29-.72.5-.29.49-.68.91-1.14,1.24-.23.15-.4.29-.38.31.06.11-.03.22-.4.48-.25.17-.47.37-.66.6-.14.18-.3.34-.49.48-.17.11-.25.23-.23.32.02.23-.14.44-.37.46-.13.03-.25.1-.33.21-.13.14-.3.24-.49.29-.18.05-.34.13-.5.23-.29.26-.62.49-.97.67-.22.19-.41.41-.56.66-.12.22-.27.42-.45.6-.12.06-.24.14-.33.23-.39.34-.82.64-1.28.9-.41.29-.75.68-.99,1.12-.08.25-.27.44-.5.55-.59.4-1.1.9-1.51,1.48-.09.14-.2.27-.34.37-.08.05-.13.14-.12.23-.08.22-.21.43-.39.58-.15.14-.29.29-.39.47-.04.1-.11.19-.19.26-.15.14-.21.35-.17.56,0,.31-.11.6-.33.82-.14.15-.24.34-.3.54.05.12.08.25.09.38.02.18.08.36.17.51.07.08.1.19.09.3-.03.04-.02.09.02.12h0c.11.17.19.35.23.55l.15.49.4-.06c.22-.03.57-.07.77-.09.21-.01.41-.04.61-.09.37-.05.74-.08,1.11-.08.36,0,.73-.04,1.08-.13.2-.08.41-.12.62-.13.27,0,.54-.09.76-.25.14-.1.29-.18.45-.23.15-.05.3-.12.43-.22.14-.11.31-.18.49-.22.24-.09.46-.22.64-.39.18-.17.39-.3.63-.39.09,0,.18-.07.21-.16.16-.2.35-.37.57-.5.59-.39.72-.59.57-.93-.33-.47-.77-.85-1.29-1.1-.24-.06-.48-.08-.72-.06-.45.03-.91-.12-.92-.32,0-.05-.02-.17-.03-.23-.02-.22-.31-.2-.53.03-.23.27-.63.3-.89.07h0s-.02-.02-.02-.02c-.29-.29-.21-.49.44-1.16.27-.26.53-.53.76-.83.12-.15.27-.28.44-.37.46-.27.88-.6,1.24-.99.2-.19.43-.35.67-.48.52-.25.98-.58,1.37-1,.17-.19.37-.35.59-.47.58-.3,1.06-.79,1.35-1.37.3-.57.34-.62,1.27-1.21.45-.27.88-.58,1.27-.93.15-.16.33-.29.54-.38.14-.05.27-.14.36-.26.14-.17.31-.32.5-.44.29-.2.56-.42.8-.68.27-.28.57-.53.88-.77.24-.16.46-.34.67-.53.09-.1.2-.18.32-.23.1-.03.18-.08.25-.16.83-.77.88-.81,1.05-.71.1.05.17.13.17.17,0,.05.04.09.09.09h0s.07-.04.04-.07c-.02-.07,0-.14.03-.19.04-.09.04-.19,0-.28-.06-.11-.03-.2.1-.33.1-.1.22-.16.26-.13.1.07.17-.15.08-.31-.11-.23.37-.81.86-1.02.22-.09.41-.22.58-.37.16-.15.33-.29.51-.41.19-.11.36-.24.5-.4.61-.84,1.15-1.73,1.62-2.66.14-.3.32-.59.53-.84.13-.14.23-.29.31-.46.1-.15.24-.28.4-.36.16-.07.29-.18.39-.32.09-.33.25-.63.47-.89.04,0,.09-.05.09-.12.04-.13.1-.25.18-.36.11-.14.17-.31.18-.49.02-.23.09-.46.2-.67.26-.53.33-1.12.22-1.7-.06-.18-.06-.38,0-.57.05-.1.04-.23-.04-.31-.06-.09-.1-.2-.07-.23.03-.04-.1-.13-.27-.2-.19-.08-.34-.22-.45-.39-.24-.31-.67-.41-1.01-.22Z"/>
    <path class="st0" d="M86.53,29.37c-.24.09-.47.22-.67.39-.16.15-.35.27-.55.37-.17.07-.3.17-.3.21s-.12.15-.26.22c-.25.16-.47.35-.68.56-.28.34-.65.58-1.06.7-.48.33-.88.76-1.17,1.26-.04.2-.07.4-.09.6,0,.2-.09.4-.24.53-.18.17-.33.37-.45.58-.11.21-.28.38-.49.5-.19.07-.33.22-.39.41-.14.28-.33.53-.55.75-.23.23-.54.57-.69.72-.13.12-.22.26-.29.42-.03.13-.09.24-.17.34-.09.12-.15.24-.11.27.11.11-.18.58-.5.81-.24.17-.42.4-.53.66-.06.18-.16.35-.29.49-.13.13-.25.27-.34.44-.11.18-.26.34-.43.46-.17.09-.31.25-1.24,1.52-.19.26-.5.68-.68.91s-.3.47-.28.52c.03.04,0,.18-.08.3-.17.26-.15.61.05.84.66.46,1.45.68,2.25.63.77-.03.88-.05,1.06-.23.12-.12.32-.16.97-.17.44,0,.93,0,1.08,0,.3-.01.59-.06.87-.16.71-.23,1.45-.37,2.2-.41.47-.04.93-.11,1.39-.21.45-.16.92-.21,1.39-.16.29.02.58.02.87-.02.92-.1,1.65.16,1.82.62.11.34.03.52-.37.77-.23.18-.43.4-.57.66-.1.2-.25.38-.43.51-.11.05-.21.14-.27.25-.43.81-.5.9-1.01,1.15-.34.18-.66.42-.93.7l-.4.44.19.39c.18.36.23.39.56.42.28.02.37,0,.45-.15.12-.14.28-.25.46-.29.28-.1.55-.22.8-.37.24-.14.62-.34.83-.44.19-.07.36-.18.5-.32.19-.15.4-.27.64-.34.46-.17.54-.23.66-.52.1-.25.26-.42.68-.68.28-.17.53-.38.75-.62.38-.52.82-.99,1.31-1.41.17-.12.32-.26.44-.44.47-.76.85-1.57,1.15-2.42.08-.25.19-.5.31-.74.04-.05.02-.16-.05-.25-.06-.08-.11-.18-.12-.29-.28-.66-.76-1.21-1.37-1.58-.4-.15-.85-.14-1.24.02-.38.23-.67.25-.86.06-.14-.14-.22-.16-.35-.09-.15.06-.31.09-.47.09-.25.02-.49.09-.72.18-.19.09-.39.16-.59.22-.97.17-1.83.54-1.91.81-.1.16-.23.3-.39.4-.29.2-.38.23-.58.16-.6-.1-1.21-.06-1.78.12-.39.14-.46.14-1.18,0-.38-.07-.76-.12-1.14-.15-.22.02-.43-.06-.57-.22-.1-.08-.17-.19-.22-.3.12-.19.27-.36.45-.5.24-.23.49-.46.54-.53s.27-.3.49-.53.55-.62.74-.87c.55-.72.63-.78.98-.78.28,0,.34-.04.46-.3.07-.12.1-.26.08-.39-.11-.18.18-.83.57-1.26.19-.19.33-.42.44-.67.16-.32.37-.62.61-.89.3-.36.58-.7.64-.77.05-.06.21-.25.35-.42.14-.16.24-.35.31-.56.07-.19.18-.36.33-.49.73-.67.84-.83.86-1.19,0-.17,0-.34-.03-.5-.03-.1-.05-.21-.05-.31,0-.17-.61-.61-.8-.59-.06,0-.31.08-.56.16Z"/>
  </g>
  <g>
    <path class="st0" d="M135.69,19.1c-.15-.04-.29.05-.58.21-.17.1-.39.23-.58.49-.18.24-.25.48-.28.64-.34.14-.62.18-.83.18-.23,0-.37-.03-.52.06-.18.11-.25.34-.28.52-.12.05-.31.11-.55.18-.55.16-.69.13-.95.28-.29.17-.45.4-.55.55-.22.33-.3.64-.34.83-.1-.02-.33-.06-.61.03-.09.03-.32.12-.49.34-.09.11-.18.28-.24.79-.06.55-.1.84,0,1.22.15.62.51,1,.58,1.07.41.43.87.57,1.22.67.53.16.97.16,1.25.15.47,0,.74-.08,1.38-.21.56-.11,1.12-.2,1.68-.31,2.07-.38,2.15-.08,3.24-.4.44-.13,2.48-.72,2.63-1.93.06-.48-.19-.97-.46-1.25-.31-.33-.57-.31-1.41-.64-.81-.32-1.26-.5-1.71-.89-.73-.63-1.07-1.47-1.07-1.47-.24-.58-.26-1.06-.55-1.13h0Z"/>
    <path class="st0" d="M134.34,28.33c.32-.38.53-.44.76-.67.47-.46.27-.83.67-1.68.31-.66,1.54-2.61,2.08-2.9.22-.12.18-.03.61-.21.74-.31,1.34-.76,1.35-.76.36-.27.5-.44.7-.4.23.05.26.29.46.31.19.01.3-.22.61-.61.38-.48.69-.87.98-.83.26.04.38.41.4.46.12.38-.05.74-.18,1.01-.43.86-1.41,2.79-2.17,3.94-.9,1.37-1.34,1.41-2.32,2.97-.34.54-.3.55-.61,1.01-.64.95-1.24,1.53-1.83,2.11-1.87,1.84-1.39,1.48-2.87,2.9-1.55,1.49-1.47,1.29-2.38,2.23-1.47,1.51-2.2,2.26-2.34,2.48-.07.1-.38.61-.99,1.01-.21.14-.76.51-1.02.33-.27-.19-.15-.91.07-1.43.43-1.01,1.13-.94,1.83-2.05.36-.57.19-.62.7-1.53.44-.78.88-1.32,1.01-1.47.7-.83.97-.83,1.65-1.62.4-.47.63-.84,1.01-1.47.19-.32,1.6-2.85,1.83-3.12h0Z"/>
    <path class="st0" d="M124.32,40.86c-.16.21-.55.74-1.07,1.53-.71,1.08-.94,1.57-1.1,2.11-.14.48-.21.72-.12.95.29.7,1.74,1,2.87.67,1-.29,1.19-.91,2.05-.86.91.05,1.28.15,1.28.15.14.04.37.1.67.06.23-.03.4-.12.52-.18.08.22.18.55.24.95.08.52.28,1.81-.43,2.78-.36.5-.81.71-1.5,1.04-.53.25-.65.22-2.2.7-1.06.33-1.53.51-1.8.98-.12.2-.25.54-.12.7.12.14.35,0,.86.09.19.03.38.1.76.24.46.17.54.23.67.28.59.18,1.22-.38,2.08-1.04.59-.45,1.24-.83,1.83-1.28,2.74-2.09,4.12-3.13,5.38-3.82.57-.31.98-.49,1.38-.98.61-.73.7-1.54.83-2.87.16-1.67.27-2.83-.42-3.35-.32-.24-.67-.24-1.36-.26-.74-.01-1.38.13-2.35.46-.28.09-.75.26-2.45.98-1.31.55-1.91.83-2.84.92-.64.06-.97.09-1.28-.12-.88-.59-.41-2.28-.89-2.41-.24-.07-.67.48-1.5,1.59h0Z"/>
  </g>
  <g>
    <path class="st0" d="M199.26,13.02c-2.33.78-4.65,1.57-6.98,2.35-.56.19-1.12.38-1.66.62-1.73.8-3.18,2.21-4.01,3.93-.1.21-.2.45-.12.68.11.32.49.43.82.5,1.59.31,3.21.54,4.83.46,1.62-.08,3.25-.49,4.61-1.37.1-.07.22-.14.34-.13.2.01.33.23.33.42s-.11.38-.21.55c-.86,1.42-1.73,2.84-2.59,4.27-.27.45-.55.91-.91,1.3-.7.77-1.65,1.24-2.57,1.72-2.17,1.15-4.25,2.46-6.19,3.97-.39.3-.78.63-.96,1.08s-.07,1.06.37,1.28c.21.1.46.1.69.09,1.48-.03,2.96-.07,4.44-.1.48-.01.97-.02,1.45-.13.62-.14,1.19-.45,1.74-.77,1.28-.76,2.5-1.64,3.46-2.77.9-1.05,1.55-2.29,2.46-3.33,1.12-1.28,2.61-2.23,3.5-3.68.45-.74.73-1.58,1.27-2.26.28-.36.63-.67.9-1.04.81-1.13.74-2.81-.17-3.86-.16-.19-.35-.36-.49-.58-.23-.36-.28-.81-.35-1.23-.14-.8-.54-2.01-1.36-2.38-.75-.33-1.92.19-2.63.43h0Z"/>
    <path class="st0" d="M193.35,31.2c.04,1.07.5,2.07.81,3.1s.46,2.19-.08,3.12c-.23.39-.57.71-.83,1.09-.36.52-.54,1.14-.82,1.7-.96,1.93-2.89,3.14-4.73,4.26-1.6.97-3.2,1.94-4.8,2.91-.58.35-1.16.7-1.81.88-.56.16-1.15.18-1.71.32-.61.15-1.18.44-1.74.73-2.09,1.06-4.17,2.12-6.26,3.18-.87.44-1.87,1.08-1.85,2.06,1.09.89,2.55,1.21,3.96,1.15,1.4-.06,2.77-.47,4.1-.91,1.33-.44,2.65-.91,3.96-1.41,1.17-.45,2.35-.93,3.39-1.64.51-.35,1-.76,1.58-.99,1.31-.52,3.03-.12,4-1.14.2-.22.36-.48.58-.67.62-.52,1.57-.33,2.31-.68.82-.39,1.18-1.34,1.72-2.08.6-.82,1.48-1.41,2.08-2.24.35-.49.59-1.06.83-1.62.31-.73.62-1.46.92-2.19.85-2.01,1.71-4.09,1.7-6.28-.01-1.84-.65-3.62-1.28-5.35-.16-.44-.33-.9-.69-1.21-.41-.36-1-.45-1.54-.43-2.39.08-3.87,2.04-3.78,4.34Z"/>
  </g>
  <path class="st0" d="M248,17c-1.08.28-2.18.46-3.29.56-.28.03-.55.12-.8.25-.24.13-.49.24-.76.31-.28.11-.54.27-.77.46-.29.23-.58.46-.68.52-.09.06-.36.25-.6.44-1.23.91-1.55,1.13-1.96,1.41-.67.51-1.28,1.1-1.82,1.76-.1.17-.23.33-.38.47-.24.2-.4.48-.45.78-.05.37-.04.41.23.64.16.17.38.25.61.23.52-.04.84-.3,1.28-1.04.46-.77.64-.93,1.18-.97.25-.03.49-.09.71-.2,1.17-.25,2.37-.3,3.56-.16.77.07.91.11.97.37.04.16-.02.34-.23.67-.16.25-.35.57-.42.71-.18.26-.38.5-.6.71-.18.16-.33.35-.46.55-.17.24-.36.46-.58.65-.46.37-.87.81-1.21,1.29-.24.33-.28.44-.21.58.07.12.03.28-.12.64-.07.18-.17.36-.28.52-.12.81-.08,1.64.1,2.45.04.12.07.24.09.36,0,.1.04.39.08.65.04.27.05.53.05.8,0,.38,0,.47,0,1.48-.01.33.02.66.09.98.06.27.06.56,0,.83-.08.5-.07.64.05.88.11.24.17.5.17.76.02.25.06.49.13.72.09.21.08.44-.03.64-.1.19-.11.42-.05.63.04.11.06.23.04.35-.02.14,0,.28.07.4.09.35.13.7.11,1.06,0,.35.03.7.1,1.04.04.09.07.19.06.3-.03.02,0,.11.03.2.08.22.12.44.12.67,0,.23.05.46.12.68.06.32.09.64.07.97,0,.64-.04.84-.17.97-.09.1-.14.23-.11.29,0,.14-.02.28-.08.41-.07.15-.11.3-.12.46-.08.35-.24.68-.46.96-.13.05-.27.07-.41.06-.23,0-.47.05-.69.13-.22.1-.47.12-.7.05-.28-.05-.56-.07-.84-.06-.28.03-.57-.01-.83-.12-.12-.07-.26-.1-.4-.1-.64-.15-1.23-.48-1.71-.94-.15-.19-.35-.33-.57-.42-.12,0-.24,0-.36-.04-.16-.05-.37,0-.83.22-.69.33-.71.36-.83.74-.08.48.09.97.45,1.29.42.34.76.76.99,1.24.08.16.17.29.21.29.03,0,.1.11.17.25.41.51.94.9,1.55,1.14.14.02.27.08.38.17.23.15.5.21.77.18.45.07.92-.01,1.31-.24.12-.08.25-.13.39-.13.07.02.14-.02.17-.09.15-.16.33-.27.54-.33.27-.12.54-.25.79-.4.11-.08.23-.15.37-.2.34-.26.65-.56.91-.89.07-.1.12-.21.15-.33.05-.2.17-.3.87-.73.2-.16.36-.37.46-.6.11-.25.24-.51.29-.58.11-.21.2-.42.28-.64.08-.24.2-.46.36-.65.11-.13.17-.29.2-.45.03-.17.06-.38.08-.49.02-.12.06-.23.13-.32.06-.05.08-.13.06-.21,0-.15.03-.3.09-.44.07-.14.09-.3.07-.45-.05-.1.12-.6.22-.6.06-.22.08-.46.07-.69,0-.32.04-.64.15-.95.07-.12.1-.25.1-.38,0-.12.04-.24.12-.32.13-.12.17-.31.09-.47-.07-.18-.03-.39.1-.53.18-.24.22-.6.17-1.79.02-.37.08-.74.19-1.1.03-.03,0-.21-.07-.4-.13-.49-.11-1.01.04-1.49.05-.08.06-.19,0-.28-.04-.08-.05-.16-.03-.24.03-.03-.02-.17-.09-.31-.08-.14-.12-.29-.14-.44-.02-.15-.06-.29-.12-.43-.11-.22-.11-.27,0-.44.07-.1.11-.18.08-.18-.03,0,0-.1.08-.24.08-.2.11-.41.08-.63-.1-.9-.12-1.18-.11-1.26.03-.38.02-.76-.04-1.13-.03-.29-.07-.8-.08-1.13,0-.27-.05-.55-.13-.81-.06-.11-.09-.23-.06-.25s-.03-.15-.12-.26c-.08-.09-.12-.21-.11-.33,0-.15-.04-.29-.12-.41-.09-.13-.14-.29-.14-.44.03-.08,0-.15-.05-.15-.19,0-.18-.35.03-.81.18-.37.43-.7.72-.98.25-.24.48-.5.7-.77.12-.15.26-.29.42-.4.19-.16.35-.34.48-.55.08-.16.19-.3.33-.41.1,0,.28-.39.28-.58.21-.54.55-1.03.98-1.43.21-.19.38-.43.5-.69,0-.1.05-.2.11-.28.26-.44.46-.91.59-1.4,0-.06-.03-.2-.04-.32-.1-.7-.3-.9-1.05-1.06-.45-.1-.91-.16-1.37-.19Z"/>
  <path class="st0" d="M298.49,27.14c-.15.09-.34.1-.5.03-.29-.14-.64-.12-.91.04-.4.5-.5.56-.89.56-.35,0-.41.03-.53.26-.14.2-.33.37-.55.47-.22.11-.42.25-.6.42-.21.31-.3.7-.23,1.07.18.2.42.33.69.36.33-.04.65.14.77.44.09.39.23.72.31.72.04,0,.15.15.23.32.11.23.24.46.38.67.12.15.21.34.24.53,0,.12.05.23.14.31.24.22.37.53.36.85,0,.47.09.93.27,1.36.04.1.06.2.04.3.02.28.08.55.18.8.1.26.16.54.17.82-.02.17.01.35.09.5.11.2.12.44.02.64-.1.21-.1.46,0,.67.09.25.09.37,0,.51-.06.12-.08.25-.07.37,0,.15-.04.3-.11.44-.07.14-.19.39-.26.57-.1.26-.23.37-.61.56-.23.1-.43.24-.6.42-.51.44-1.16.68-1.84.69-.24-.03-.48.04-.66.19-.21.13-.44.23-.69.28-.17.02-.33.07-.49.14-.15.07-.31.11-.48.12-.29-.01-.58.05-.84.17-.11.06-.25.08-.37.05-.12-.02-.25,0-.34.09-.16.12-.34.23-.52.32-.32.16-.37.22-.33.37.02.08.04.17.05.25,0,.04.1.07.24.07.15,0,.29.05.42.12.16.1.35.12.52.05.43-.07.87-.06,1.3.02.18,0,.37-.01.55-.04.18-.04.36-.03.53.02.16.05.34.03.49-.04.22-.07.45-.09.68-.06.21.07.44,0,.57-.18.49-.35,1.06-.56,1.66-.62.26-.04.51-.11.75-.23.11-.08.24-.13.37-.17.11-.03.2-.1.28-.18.1-.11.26-.17.41-.14.33-.02.64-.18.84-.44.19-.13.39-.22.61-.27.39-.12.51-.19.5-.3.11-.46.37-.87.73-1.17.18-.16.33-.36.44-.58.08-.19.18-.37.3-.53.1-.1.17-.22.16-.26-.05-.32.07-.64.3-.86.16-.17.29-.37.37-.59.04-.23.02-.3-.19-.46-.22-.17-.23-.24-.22-.65.01-.23,0-.46-.07-.68-.04-.12-.1-.34-.14-.47-.08-.22-.22-.42-.39-.58-.24-.23-.32-.38-.29-.5.02-.13-.02-.27-.1-.37-.08-.11-.11-.25-.09-.39.02-.14,0-.28-.09-.4-.09-.16-.14-.33-.14-.51-.04-.5-.24-.98-.56-1.37-.13-.17-.23-.35-.31-.55.08-.2.18-.39.31-.57.26-.39.3-.52.26-.77-.04-.18-.02-.37.06-.54.06-.12.09-.26.09-.39-.02-.11,0-.23.06-.33.07-.12.05-.27-.04-.37-.07-.12-.12-.25-.13-.38-.01-.12-.09-.22-.19-.28-.11-.04-.46-.21-.78-.36-.22-.08-.42-.2-.59-.36,0-.05-.13-.09-.29-.07-.12.01-.25,0-.37-.03-.13-.01-.27.02-.38.08Z"/>
</svg>