<?xml version="1.0" encoding="UTF-8"?>
<svg id="Layer_1" xmlns="http://www.w3.org/2000/svg" version="1.1" viewBox="0 0 296 40.5">
  <!-- Generator: Adobe Illustrator 30.3.0, SVG Export Plug-In . SVG Version: 2.1.3 Build 182)  -->
  <g>
    <path d="M18.46,12.15c-.62.73-1.1.85-2.5,1.64,0,0-2.47,1.41-5,3.94-.12.13-.46.47-.7,1.01-.16.36-.61,1.36-.09,2.19.03.05.44.68,1.18.79.24.04.83.06,1.93-.87.67-.57.95-1,1.93-2.37,1.36-1.9,1.75-2.36,2.19-2.8.6-.6,1.13-1.02,1.49-1.27-.04,0-.46-.12-.62-.52,0-.03-.15-.41.04-.7.19-.28.57-.32.79-.35.5-.06,1.2-.21,2.15-.52.37-.32.93-.85,1.49-1.58.49-.63,1.42-1.83,1.1-2.28-.18-.24-.68-.22-.97-.13-.32.09-.41.26-.79.52-.52.37-.7.29-1.18.57-.24.14-.49.32-1.18,1.14-.75.88-.95,1.23-1.27,1.6h0Z"/>
    <path d="M8.59,20.1c-.2.16-.71.62-1.41,1.49-.63.8-.9,1.31-1.8,2.9-1.22,2.14-1.46,2.48-2.06,3.69-.65,1.3-.84,1.82-.97,2.41-.05.23-.24,1.2-.09,2.45.12.96.19,1.49.62,1.8.75.53,1.96-.1,2.19-.22.78-.4,1.23-1,1.71-1.76.72-1.11,1.33-2.27,2.28-4.38.32-.7.87-1.96,1.62-3.29.42-.73.65-1.06.92-1.36.76-.85,1.14-1.18,1.14-1.18.15-.13.36-.31.52-.62.15-.28.19-.54.22-.7.19-1.33.28-1.99-.09-2.41-.58-.66-1.89-.32-2.45-.17-1.08.28-1.8.88-2.37,1.36h0Z"/>
    <path d="M27.18,9.1c.03.44.34.58.62,1.05.16.28.36.77.13,2.37-.17,1.2-.34,2.42-1.1,3.9-.77,1.52-1.79,2.57-2.24,3.03-.3.3-.91.9-1.71,1.8,0,0-.26.29-1.1,1.62-.2.32-.3.49-.27.7.09.49.87.81,1.49.83.52.01.92-.17,1.1-.27,1.68-.84,2.72-1.89,2.72-1.89,1.83-1.84,2.75-2.76,3.77-4.3.8-1.2,1.43-2.13,1.89-3.59.3-.95.38-1.75.52-3.33.14-1.41.07-1.96-.27-2.45-.32-.47-.78-.7-1.14-.87-.91-.45-1.75-.42-2.1-.39-.5.03-.94.06-1.41.35-.41.27-.97.82-.92,1.45h0Z"/>
    <path d="M21.35,23.12c-1.81.47-2.76.96-2.76.97-1.05.55-1.28.8-3.07,2.02-1.56,1.06-2.37,1.6-3.51,2.19-1,.52-1.54.8-2.37,1.1-.95.34-1.46.41-2.28.87-.15.09-1.59.91-1.45,1.36.16.49,2.01-.01,2.5.83.27.47-.08,1,.17,1.18.37.27,1.45-.62,1.7-.82,2.17-1.74,3.07-.98,6.41-2.86,1.38-.78,3.4-2.14,4.96-4.38.24-.34,1.43-2.07,1.01-2.55-.12-.13-.36-.16-1.31.09Z"/>
    <path d="M27.53,29.97c-.19-.19-.37-.37-.66-.57-.42-.29-.87-.47-2.15-.75-1.43-.3-1.66-.24-2.5-.52-.59-.21-.88-.31-1.18-.52-1.08-.78-.93-1.84-1.76-2.19-.38-.16-.74-.06-1.45.13,0,0-2.52.7-3.9,3.11-.16.27-.34.65-.22,1.01s.47.55.75.7c1.16.65.77.74,2.02,1.45.71.4,1.46.82,2.5,1.05,1.21.26,1.4-.05,2.24.31,1,.43,1.56,1.23,1.71,1.45.42.65.6,1.36.7,1.76.15.61.11.78.31,1.23.27.6.78,1.23,1.05,1.14.16-.05.13-.3.27-.66.24-.61.74-.95,1.1-1.18,1.18-.78,2.57-.49,2.8-.44.02-.31.04-.75.04-1.27.01-1.61.02-2.4-.27-3.16-.39-1.05-1.1-1.76-1.41-2.06v-.02Z"/>
    <path d="M1.36,33.25c-.1.06-.51.3-.83.79-.24.35-.32.67-.39,1.01-.05.21-.09.42-.13,1.53-.02.49.16,1.87.24,1.95.27.24.75.22,1.05.04.2-.12.24-.27.42-.54.28-.42.58-.67.92-.92.65-.48.9-.37,1.41-.83.16-.14.47-.44.66-.92.02-.05.47-1.25-.17-1.93-.32-.33-.72-.37-1.36-.44-.47-.05-1.13-.11-1.8.27h0Z"/>
    <path d="M22.67,3.75c-.16-.26-.4-.46-1.18-.83-1.1-.53-1.81-.87-2.9-1.01-.24-.04-1.5-.19-3.03.22-.82.22-1.47.39-1.97,1.01-.43.52-.53,1.08-.57,1.31-.03.16-.22,1.32.35,1.71.2.14.27.02.48.17.44.32.54,1.09.57,1.36.03.26.02.4.13.48.17.12.44-.04.7-.13.55-.19.95.04,1.8.27.45.11,1.12.25,1.97.31.1-.22.26-.51.48-.83.26-.37.67-.95,1.41-1.41.73-.44,1.45-.55,1.89-.57.11-.34.37-1.3-.13-2.06h0Z"/>
    <path d="M26.62,1.86c-.32.44.24-.35-.87,1.14-.47.64-1.13,1.53-1.93,2.63.05.18.11.45.17.79.1.57.1.82.17,1.36.12.88.19,1.33.39,1.41.29.11.72-.4,1.36-1.18,2.55-3.1,1.74-2.32,3.2-4.21.19-.24.63-.81.87-1.66.14-.47.29-1.01,0-1.49-.29-.49-.82-.6-.87-.62-.49-.1-.9.12-1.14.27-.52.3-.68.65-1.36,1.58h0Z"/>
  </g>
  <g>
    <path d="M81.32,1.23c-.6.22-.74.29-.78.43-.1.13-.23.22-.38.28-.3.12-.9.68-.9.83-.1.17-.21.32-.35.46-.18.21-.34.44-.47.69-.14.27-.31.52-.5.75-.34.32-.55.75-.6,1.21-.03.22-.12.43-.26.6-.11.14-.19.29-.26.44-.19.35-.45.65-.77.88-.44,0-.67-.99-.51-2.21.03-.21,0-.43-.07-.63-.06-.16-.1-.3-.06-.33.07-.23.12-.46.15-.7.1-.57.09-.65-.06-.84-.09-.1-.13-.23-.1-.27,0-.16-.03-.32-.1-.46-.07-.27-.28-.48-.56-.56-.44-.25-.97-.31-1.45-.16-.24.07-.7.22-1.05.31-.66.2-1.24.64-1.24.95-.04.17-.12.33-.23.47-.14.17-.37.5-.54.71-.09.15-.21.28-.35.39-.04.52,0,1.05.11,1.56.1.34.09.7-.03,1.03-.1.17-.1.23.03.5.09.17.13.36.1.4-.04.12-.07.24-.08.37-.02.16-.05.53-.08.84-.03.23-.05.46-.05.7,0,.07.03.27.03.44,0,.34.1.67.28.96.08.11.15.22.19.35.26.35.71.52,1.14.44.1-.05.18-.07.18-.04s.09,0,.2-.08c.2-.09.42-.15.64-.17.39-.05.48-.03.64.12.17.17.17.19.04.5-.12.24-.28.46-.48.64-.14.12-.26.26-.35.42-.15.26-.32.51-.52.73-.26.36-.59.66-.97.88-.59.3-.7.39-.83.67-.16.23-.4.41-.67.5-.27.11-.52.29-.72.5-.29.49-.68.91-1.14,1.24-.23.15-.4.29-.38.31.06.11-.03.22-.4.48-.25.17-.47.37-.66.6-.14.18-.3.34-.49.48-.17.11-.25.23-.23.32.02.23-.14.44-.37.46-.13.03-.25.1-.33.21-.13.14-.3.24-.49.29-.18.05-.34.13-.5.23-.29.26-.62.49-.97.67-.22.19-.41.41-.56.66-.12.22-.27.42-.45.6-.12.06-.24.14-.33.23-.39.34-.82.64-1.28.9-.41.29-.75.68-.99,1.12-.08.25-.27.44-.5.55-.59.4-1.1.9-1.51,1.48-.09.14-.2.27-.34.37-.08.05-.13.14-.12.23-.08.22-.21.43-.39.58-.15.14-.29.29-.39.47-.04.1-.11.19-.19.26-.15.14-.21.35-.17.56,0,.31-.11.6-.33.82-.14.15-.24.34-.3.54.05.12.08.25.09.38.02.18.08.36.17.51.07.08.1.19.09.3-.03.04-.02.09.02.12h0c.11.17.19.35.23.55l.15.49.4-.06c.22-.03.57-.07.77-.09.21,0,.41-.04.61-.09.37-.05.74-.08,1.11-.08s.73-.04,1.08-.13c.2-.08.41-.12.62-.13.27,0,.54-.09.76-.25.14-.1.29-.18.45-.23.15-.05.3-.12.43-.22.14-.11.31-.18.49-.22.24-.09.46-.22.64-.39s.39-.3.63-.39c.09,0,.18-.07.21-.16.16-.2.35-.37.57-.5.59-.39.72-.59.57-.93-.33-.47-.77-.85-1.29-1.1-.24-.06-.48-.08-.72-.06-.45.03-.91-.12-.92-.32,0-.05-.02-.17-.03-.23-.02-.22-.31-.2-.53.03-.23.27-.63.3-.89.07h0l-.02-.02c-.29-.29-.21-.49.44-1.16.27-.26.53-.53.76-.83.12-.15.27-.28.44-.37.46-.27.88-.6,1.24-.99.2-.19.43-.35.67-.48.52-.25.98-.58,1.37-1,.17-.19.37-.35.59-.47.58-.3,1.06-.79,1.35-1.37.3-.57.34-.62,1.27-1.21.45-.27.88-.58,1.27-.93.15-.16.33-.29.54-.38.14-.05.27-.14.36-.26.14-.17.31-.32.5-.44.29-.2.56-.42.8-.68.27-.28.57-.53.88-.77.24-.16.46-.34.67-.53.09-.1.2-.18.32-.23.1-.03.18-.08.25-.16.83-.77.88-.81,1.05-.71.1.05.17.13.17.17,0,.05.04.09.09.09h0s.07-.04.04-.07c-.02-.07,0-.14.03-.19.04-.09.04-.19,0-.28-.06-.11-.03-.2.1-.33.1-.1.22-.16.26-.13.1.07.17-.15.08-.31-.11-.23.37-.81.86-1.02.22-.09.41-.22.58-.37.16-.15.33-.29.51-.41.19-.11.36-.24.5-.4.61-.84,1.15-1.73,1.62-2.66.14-.3.32-.59.53-.84.13-.14.23-.29.31-.46.1-.15.24-.28.4-.36.16-.07.29-.18.39-.32.09-.33.25-.63.47-.89.04,0,.09-.05.09-.12.04-.13.1-.25.18-.36.11-.14.17-.31.18-.49.02-.23.09-.46.2-.67.26-.53.33-1.12.22-1.7-.06-.18-.06-.38,0-.57.05-.1.04-.23-.04-.31-.06-.09-.1-.2-.07-.23.03-.04-.1-.13-.27-.2-.19-.08-.34-.22-.45-.39-.24-.31-.67-.41-1.01-.22h.02Z"/>
    <path d="M79.48,16.66c-.24.09-.47.22-.67.39-.16.15-.35.27-.55.37-.17.07-.3.17-.3.21s-.12.15-.26.22c-.25.16-.47.35-.68.56-.28.34-.65.58-1.06.7-.48.33-.88.76-1.17,1.26-.04.2-.07.4-.09.6,0,.2-.09.4-.24.53-.18.17-.33.37-.45.58-.11.21-.28.38-.49.5-.19.07-.33.22-.39.41-.14.28-.33.53-.55.75-.23.23-.54.57-.69.72-.13.12-.22.26-.29.42-.03.13-.09.24-.17.34-.09.12-.15.24-.11.27.11.11-.18.58-.5.81-.24.17-.42.4-.53.66-.06.18-.16.35-.29.49-.13.13-.25.27-.34.44-.11.18-.26.34-.43.46-.17.09-.31.25-1.24,1.52-.19.26-.5.68-.68.91s-.3.47-.28.52c.03.04,0,.18-.08.3-.17.26-.15.61.05.84.66.46,1.45.68,2.25.63.77-.03.88-.05,1.06-.23.12-.12.32-.16.97-.17h1.08c.3,0,.59-.06.87-.16.71-.23,1.45-.37,2.2-.41.47-.04.93-.11,1.39-.21.45-.16.92-.21,1.39-.16.29.02.58.02.87-.02.92-.1,1.65.16,1.82.62.11.34.03.52-.37.77-.23.18-.43.4-.57.66-.1.2-.25.38-.43.51-.11.05-.21.14-.27.25-.43.81-.5.9-1.01,1.15-.34.18-.66.42-.93.7l-.4.44.19.39c.18.36.23.39.56.42.28.02.37,0,.45-.15.12-.14.28-.25.46-.29.28-.1.55-.22.8-.37.24-.14.62-.34.83-.44.19-.07.36-.18.5-.32.19-.15.4-.27.64-.34.46-.17.54-.23.66-.52.1-.25.26-.42.68-.68.28-.17.53-.38.75-.62.38-.52.82-.99,1.31-1.41.17-.12.32-.26.44-.44.47-.76.85-1.57,1.15-2.42.08-.25.19-.5.31-.74.04-.05.02-.16-.05-.25-.06-.08-.11-.18-.12-.29-.28-.66-.76-1.21-1.37-1.58-.4-.15-.85-.14-1.24.02-.38.23-.67.25-.86.06-.14-.14-.22-.16-.35-.09-.15.06-.31.09-.47.09-.25.02-.49.09-.72.18-.19.09-.39.16-.59.22-.97.17-1.83.54-1.91.81-.1.16-.23.3-.39.4-.29.2-.38.23-.58.16-.6-.1-1.21-.06-1.78.12-.39.14-.46.14-1.18,0-.38-.07-.76-.12-1.14-.15-.22.02-.43-.06-.57-.22-.1-.08-.17-.19-.22-.3.12-.19.27-.36.45-.5.24-.23.49-.46.54-.53s.27-.3.49-.53.55-.62.74-.87c.55-.72.63-.78.98-.78.28,0,.34-.04.46-.3.07-.12.1-.26.08-.39-.11-.18.18-.83.57-1.26.19-.19.33-.42.44-.67.16-.32.37-.62.61-.89.3-.36.58-.7.64-.77.05-.06.21-.25.35-.42.14-.16.24-.35.31-.56.07-.19.18-.36.33-.49.73-.67.84-.83.86-1.19,0-.17,0-.34-.03-.5-.03-.1-.05-.21-.05-.31,0-.17-.61-.61-.8-.59-.06,0-.31.08-.56.16h-.04Z"/>
  </g>
  <g>
    <path d="M132.82.69c-.17-.05-.34.06-.67.24-.2.12-.45.27-.67.57-.21.28-.29.56-.32.74-.39.16-.72.21-.96.21-.27,0-.43-.03-.6.07-.21.13-.29.39-.32.6-.14.06-.36.13-.64.21-.64.19-.8.15-1.1.32-.34.2-.52.46-.64.64-.26.38-.35.74-.39.96-.12-.02-.38-.07-.71.03-.1.03-.37.14-.57.39-.1.13-.21.32-.28.92-.07.64-.12.97,0,1.41.17.72.59,1.16.67,1.24.48.5,1.01.66,1.41.78.61.19,1.12.19,1.45.17.54,0,.86-.09,1.6-.24.65-.13,1.3-.23,1.95-.36,2.4-.44,2.49-.09,3.76-.46.51-.15,2.88-.83,3.05-2.24.07-.56-.22-1.12-.53-1.45-.36-.38-.66-.36-1.63-.74-.94-.37-1.46-.58-1.98-1.03-.85-.73-1.24-1.7-1.24-1.7-.28-.67-.3-1.23-.64-1.31h0l.02.02Z"/>
    <path d="M131.25,11.39c.37-.44.61-.51.88-.78.54-.53.31-.96.78-1.95.36-.77,1.79-3.03,2.41-3.36.26-.14.21-.03.71-.24.86-.36,1.55-.88,1.57-.88.42-.31.58-.51.81-.46.27.06.3.34.53.36.22.01.35-.26.71-.71.44-.56.8-1.01,1.14-.96.3.05.44.48.46.53.14.44-.06.86-.21,1.17-.5,1-1.63,3.23-2.52,4.57-1.04,1.59-1.55,1.63-2.69,3.44-.39.63-.35.64-.71,1.17-.74,1.1-1.44,1.77-2.12,2.45-2.17,2.13-1.61,1.72-3.33,3.36-1.8,1.73-1.7,1.5-2.76,2.59-1.7,1.75-2.55,2.62-2.71,2.88-.08.12-.44.71-1.15,1.17-.24.16-.88.59-1.18.38-.31-.22-.17-1.05.08-1.66.5-1.17,1.31-1.09,2.12-2.38.42-.66.22-.72.81-1.77.51-.9,1.02-1.53,1.17-1.7.81-.96,1.12-.96,1.91-1.88.46-.54.73-.97,1.17-1.7.22-.37,1.85-3.3,2.12-3.62h-.01Z"/>
    <path d="M119.64,25.92c-.19.24-.64.86-1.24,1.77-.82,1.25-1.09,1.82-1.28,2.45-.16.56-.24.83-.14,1.1.34.81,2.02,1.16,3.33.78,1.16-.34,1.38-1.05,2.38-1,1.05.06,1.48.17,1.48.17.16.05.43.12.78.07.27-.03.46-.14.6-.21.09.26.21.64.28,1.1.09.6.32,2.1-.5,3.22-.42.58-.94.82-1.74,1.21-.61.29-.75.26-2.55.81-1.23.38-1.77.59-2.09,1.14-.14.23-.29.63-.14.81.14.16.41,0,1,.1.22.03.44.12.88.28.53.2.63.27.78.32.68.21,1.41-.44,2.41-1.21.68-.52,1.44-.96,2.12-1.48,3.18-2.42,4.78-3.63,6.24-4.43.66-.36,1.14-.57,1.6-1.14.71-.85.81-1.79.96-3.33.19-1.94.31-3.28-.49-3.88-.37-.28-.78-.28-1.58-.3-.86-.01-1.6.15-2.72.53-.32.1-.87.3-2.84,1.14-1.52.64-2.21.96-3.29,1.07-.74.07-1.12.1-1.48-.14-1.02-.68-.48-2.64-1.03-2.79-.28-.08-.78.56-1.74,1.84h.01Z"/>
  </g>
  <g>
    <path d="M191.38.74c-2.17.73-4.33,1.46-6.5,2.19-.52.18-1.04.35-1.55.58-1.61.75-2.96,2.06-3.73,3.66-.09.2-.19.42-.11.63.1.3.46.4.76.47,1.48.29,2.99.5,4.5.43,1.51-.07,3.03-.46,4.29-1.28.09-.07.2-.13.32-.12.19,0,.31.21.31.39s-.1.35-.2.51c-.8,1.32-1.61,2.65-2.41,3.98-.25.42-.51.85-.85,1.21-.65.72-1.54,1.15-2.39,1.6-2.02,1.07-3.96,2.29-5.77,3.7-.36.28-.73.59-.89,1.01s-.07.99.34,1.19c.2.09.43.09.64.08,1.38-.03,2.76-.07,4.14-.09.45,0,.9-.02,1.35-.12.58-.13,1.11-.42,1.62-.72,1.19-.71,2.33-1.53,3.22-2.58.84-.98,1.44-2.13,2.29-3.1,1.04-1.19,2.43-2.08,3.26-3.43.42-.69.68-1.47,1.18-2.11.26-.34.59-.62.84-.97.75-1.05.69-2.62-.16-3.6-.15-.18-.33-.34-.46-.54-.21-.34-.26-.75-.33-1.15-.13-.75-.5-1.87-1.27-2.22-.7-.31-1.79.18-2.45.4h0v-.02Z"/>
    <path d="M185.88,17.67c.04,1,.47,1.93.75,2.89s.43,2.04-.07,2.91c-.21.36-.53.66-.77,1.02-.34.48-.5,1.06-.76,1.58-.89,1.8-2.69,2.92-4.41,3.97-1.49.9-2.98,1.81-4.47,2.71-.54.33-1.08.65-1.69.82-.52.15-1.07.17-1.59.3-.57.14-1.1.41-1.62.68-1.95.99-3.88,1.97-5.83,2.96-.81.41-1.74,1.01-1.72,1.92,1.02.83,2.38,1.13,3.69,1.07,1.3-.06,2.58-.44,3.82-.85s2.47-.85,3.69-1.31c1.09-.42,2.19-.87,3.16-1.53.48-.33.93-.71,1.47-.92,1.22-.48,2.82-.11,3.73-1.06.19-.2.34-.45.54-.62.58-.48,1.46-.31,2.15-.63.76-.36,1.1-1.25,1.6-1.94.56-.76,1.38-1.31,1.94-2.09.33-.46.55-.99.77-1.51.29-.68.58-1.36.86-2.04.79-1.87,1.59-3.81,1.58-5.85,0-1.71-.61-3.37-1.19-4.98-.15-.41-.31-.84-.64-1.13-.38-.34-.93-.42-1.43-.4-2.23.07-3.6,1.9-3.52,4.04h-.02Z"/>
  </g>
  <path d="M245.24,1.28c-1.08.28-2.18.46-3.29.56-.28.03-.55.12-.8.25-.24.13-.49.24-.76.31-.28.11-.54.27-.77.46-.29.23-.58.46-.68.52-.09.06-.36.25-.6.44-1.23.91-1.55,1.13-1.96,1.41-.67.51-1.28,1.1-1.82,1.76-.1.17-.23.33-.38.47-.24.2-.4.48-.45.78-.05.37-.04.41.23.64.16.17.38.25.61.23.52-.04.84-.3,1.28-1.04.46-.77.64-.93,1.18-.97.25-.03.49-.09.71-.2,1.17-.25,2.37-.3,3.56-.16.77.07.91.11.97.37.04.16-.02.34-.23.67-.16.25-.35.57-.42.71-.18.26-.38.5-.6.71-.18.16-.33.35-.46.55-.17.24-.36.46-.58.65-.46.37-.87.81-1.21,1.29-.24.33-.28.44-.21.58.07.12.03.28-.12.64-.07.18-.17.36-.28.52-.12.81-.08,1.64.1,2.45.04.12.07.24.09.36,0,.1.04.39.08.65.04.27.05.53.05.8v1.48c0,.33.02.66.09.98.06.27.06.56,0,.83-.08.5-.07.64.05.88.11.24.17.5.17.76.02.25.06.49.13.72.09.21.08.44-.03.64-.1.19-.11.42-.05.63.04.11.06.23.04.35-.02.14,0,.28.07.4.09.35.13.7.11,1.06,0,.35.03.7.1,1.04.04.09.07.19.06.3-.03.02,0,.11.03.2.08.22.12.44.12.67s.05.46.12.68c.06.32.09.64.07.97,0,.64-.04.84-.17.97-.09.1-.14.23-.11.29,0,.14-.02.28-.08.41-.07.15-.11.3-.12.46-.08.35-.24.68-.46.96-.13.05-.27.07-.41.06-.23,0-.47.05-.69.13-.22.1-.47.12-.7.05-.28-.05-.56-.07-.84-.06-.28.03-.57,0-.83-.12-.12-.07-.26-.1-.4-.1-.64-.15-1.23-.48-1.71-.94-.15-.19-.35-.33-.57-.42-.12,0-.24,0-.36-.04-.16-.05-.37,0-.83.22-.69.33-.71.36-.83.74-.08.48.09.97.45,1.29.42.34.76.76.99,1.24.08.16.17.29.21.29.03,0,.1.11.17.25.41.51.94.9,1.55,1.14.14.02.27.08.38.17.23.15.5.21.77.18.45.07.92,0,1.31-.24.12-.08.25-.13.39-.13.07.02.14-.02.17-.09.15-.16.33-.27.54-.33.27-.12.54-.25.79-.4.11-.08.23-.15.37-.2.34-.26.65-.56.91-.89.07-.1.12-.21.15-.33.05-.2.17-.3.87-.73.2-.16.36-.37.46-.6.11-.25.24-.51.29-.58.11-.21.2-.42.28-.64.08-.24.2-.46.36-.65.11-.13.17-.29.2-.45.03-.17.06-.38.08-.49.02-.12.06-.23.13-.32.06-.05.08-.13.06-.21,0-.15.03-.3.09-.44.07-.14.09-.3.07-.45-.05-.1.12-.6.22-.6.06-.22.08-.46.07-.69,0-.32.04-.64.15-.95.07-.12.1-.25.1-.38,0-.12.04-.24.12-.32.13-.12.17-.31.09-.47-.07-.18-.03-.39.1-.53.18-.24.22-.6.17-1.79.02-.37.08-.74.19-1.1.03-.03,0-.21-.07-.4-.13-.49-.11-1.01.04-1.49.05-.08.06-.19,0-.28-.04-.08-.05-.16-.03-.24.03-.03-.02-.17-.09-.31-.08-.14-.12-.29-.14-.44-.02-.15-.06-.29-.12-.43-.11-.22-.11-.27,0-.44.07-.1.11-.18.08-.18s0-.1.08-.24c.08-.2.11-.41.08-.63-.1-.9-.12-1.18-.11-1.26.03-.38.02-.76-.04-1.13-.03-.29-.07-.8-.08-1.13,0-.27-.05-.55-.13-.81-.06-.11-.09-.23-.06-.25s-.03-.15-.12-.26c-.08-.09-.12-.21-.11-.33,0-.15-.04-.29-.12-.41-.09-.13-.14-.29-.14-.44.03-.08,0-.15-.05-.15-.19,0-.18-.35.03-.81.18-.37.43-.7.72-.98.25-.24.48-.5.7-.77.12-.15.26-.29.42-.4.19-.16.35-.34.48-.55.08-.16.19-.3.33-.41.1,0,.28-.39.28-.58.21-.54.55-1.03.98-1.43.21-.19.38-.43.5-.69,0-.1.05-.2.11-.28.26-.44.46-.91.59-1.4,0-.06-.03-.2-.04-.32-.1-.7-.3-.9-1.05-1.06-.45-.1-.91-.16-1.37-.19v-.05Z"/>
  <path d="M291.44,10.44c-.15.09-.34.1-.5.03-.29-.14-.64-.12-.91.04-.4.5-.5.56-.89.56-.35,0-.41.03-.53.26-.14.2-.33.37-.55.47-.22.11-.42.25-.6.42-.21.31-.3.7-.23,1.07.18.2.42.33.69.36.33-.04.65.14.77.44.09.39.23.72.31.72.04,0,.15.15.23.32.11.23.24.46.38.67.12.15.21.34.24.53,0,.12.05.23.14.31.24.22.37.53.36.85,0,.47.09.93.27,1.36.04.1.06.2.04.3.02.28.08.55.18.8.1.26.16.54.17.82-.02.17.01.35.09.5.11.2.12.44.02.64-.1.21-.1.46,0,.67.09.25.09.37,0,.51-.06.12-.08.25-.07.37,0,.15-.04.3-.11.44-.07.14-.19.39-.26.57-.1.26-.23.37-.61.56-.23.1-.43.24-.6.42-.51.44-1.16.68-1.84.69-.24-.03-.48.04-.66.19-.21.13-.44.23-.69.28-.17.02-.33.07-.49.14-.15.07-.31.11-.48.12-.29,0-.58.05-.84.17-.11.06-.25.08-.37.05-.12-.02-.25,0-.34.09-.16.12-.34.23-.52.32-.32.16-.37.22-.33.37.02.08.04.17.05.25,0,.04.1.07.24.07.15,0,.29.05.42.12.16.1.35.12.52.05.43-.07.87-.06,1.3.02.18,0,.37,0,.55-.04.18-.04.36-.03.53.02.16.05.34.03.49-.04.22-.07.45-.09.68-.06.21.07.44,0,.57-.18.49-.35,1.06-.56,1.66-.62.26-.04.51-.11.75-.23.11-.08.24-.13.37-.17.11-.03.2-.1.28-.18.1-.11.26-.17.41-.14.33-.02.64-.18.84-.44.19-.13.39-.22.61-.27.39-.12.51-.19.5-.3.11-.46.37-.87.73-1.17.18-.16.33-.36.44-.58.08-.19.18-.37.3-.53.1-.1.17-.22.16-.26-.05-.32.07-.64.3-.86.16-.17.29-.37.37-.59.04-.23.02-.3-.19-.46-.22-.17-.23-.24-.22-.65.01-.23,0-.46-.07-.68-.04-.12-.1-.34-.14-.47-.08-.22-.22-.42-.39-.58-.24-.23-.32-.38-.29-.5.02-.13-.02-.27-.1-.37-.08-.11-.11-.25-.09-.39s0-.28-.09-.4c-.09-.16-.14-.33-.14-.51-.04-.5-.24-.98-.56-1.37-.13-.17-.23-.35-.31-.55.08-.2.18-.39.31-.57.26-.39.3-.52.26-.77-.04-.18-.02-.37.06-.54.06-.12.09-.26.09-.39-.02-.11,0-.23.06-.33.07-.12.05-.27-.04-.37-.07-.12-.12-.25-.13-.38-.01-.12-.09-.22-.19-.28-.11-.04-.46-.21-.78-.36-.22-.08-.42-.2-.59-.36,0-.05-.13-.09-.29-.07-.12.01-.25,0-.37-.03-.13-.01-.27.02-.38.08h.04Z"/>
</svg>